<?xml version="1.0" encoding="utf-8"?>
<!-- Generator: Adobe Illustrator 19.1.0, SVG Export Plug-In . SVG Version: 6.00 Build 0)  -->
<svg version="1.1" id="Layer_1" xmlns="http://www.w3.org/2000/svg" xmlns:xlink="http://www.w3.org/1999/xlink" x="0px" y="0px"
	 viewBox="345 -112 841.9 264" style="enable-background:new 345 -112 841.9 264;" xml:space="preserve">
<style type="text/css">
	.st0{fill:#333333;}
	.st1{enable-background:new    ;}
	.st2{fill:#FDFEFF;}
</style>
<g>
	<g>
		<g>
			<g>
				<path class="st0" d="M645,46.1c-0.5-0.9-2-2.8-2.3-3.4c-0.4-0.5-1.1-0.7-1.2-1.2c-0.4-0.5-0.7-0.9-1.1-1.1
					c-0.2-0.2-1.6-0.7-2.3-0.9c-0.9-0.2-2.5-0.9-2.7-1.1c-0.2-0.2-0.7-0.4-1.1-0.4s-1.6-0.2-1.8-0.4s-0.5-0.4-0.7-0.4
					s-1.4-0.4-1.6-0.4c-0.2,0-0.7,0-0.9-0.2c-0.2,0-0.4,0-0.5-0.2c0.9,4.8,2.5,15.6,2.5,20.4l0,0c0.2-0.2,0.4-0.4,0.5-0.5
					c0.7-0.7,2.7-2.7,4.3-3.7c1.8-1.1,3.4-1.2,4.1-1.2c0.9,0,1.4-0.9,2.7-0.9c1.1,0,3.9-0.2,4.3,0.5c0.2,0.7,1.1,0.7,2,0.9
					c0,0,0.2,0,0.4,0.2c-0.4-0.5-0.7-1.1-0.9-1.4C647.5,49.8,645.6,46.8,645,46.1z"/>
				<path class="st0" d="M666.5,76.8c0,0-2.3-1.4-2.8-2.5c-0.5-0.9-1.4-1.6-1.2-2.3c0.2-0.7-0.2-0.7-0.5-1.4c0-0.2-0.2-0.4-0.4-0.7
					c0,0.2,0,0.4,0,0.5c-0.2,1.1,0,2.5,0,2.8c0.2,0.4,0,1.2-0.4,1.8c-0.2,0.5,0,2.3,0,2.8s-0.2,1.8-0.4,2.3s0,0.9,0.9,0.9
					s2.5-1.1,3.2-1.2c0.7-0.2,1.4-0.7,2.1-0.9c0.7-0.2,1.1-0.4,1.4-0.4c-0.4-0.4-0.7-0.5-0.7-0.9C667.6,77.3,666.5,76.8,666.5,76.8z
					"/>
				<path class="st0" d="M717.1,78.9c-0.9,1.2-1.2,1.8-1.6,2c-0.4,0.4,0,0.9,0,0.9L716,82c0,0,0.2-0.7,0.9-0.7
					c0.7,0.2,1.1,0.2,1.2,0.2c0.2,0,0.2,0,0.4-0.2c-0.4-1.2-0.7-2.7-1.1-4.1C717.6,78.1,717.3,78.6,717.1,78.9z"/>
				<path class="st0" d="M630.7,36c0,0-0.7-0.4-1.2-0.7c-0.4-0.4-0.7-0.5-1.1-0.7c0,0.5,0.2,0.9,0.2,1.2c0.5,0,1.1,0.2,1.2,0.2
					C630,35.8,630.7,36,630.7,36z"/>
				<path class="st0" d="M796.9,60.1L796.9,60.1L796.9,60.1L796.9,60.1z"/>
				<path class="st0" d="M493.9,21.5c-1.1,0.9-2.1,1.8-3.9,3.2c-1.8,1.4-2.8,2-4.6,2.5s-2.5,1.6-2.5,1.6s-3.2,5.7-3.5,6.4
					c-0.2,0.7-2.7,6.4-3,7.3c-0.4,0.9-2,3.7-1.6,3.9c0.4,0,0.2,0.9,0.2,0.9s-3.7,7.6-5,9.8c-1.4,2.1-1.2,2-1.8,3
					c-0.4,1.1-1.8,3.5-2.8,4.4c-0.9,0.9-1.6,3-1.6,3s-0.9,0.5-0.9,0.9c0,0.5-0.4,1.2-0.4,1.6c0,0.2-0.5,1.1-0.9,1.6
					c1.1,0.5,2,0.9,2,0.9s5.5,2.7,6.4,3s2.1,1.1,2.1,1.1s5.5-1.6,8.7-0.9c3.4,0.7,6,2.1,6,2.1s1.4,1.1,2,0.9c0.5-0.2,5-1.2,5.5,0.2
					c0.2,0.4,0.4,0.7,0.5,1.2c0-3.9-0.2-8.2-0.5-9.6c-0.4-1.6-1.6-7.6-1.4-12.2c0.4-4.6,0-19.7,0.5-23.4s1.6-11,2.3-13.1
					c0.2-0.4,0.2-1.1,0.4-1.8l0,0C495.6,20.7,494.9,20.6,493.9,21.5z"/>
				<path class="st0" d="M424,39.7c0.2-0.4,0.4-0.9,0.4-1.1c0-0.4,0.2-0.9,0.2-1.1s0.4-0.9,0.4-1.4c0-0.2,0-0.7,0-1.2
					C424.1,36.9,423.8,38,424,39.7z"/>
				<path class="st0" d="M494.2,87.1c-0.4,0.4-0.2,1.1-0.2,1.2h1.8c-0.2-0.9-0.2-1.8-0.4-2.7C494.9,86.2,494.4,86.7,494.2,87.1z"/>
				<path class="st0" d="M796.2,58C796,58,796,58,796.2,58c-0.4,0-0.4,0-0.4,0l-0.2,0.2c0,0,0.5,0,0.7,0
					C796.2,58.2,796.2,58.2,796.2,58z"/>
				<path class="st0" d="M465.8,81.2c-1.1-0.7-5.9-4.4-5.9-4.4s-0.5-0.4-1.1-0.7c-0.4,0.4-1.8,2.1-2.1,2.8c-0.2,0.4-1.2,2.3-2.1,3.7
					c0.5,0.4,1.1,0.4,1.1,0.4s5.1,2,5.7,2.3c0.7,0.4,4.1,2.3,4.3,2.7l0,0l0,0c0-0.2-0.2-1.1-0.2-1.6c0-0.7,0.5-3.7,0.9-4.1
					C466.5,82.1,467.1,82.1,465.8,81.2z"/>
				<path class="st0" d="M896.6,77.7c-1.8-1.4-3.5-2.8-4.1-3.2c-0.4-0.2-1.1-0.7-1.6-1.1c0.4,1.4,0.5,2.7,0.7,3
					c0,0.9,1.8,6.7,1.8,7.5c0,0.5,0.5,2.7,0.9,4.4h9.4c0.9-2.7,1.2-3.9,1.8-4.8c-0.5-0.4-1.1-0.5-1.4-0.7
					C902.7,82.1,898.4,79.1,896.6,77.7z"/>
				<path class="st0" d="M972.2,81.8c-0.2-0.4,0-0.9,0.4-2c0.4-0.9,0.2-1.2-0.2-1.6c-1.6,0.7-4.1,2-5,2.1c-1.4,0.2-3,0.2-3.5,0.4
					c-0.5,0-5.7,2.3-6.9,2.7c-1.2,0.4-6,2.7-6.6,2.7s-0.7,0.7-0.7,0.9c0,0,0,0.5,0,1.4h22c0-0.4,0.2-0.9,0.4-1.2
					c0.4-1.2,0.7-2.3,1.1-3.7C973.3,82.1,972.2,82.1,972.2,81.8z"/>
				<path class="st0" d="M992.1,70.8c-0.2,0-1.2,0-1.6,0c-0.2,0-0.5,0-0.9,0c0,0.2,0,0.2,0,0.4l0,0c0.4,0,0.5,0.2,0.7,0.2
					c0.4,0.2,2.3,0.2,2.5,0.2s0.5,0.2,0.5,0.4c0,0.2,0,0.4-0.4,0.4s-2,0-2.3,0c-0.2,0-0.4,0-0.4,0c0.9,0.9,2,1.8,2.3,2.1
					c0,0,0.2,0.2,0.2,0.4c0.4-1.4,0.7-2.7,0.9-3.9h-0.2C993,70.8,992.3,70.8,992.1,70.8z"/>
				<path class="st0" d="M1053.7,88.3h0.5c-0.4-0.4-0.4-0.7-0.4-0.7S1053.7,88,1053.7,88.3z"/>
				<path class="st0" d="M804.4,84.6c-0.2-0.2-0.5-0.5-0.5-0.9c0.2-0.4-0.2-0.4-0.4-0.5c-0.2-0.2-0.5-0.4-0.2-0.7
					c0.2-0.4,0-0.7-0.2-1.2s-0.2-1.2-0.5-2.1c-0.2-0.4-0.2-0.5-0.4-0.9c-1.1,0.9-2,1.6-2.1,1.8c-0.5,0.5-4.1,3.2-4.4,4.1
					c-0.2,0.7-0.5,2.8-0.7,4.1h9.8c-0.2-0.4-0.2-0.9-0.2-1.4C804.6,86.2,804.6,84.8,804.4,84.6z"/>
				<path class="st0" d="M790.9,55.9c0.9,0,2.1,0.2,2.3,0.4l0,0c-0.9-0.5-1.1-0.5-1.4-0.7c-0.5-0.2-1.4-0.4-1.8-0.5
					c-0.4,0-1.2-0.5-1.8-0.7c-0.2,0-0.2-0.2-0.4-0.2c-0.7,0.2-1.6,0.4-2,0.5c-0.5,0-0.9,0.4-0.9,0.4s1.4,0.4,2.1,0.5
					C788.1,55.5,790,55.7,790.9,55.9z"/>
				<path class="st0" d="M796.9,66.7c0.4,0,1.1-0.4,1.2-0.7c0.2-0.2,0.4-0.7,0.7-0.7c-0.2-0.4-0.4-0.9-0.5-1.2
					c-0.4-0.7-0.4-2-0.4-2.3c0,0,0-0.2-0.2-0.2c-0.5,0.2-1.4,0.2-2.1,0.2s-1.6,0.4-1.6,0.4s0.4,0.5,0.2,0.7
					c-0.2,0.4-0.2,0.5-0.7,0.5c-0.4-0.2-0.5-0.2-0.9-0.2s-0.5,0-0.9-0.2s-1.4,0-1.6,0c-0.4,0-0.9,0-1.6-0.2c-0.5-0.2-1.4-0.4-2-0.4
					c0.2,1.2,0.7,4.6,0.4,5.7c-0.4,1.2-0.5,1.8-0.7,2c-0.2,0.4,0.2,0.7,0.2,0.7l0.5,0.2c0,0-0.2-0.7,0.5-0.7s0.9,0,1.1-0.2
					c0.2-0.2,0.5-0.5,1.1-0.5c0.4,0,0.4-0.5,0.7-0.5c0.4,0,0.5,0.4,1.1,0c0.7-0.4,1.6-0.5,1.8-0.5c0.4,0,0-0.9,0.7-0.9
					s1.1-0.2,1.2-0.4C795.9,67.1,796.6,66.7,796.9,66.7z"/>
				<path class="st0" d="M791.6,53.7c0.2,0,1.1,0.2,1.1,0.2s0.2-0.2,0.2-0.4s0-0.4-0.2-0.5c-0.2-0.2-0.5-0.5-0.7-0.7
					c0,0-0.2-0.2-0.5-0.4c0,0.2-0.2,0.5-0.5,0.7c-0.4,0.2-0.7,0.4-0.9,0.5c0.5,0.2,0.9,0.4,0.9,0.4
					C790.9,53.6,791.4,53.7,791.6,53.7z"/>
				<path class="st0" d="M842.5,83.9c-0.4,0.5-0.9,0.9-1.6,0.9c-0.7,0-1.2,0.5-1.2,0.7s-0.4,3.7-0.4,3.7c0.4,0.4,2.3,0,2.3,0
					s0-0.9,0.5-1.8s2.3-2.8,3.2-3.2c0.7-0.4,0.5-1.1,0.5-1.1S842.9,83.4,842.5,83.9z"/>
				<path class="st0" d="M956.8,51.3c-0.5-0.2-0.9-0.7-1.2-1.2c-0.2-0.5-3-1.4-3-1.4s-0.5,0.7,0.2,1.2s1.8,2.8,2.1,3.9
					c0.2,0.9,0,1.8,0,1.8s1.6,0.9,2.1,0.5c0,0,0.9-3.4,0.9-3.7S957.5,51.4,956.8,51.3z"/>
				<path class="st0" d="M1141.7,53.4c-0.4-0.4-0.7-1.4-1.1-2.3c-0.4-0.9-4.4-5-7.8-8.3c-3.5-3.4-12.1-8.9-13.8-10.1
					c-1.8-1.1-3.9-3.2-4.6-4.4c-0.7-1.4-2.7-5.9-2.7-6.2c0-0.4-0.2-2-0.9-2.8c-0.7-0.9-2-0.4-2-0.4s0-0.2-0.4-0.4
					c-0.4-0.2-2-0.4-2.3-0.4c-0.4,0-2-0.4-3.4-0.4c-1.2,0-1.8,0.7-2,0.9c-0.2,0.2-0.5-0.2-0.5-0.2s-1.1-0.5-1.8,0s-0.4,1.8,0.2,2.5
					s1.4,2,2,2.3c0.5,0.4,0.5,0.9,0.9,1.4s0.7,1.1,0.9,1.6c0.4,0.4,0.7,1.6,1.6,2.7c0.9,1.2,2.3,2.1,2.8,2.5s1.4,1.1,2,1.4
					c0.5,0.4,2.1,1.8,2.5,2c0.2,0.2,2.3,2,2.8,2.8c0.5,0.9,3.7,4.4,4.4,5.3c0.7,0.9,2.7,3.2,3.5,4.4c0.9,1.2,2.5,3.5,2.8,4.1
					c0.4,0.4,0,0.7-0.9,0.9s-5.9,1.8-7.6,2c-1.8,0.4-3,0.2-5,0c-2-0.4-6.9-0.4-6.9-0.4s-0.4-0.2-0.9-0.2s-0.9,0.4-1.6,0.4
					c-0.7,0.2-1.4,0.7-2.1,0.9s-2.3,1.2-3.2,1.2c-0.9,0-1.1-0.4-0.9-0.9s0.4-1.8,0.4-2.3s-0.2-2.3,0-2.8s0.4-1.4,0.4-1.8
					c-0.2-0.4-0.2-2,0-2.8c0.2-1.1-0.2-2.7,0-3.4c0.2-0.5-1.1-5.3-1.4-6.6s-2.3-2.3-3.2-3.2c-0.7-1.1-2.1-2.1-2.8-2.1
					c-0.7,0-4.4-3-5.3-3.2s-1.6-0.2-2-0.9c-0.2-0.7-3.2-0.5-4.3-0.5c-1.1,0-1.8,0.9-2.7,0.9s-2.5,0.2-4.1,1.2
					c-1.6,1.2-3.5,3-4.3,3.7c-0.8,0.7-1.1,2.1-2,3c-0.9,0.9-2.3,4.3-2.3,5s0.5,2,0,3.2s0,2.7,0,4.1c0,1.2,1.8,3.4,1.8,3.7
					c0,0.2-1.2,0.7-2.5,1.2c-0.2-1.2-0.2-3.7-1.1-6.9c-1.1-3.9-5.7-12.6-5.7-12.6c-0.5-1.1-0.9-1.4-0.4-3.5s-2-4.6-2-5.5
					c0-1.1,0.7-2.3,0.7-3.2c0-0.9,0.5-2.8,1.8-4.1c1.2-1.2,0-2.5-0.4-4.4c-0.4-2-0.7-4.8-1.2-5s-2.7-4.3-2.8-5.1
					c-0.2-1.1-2.8-3.2-3.2-3c-0.4,0-3.2-0.5-4.4-1.2c-1.2-0.7-3.7-1.4-4.4-1.4c-0.7,0-2-0.5-2.1-1.8c-0.2-1.2-2.3-3-3-3
					s-0.9-1.2-1.1-2.5c0-1.2-1.2-5.9-2.3-8.5c-1.2-2.7-3.4-8.9-3.4-9.9s-0.9-8.9-1.2-12.4c-0.2-3.5-6-11.5-6.4-12.6
					c-0.5-1.1-7.8-11.9-8.7-13.7c-0.9-1.6-3.9-8.3-4.4-9c-0.4-0.7-0.4-2.3-0.2-2.8s0.5-5,0.5-5.7s0-2.5-0.4-2.7s0-1.8-0.2-3.9
					c0-2.3-2.3-7.3-2.7-7.8c-0.4-0.7-1.1-1.4-2.1-0.4c-1.1,1.1,0.5,2.8,0.7,3.4c0.4,0.5,0.4,3.7,0.4,3.7s-0.5,0.2-0.9-0.4
					c-0.5-0.5-2.3-2-3.4-2.5c-1.1-0.5-2,0.2-2,1.2c0,1.1,1.6,1.6,2.1,2.1s2,2.3,2.5,3.2c0.5,0.9,1.1,1.6,0.5,1.6
					c-0.7,0-1.4-0.2-1.8-0.5c-0.4-0.4-3.2-2-3.7-2.3c-0.5-0.4-1.8-1.1-2.8-0.5c-1.1,0.5-0.7,1.6-0.2,2.3c0.5,0.7,3.2,2.5,3.9,3.2
					c0.9,0.7,0.7,1.6,0.7,2.3s-1.1,1.6-2,2.8c-0.9,1.2-0.9,3.2-1.4,3.4c-0.5,0.2-1.8,1.6-2.1,2c-0.4,0.2-0.9,0.5-2.8,0.2
					c-2-0.5-4.4,1.2-4.4,2s1.8,0.5,3,0.9c1.1,0.4,2,2.1,2.8,2.8c0.9,0.9,2.5,0.5,4.1,0.5s1.8-0.2,2.3,0.2c0.7,0.4,2,3,2,3
					c0.7,2.8,3.9,12.2,5,18.3c0.9,6,4.4,12.8,5.7,16c1.2,3.2,1.6,9.6,1.6,13s2.1,13.1,2.1,13.1h-1.2c0,0,0,1.8-0.5,3s2,6,2.3,8.2
					c0.5,2.1-1.4,8.3-2.3,8.7c-0.9,0.4-0.5,1.2-0.5,2.8c0,1.4,0.9,2-0.7,3.5c-1.6,1.8-2.5,2.5-3.7,5s-6.4,26.1-9.8,28.9
					c-3.5,2.8-1.4,6.6-2.3,13.1c-0.2,0.9-0.4,1.8-0.5,2.8c-0.2-0.2-0.7-0.2-0.9-0.2c-0.4,0-2,0-2.3,0c-0.5,0-1.6,0-1.8-0.2
					c-0.4-0.2-0.2-0.5-0.2-0.7s0.4-0.2,0.5-0.4c0.4-0.2,1.2-0.5,1.4-0.5c0.4,0,0.7-0.4,0.9-0.4s0.7-0.2,0.9-0.2
					c0.4,0,0.5-0.2,0.9-0.2c0.5,0,0.7-0.4,0.7-0.5c0-0.2-0.4-0.5-0.7-0.5c-0.4,0-2.1,0.5-2.7,0.5c-0.4,0-2,0.5-2.1,0.7
					c-0.2,0-0.2,0-0.2-0.2c-0.2-0.2,0-0.4,0.2-0.4s1.1-0.5,1.2-0.5c0.4-0.2,1.2-0.7,1.2-0.7c0.2-0.2,0.7-0.2,1.4-0.5
					c0.5-0.4,0.5-1.1,0-1.1s-1.4,0.7-1.4,0.7s0,0-0.2-0.2s-0.5,0-0.7,0.2s-0.7,0.4-1.1,0.4c-0.4,0-1.4,0.7-2,0.7s-1.4,0.4-1.8,0.5
					c-0.2,0-0.5,0.4-0.9,0.5c-0.4-0.5-0.7-1.1-1.1-1.6c-1.6-3-4.3-5.1-4.3-5.1s-1.1-1.2-1.4-1.6c-0.5-0.4-2-1.2-3-4.3
					c-1.1-3-1.8-5.3-2.1-5.9c-0.4-0.7-0.2-3-0.4-4.4s-2.8-6-3.4-6.6c-0.4-0.5-1.8-4.1-1.8-4.3c-0.2-0.2-1.1-1.8-1.4-2.3
					c-0.4-0.5-3.9-5.7-5-7.1c-1.2-1.4-4.4-4.6-4.4-4.6l-0.9-1.2c0,0-0.2-0.4,0-0.7c0.2-0.5,0.2-1.6,0-2.1s-0.4-1.6-0.5-1.6
					c0,0,0-1.1-0.2-1.1c0,0,0,0,0.2-0.2c0-0.2,0.4-0.5,0.4-0.5l0.9-0.4l0.9-0.4c0,0,0.4-0.5,0.2-0.5s-0.4,0-0.4,0s0-0.4-0.4-0.4
					s-1.2,0.2-1.2,0.2l-1.1,0.2h-0.4c0,0,0.5-0.4,0.7-0.4s1.1-0.2,1.1-0.4c0.2-0.2,0.2-0.5,0-0.7c-0.2,0-0.9,0.2-1.1,0.2
					c-0.2,0-1.2,0.4-1.2,0.4c-0.2,0-0.9,0-1.1,0.5c-0.2,0.4-0.5,1.1-0.5,1.1s-0.2,0.5-0.4,0.5s-0.2-0.2,0-0.5c0-0.4,0.4-1.1,0.7-1.2
					c0.2-0.2,0.7-0.7,0.7-1.1c0.2-0.4-0.4-0.7-0.7-0.4c-0.4,0.4-1.6,1.4-1.8,1.6s-0.7,2.8-0.7,3s0.2,1.2,0.5,1.8
					c0.4,0.4,1.1,2.1,1.2,2.7c0.2,0.5,1.1,2.1,1.1,2.1s2.3,3.2,3,4.1c0.7,1.1,1.6,2.3,2.3,3.5c0.7,1.4,3.2,5,3.9,6.2
					c0.9,1.2,1.2,1.4,1.2,1.8s0.2,2.8,0.4,3c0.2,0.4-2.7,0.2-4.1,1.6c-1.4,1.4-1.2,1.8-1.6,2.7c-0.4,0.7-0.7,2.1-0.7,2.3
					c-0.2,0.2-0.2,0.4-0.4,0.4s-0.4,0.4-0.4,0.5c0,0.2-0.2,0.4-0.9,0.2s-1.8-1.2-2.3-1.4c-0.5-0.4-3.2-1.1-3.7-1.2
					c-0.5-0.2-2.3,0-2.8,0.9c-0.5,0.7-0.2,1.4-0.4,1.8s-1.1,1.6-0.4,3.2c0.7,1.8,1.1,4.4,2,5.3s0.7,1.2,0.7,1.2s-0.9,3.7,1.1,6.6
					c2,2.8,3.4,2.3,5.1,3.4c1.8,1.1,2.8,2.8,5.3,3.7c0,0,4.4,1.8,5,2c0.4,0.2,0.9,0.2,1.8,0.7c-1.1,0.2-2.8,0.2-3.9,0.4
					c-1.1,0.2-2.3,2.1-2.7,2.1s-1.4,0.4-2.1,0.4c-0.7,0-2-0.5-2.8-0.7c-0.9-0.2-2.5,0-3.7,0s-2.3,0-3-0.4c-0.7-0.2-1.6,0-2.3,0
					s-3.5,0.7-4.3,0.7c-0.7,0-2,0.2-2.1,0c-0.2-0.2-0.2-0.7,0-1.4c0.2-0.5,0-1.8,0-2.1c-0.2-0.5,0-1.1-0.4-2.3
					c-0.2-1.4-2.1-2.3-2.1-2.3l0.2-1.4c0.2-1.4,0-3.4-1.6-5.5c-1.8-2-4.8-2.3-6.4-2.1c-1.6,0.2-5.3,1.4-5.9,4.6
					c-0.7,3.2-0.2,3.7-0.2,4.1s-0.4,0.9-0.9,1.2c-0.5,0.4-0.9,1.2-1.1,2c-0.2,0.7-0.4,2.8-0.7,3.4c0,0.2-0.2,0.2-0.2,0.4
					c0.2-4.8-0.2-11-0.5-13.8c-0.5-3.7-1.2-6.6-0.4-9.2c0.7-2.7,0-9.9-0.7-11c-0.5-1.1-2.5,0.2-2.7,3c0,0.5-0.4-2.5-0.9-3.7
					s-1.4-4.8-3-3c-0.5,0.5-0.4,3.2,0,6.6s-0.4,8.2-2.3,10.8c-2,2.7-4.8-2.8-6.2-5.1s-3-2.1-4.1-1.6s-0.2,1.6,1.2,3.5
					c1.2,2,2.8,5.7,3.9,8.7c1.1,3,1.4,2.3,4.3,5.1c2.8,2.8,2.7,7.6,2,10.3V74c0,0-0.2,0-0.4-0.2c-0.7-0.4-3.5-1.4-4.4-1.8
					c-1.1-0.5-3.2-1.1-3.4-1.4c-0.2-0.4-0.9-0.5-1.6-0.7c-0.7-0.2-3-1.4-3.5-1.8s-4.3-1.4-5-2.1c-0.5-0.5-1.6-1.1-2.5-1.6
					c0.2-0.5,0.4-1.1,0.5-1.4c0.7-1.4,2.1-4.4,2.5-5.3s0.9-4.8,1.1-5.5c0.2-0.9,2.8-4.3,3.9-7.1c1.2-2.8,3.9-9.6,4.6-11.9
					c0.9-2.3,3.2-6.4,3.9-7.6s2-6.4,2.1-6.9c0.4-0.5,0.9-3.2,0.9-3.2s1.1-2.8,1.1-3c0.2,0,0.2-0.4,0.2-0.7c0.2-0.4,0.9-2.5,1.1-2.8
					c0.2-0.5,0.5-2.1,0.9-2.3c0.4-0.2,1.8-2,2.1-2.5c0.4-0.4,0.5-0.5,0.4-0.7c-0.2-0.2-0.7,0.4-1.4,0.9s-0.5-0.2-0.5-0.2
					c0-0.2,1.2-2,1.4-2.1c0.4-0.4-0.4-0.5-0.4-0.5l-1.1,1.1c0,0,0.2-0.7,0.4-1.4s-0.9-0.2-0.9-0.2c0,0.2-0.9,1.4-0.9,1.4
					s0-0.4,0-0.7c0-0.4-0.7,0-0.9,0.5c0,0.4-0.9,3.4-0.9,4.1c0,0.9-1.2,2.1-1.6,2.1c-0.2,0-0.4-0.2-0.9,0c-0.5,0-0.9,0.4-0.9,0.9
					s-0.5,0.7-0.5,1.4c-0.2,0.7,0.2,1.6,0.2,1.6l-0.4,0.4c0,0,0,0.4,0,0.7c0,0.2,0.4,0.5,0.4,0.5l-1.2,2.1c0,0,0-0.2-0.4-0.2
					s-0.7,1.1-0.7,1.1s-2.5,3.9-3.4,5.7s-3.7,7.1-6.4,11.4s-4.4,7.5-5.5,8.2c-1.1,0.9-1.4,0.9-1.4,0.5c0-0.2,0.7-1.4,0.7-2.1
					s-0.5-2.3-0.9-3s-2.7-3.5-3.9-4.3c-1.2-0.7-3.7-0.2-6.6,0.5c-2.8,0.9-2.1,2.3-2.5,2.8c-0.5,0.4-1.8,2.7-1.8,3.7
					c0,1.2,1.4,3.2,1.8,3.9c0.4,0.7-0.4,1.2-0.4,1.2c-0.4-0.2-1.6-1.1-3.4-2.3c-1.8-1.2-3.4-4.1-3.9-4.8c-0.4-0.7-2-2.7-2-3.2
					s-0.2-2.3-0.4-2.8c0-0.5-0.9-3.4-2-5s-2.3-6-2.3-6.2s-0.4-0.9-0.5-1.4c-0.2-0.5-0.2-1.8,0-2.1s0.4-1.2,0.5-1.4
					c0.2-0.2,0.4-1.2,0.4-1.4c0,0-0.2-0.9-0.2-1.1s-0.2-1.2-0.4-1.8c-0.2-0.4,0.2-0.5,0.2-1.2c0-0.5-0.9,0-0.9,0s-0.2-1.1-0.2-2
					s0-0.5,0-0.9s-0.4-0.2-0.7,0c-0.2,0.2-0.2,0.4-0.2,0.5c0,0-0.2,0-0.2-0.4c-0.2-0.4-0.5,0.2-0.5,0.5c-0.2,0.5-0.7,2.5-0.7,3
					s0,0.9-0.2,1.1s-0.7,0.2-0.7-0.2s-0.2-0.5-0.2-0.5s-0.4-0.9-0.4-1.1s-0.4-1.4-0.7-2c-0.4-0.5-0.7,0.2-0.7,0.7
					c0,0.4,0.4,1.4,0.4,1.8c0,0.2,0.2,1.2,0.4,1.8c0.2,0.5,0.2,0.9-0.2,0.9s-0.4,0-0.4-0.2s-0.5-0.4-1.1-0.9
					c-0.5-0.5-1.1-1.4-1.2-1.6c-0.2-0.2-0.5,0-0.5,0.2s0.7,1.4,1.2,2.1s1.1,1.6,1.1,1.8c0,0.4,0.2,1.4,0.5,2.1
					c0.4,0.5,1.2,1.8,1.2,2.3s0.4,1.1,0.4,1.1l-0.5,0.4c0,0,0.2,1.4,0.2,4.4s0.9,7.8,2,10.5c1.2,2.7,4.4,8,7.3,13.1
					c3,5.1,1.4,7.6,1.1,10.6c-0.4,2.8-0.5,9.6,0,11.9s1.6,12.1,1.6,15.8c0,0,0,0.2,0,0.4h-17.2c0.7-0.9,1.2-2.1,2-2.8
					c1.2-1.4,0.7-2.8,0.7-3.2c0-0.4,0.5-0.9,0.2-1.8c-0.2-0.9-2-1.4-2.5-1.4s-3.4,0-3.9,0.2s-2,0.9-2.7,0.9s-0.7-0.4-0.7-0.4
					c0-0.2-0.2-0.5-0.2-0.5c-0.2,0-0.2-0.2-0.2-0.4c0-0.4,0-1.6,0-2.5s0.2-1.2-0.7-2.8c-0.9-1.8-3.7-2.3-3.4-2.5s1.2-2.5,1.2-2.8
					c0-0.4,0.5-0.4,1.8-1.4c1.2-1.1,4.6-3.9,5.9-5c1.1-1.1,2.3-2.1,3.4-2.8s4.1-3.2,4.1-3.2s1.2-1.4,1.6-1.8s1.6-2,2.1-2.1
					c0.5-0.4,1.1-1.4,1.1-1.6s0.4-2.8,0.4-3s-1.1-1.6-1.2-2c-0.2-0.4-0.9-0.2-0.9,0.2s0.2,0.9,0.4,1.2c0.2,0.4,0.2,1.1,0.2,1.4
					c0,0.4-0.2,0.5-0.2,0.5c-0.2,0-0.2-0.5-0.2-0.5s0-0.7-0.2-1.2c0-0.5-0.7-0.7-0.9-0.7c0,0-0.9-0.7-1.1-0.7
					c-0.2,0-0.7-0.4-0.9-0.4s-0.2,0.5-0.2,0.7s0.7,0.5,0.9,0.7c0.2,0,0.5,0.5,0.5,0.5l-0.4-0.2l-0.9-0.4c0,0-0.9-0.5-1.2-0.5
					c-0.4,0-0.4,0.2-0.4,0.2s0,0-0.4,0c-0.2,0,0,0.5,0,0.5l0.7,0.5l0.7,0.5c0,0,0.2,0.4,0.2,0.5c0,0.2,0.2,0.2,0,0.2
					s-0.4,0.9-0.5,1.1c-0.2,0-0.7,1.1-1.1,1.4c-0.4,0.4-0.5,1.6-0.7,2c0,0.5-0.2,0.7-0.2,0.7l-1.2,0.9c0,0-4.1,2.3-5.7,3.2
					c-1.6,1.1-6.6,5-7.1,5.5c-0.5,0.4-2,1.6-2.1,1.8c-0.2,0.2-2.5,3.2-3,3.5c-0.5,0.5-4.8,4.3-5.3,5.5s-1.2,3.5-1.8,4.1
					s-2,2.7-3.9,5.1s-3.7,3-4.3,3.2c-0.5,0.2-2,1.2-2,1.2s-0.7,0.4-2,1.1H811c0-0.2,0-0.4,0-0.5c0-0.7-0.9-2.8-1.2-4.3
					c-0.4-1.4-1.6-4.8-2.1-6.2c-0.2-0.7-0.9-2.5-1.4-4.3c0.2-0.2,0.4-0.4,0.5-0.4c0.5-0.4,3-3.5,3.5-3.7c0.7,0,1.1-0.9,1.2-1.2
					c0.2-0.5,1.6-2.5,1.8-2.8s0.9-2,1.4-2.1c0.5-0.4,0.5-0.4,0.5-0.9c0.2-0.4,0.2-0.7,0.5-1.1c0.4-0.4,2.3-1.8,2.5-2
					c0.4-0.2-0.2-0.4,0-0.4s1.6-1.6,2.3-2.1s3.2-3.4,3.7-4.1c0.7-0.7,3.7-4.8,4.3-5.3c0.4-0.5,3.2-3.5,3.4-3.9s1.1-1.1,1.8-1.6
					c0.9-0.5,2.1-0.9,2.8-0.9c0.5,0,2-0.5,2.5-0.7c0.5,0,1.2-0.4,1.6-0.4c0.2,0,1.4,0,2,0c0.5,0,1.1-0.2,1.2-0.2
					c0.4,0,1.1-0.4,1.4-0.4s0.5,0,0.9,0s0.4,0,0.7,0c0.4,0,0.4-0.2,0.4-0.5c0-0.4-0.4-0.5-0.4-0.5s0.7-0.5,1.2-0.5
					c0.5-0.2,1.4-0.4,1.8-0.7c0.4-0.2,0.4-0.7,0-0.9c-0.2-0.2-0.9-0.2-1.1-0.2c0.4-0.2,0.5-0.4,0.9-0.4s0.5-0.4,0.5-0.4
					c0.2,0,0.4-0.2,0.4-0.2c0.2,0,0.5-0.2,0.7-0.4s0-0.5-0.4-0.7s-1.1,0-1.4,0c-0.4,0.2-1.2,0.4-1.4,0.4s-1.1,0.2-1.1,0.2l0.2-0.2
					c0,0,0.7-0.4,1.1-0.4c0.4-0.2,0.9-0.5,1.2-0.5s0.5,0,0.5-0.4c0-0.2,0.4-0.9-1.1-0.9c-1.4,0-1.2,0.4-2.1,0.5
					c-0.9,0-2,0.5-2.1,0.5c-0.2,0-1.4,0.2-2.1,0.2c-0.7,0.2-2.5,0.4-3.2,0.4c-0.5,0-2,0-2,0s0.2-0.4,0.7-0.5c0.4-0.2,1.2-0.7,2-1.1
					c0.5-0.4,1.2-0.9,1.8-1.4c0.5-0.7,0.2-1.2-0.2-1.4c-0.4-0.2-1.4,0.2-2,0.5c-0.5,0.2-1.4,0.9-2.1,1.2c-0.7,0.4-1.6,0.7-2.1,0.9
					c-0.5,0.2-2.3,1.4-2.7,1.8s-1.4,1.2-1.6,1.6c-0.2,0.4-0.4,1.1-0.9,1.6c-0.4,0.5-1.2,1.2-2,2.1c-0.7,0.9-2.5,2.5-3.2,3
					s-3.2,3-4.1,3.7s-2.7,2.3-4.6,4.1c-2.1,1.6-4.3,4.3-4.3,4.3s0,0.2-0.2,0s-0.4,0.2-0.7,0.5c-0.4,0.4-3.2,3-3.7,3.4
					s-1.4,1.1-2.1,1.1s-1.1,0.7-2.1,0.9c-0.4,0-0.7,0.2-1.1,0.5c0-0.5,0-0.9,0-1.1c0-0.4-0.2-0.2,0-0.4s0.2-0.4-0.2-0.7
					c-0.4-0.4-0.5,0-0.7,0s0-0.2,0.2-0.4c0.2,0,0.2-0.2,0.5-0.4c0.4-0.2-0.5-0.5-0.7-0.7c-0.2,0-0.5-0.2-0.5-0.2c0-0.2,0-0.4,0-0.7
					c0-0.2,0-1.4,0-2c0-0.5-0.2-1.6,0-2s-0.2-1.6-0.2-2.1c-0.2-0.5,0-1.2,0-1.6s0.4-0.9,0.4-1.1s0.4-0.9,0.5-1.1
					c0.2-0.2-0.4-1.1-1.4-0.4c-1.1,0.5-1.2,2.1-1.4,2.3s-0.2,1.1-0.4,1.6c0,0.4-0.2,0.7-0.4,0.7s-0.5,0.2-0.7,0.2s-0.5,0.2-0.9,0
					c-0.2-0.2-1.1-0.9-1.2-1.1c-0.2-0.2-0.5-0.7-0.7-0.9s-0.7-1.1-0.9-1.6s-1.4-1.8-1.4-2c0,0-0.4-0.5-0.7-0.9
					c-0.2-0.4-0.7-0.7-1.4-0.5c-0.5,0.2-0.5,0.7-0.4,0.9c0.2,0.4,0.7,0.9,0.9,1.2c0.2,0.2,0.4,0.7,0.5,0.9c0.2,0.4,0.4,0.7,0.5,0.9
					c0.2,0.2,0.4,0.5,0.5,0.9c0.2,0.2,0.5,1.1,0.5,1.2c-0.2,0.2,0,0.4,0,0.5c0,0.2-0.4,0-0.4-0.2s-0.7-0.9-0.9-1.1s-1.4-1.4-1.6-1.6
					c-0.2-0.2-0.4-0.5-0.9-0.9s-1.1-0.7-1.6-0.5s-0.5,0.7-0.4,1.1c0.2,0.4,1.2,1.1,1.4,1.1c0.2,0.2,0.5,0.5,0.9,0.9
					c0.2,0.4,0.9,0.9,1.1,1.2c0.2,0.2,0.5,0.5,0.7,0.7s0.2,0.4,0.2,0.5c0,0.2-0.2,0.2-0.4,0s-0.5-0.5-0.7-0.5
					c-0.2-0.2-0.9-0.9-1.2-1.1c-0.4-0.4-0.7-0.9-0.9-1.1s-0.5-0.4-0.9-0.4c-0.5,0-0.7,0.4-0.7,0.7c-0.2,0.5,0.5,0.9,0.7,1.1
					s0.5,0.5,0.9,0.9c-0.4,0-0.9,0.2-1.1,0.2c-0.7,0.2-1.8,0.5-2.7,0.7c-0.9,0.4-2,0.4-2.5,0.4c0,0,0,0-0.2,0
					c-0.4-0.5-0.9-1.2-1.4-1.8c-0.4-0.4-0.9-0.9-1.4-1.1c3.9-2.1,10.5-5.5,13.5-6.9c4.3-2.1,10.6-5.9,13-8.2c2.3-2.3,2-4.4,2-4.8
					s-2.3-8-2.3-8.7c0-0.5-2.8-7.8-2.8-8.2s-1.2-2.8-1.6-3.4c-0.4-0.4-1.1-2-1.2-2.3c-0.4-0.4-0.2-2.3-0.2-2.8c0,0-0.4-1.2-0.5-1.4
					c-0.2-0.2-1.8-1.6-1.8-1.6V-1c0,0-0.9-3.2-2.1-4.8c-1.2-1.6-3-2.1-3.7-2c-0.5,0-0.9,0.5-0.9,0.5h-0.2c0,0-0.7,0-1.2,0
					s-1.2,1.1-1.2,1.1h-0.4c0,0-0.5,0-1.2,0.2c-0.9,0.2-1.1,1.6-1.1,1.6l-0.2,0.2c0,0-0.5,0.2-1.4,0.4c-0.9,0-0.5,1.8-0.2,2.8
					c0.4,1.1,2,2.1,1.8,2.5s-0.4,1.4,0.9,2c1.1,0.7,3.4,0.4,3.7,0.5c0.2,0.2,0.9,0.9,1.2,1.8c0.5,0.9,1.2,5.9,2.3,9.9
					c1.1,4.1,0.4,7.6,0.4,9.9s-3.9,2.3-4.4,2.5s-7.8,3.2-9.2,3.2s-7.8,0.2-9.2,0.2s-9,2-10.5,2c-1.4,0-6,1.2-6.6,1.2
					c-0.5,0-2.1-0.2-2.7-0.2s-0.5-0.7-0.5-1.2c0-0.4,1.1-1.6,1.4-1.8c0.5,0,0.4-1.1,0.5-1.2c0.2-0.2,1.4-2.7,2.3-4.3
					c0.9-1.6,0.9-5.9,0.9-6.2c0-0.4,0-3.9,0.2-4.4s-0.7-1.4-0.7-1.4s0.4-1.2-0.7-4.4s-3.4-4.4-7.3-5.9c-3.9-1.4-11.2-1.2-14.7,2.7
					s-2.5,9-2.1,10.1c0.4,0.9,1.1,3.2,1.2,4.1c0.2,0.9,1.2,1.6,1.6,2.5c0.5,0.9,0.5,3.2,0.2,3.4c-0.4,0.4-1.4,0.9-1.4,1.2
					c0,0.2,0,0.9,0,1.2c0,0.5-0.4,3-0.4,3s0.2,1.1,0,1.2c-0.2,0.2-4.3,2.5-5,2.7s-7.3-0.7-8.2-1.1c-1.1-0.4-6.2,1.4-8.3,1.4
					s-9,0.7-10.6,0.4c-1.6-0.4-6.2-1.4-6.4-3c-0.2-1.4,0.7-4.1,1.1-5.3c0.4-1.2,2-7.6,2.3-8.7c0.5-1.1,2.1-4.3,2.5-4.4
					c0.4-0.4,0.4-0.7,0.4-0.7s3.5-1.4,5.7-2.1c2.1-0.7,0.7-2.8,0.9-2.8c0.2-0.2,1.2-1.4,1.4-1.4c0.2-0.2,0.4-1.1,0-1.8
					c-0.2-0.7-1.8-0.5-1.8-0.5s-0.4,0.7-0.2-0.2c0.2-1.1-2-1.4-2-1.4h-0.4c0,0,0.5-0.7-1.2-0.7c-1.8-0.2-4.4,0-5.1,0.5
					s-2.8,2.8-3.2,3.7c-0.4,1.1-1.1,3.5-1.2,3.5c-0.4,0-2.5,0.5-2.5,1.1s-1.1,2.8-1.6,3.4c-0.5,0.5-2.1,3.5-2.7,4.8
					c-0.6,1.3-5.7,14.9-6,17.7c-0.4,3,3.4,5.3,3.4,5.3s9.8,4.8,11.4,5.7c1.2,0.7,7.5,2.5,11.9,3.9c-3.7,0.5-7.1,3.7-8,4.6
					c-0.9,1.1-3.5,5-3.7,5.5c0,0.2-0.4,0.5-0.9,1.1c-4.1-3.2-9.6-6.7-10.8-7.6c-1.8-1.1-3.9-3.2-4.6-4.4c-0.7-1.4-2.7-5.9-2.7-6.2
					s-0.2-2-0.9-2.8c-0.7-0.9-2-0.4-2-0.4s0-0.2-0.4-0.4s-2-0.4-2.3-0.4c-0.4,0-2-0.4-3.4-0.4c-1.2,0-1.8,0.7-2,0.9
					s-0.5-0.2-0.5-0.2s-1.1-0.5-1.8,0s-0.4,1.8,0.2,2.5c0.5,0.7,1.6,2,2,2.3c0.5,0.4,0.5,0.9,0.9,1.4s0.7,1.1,0.9,1.6
					c0.4,0.4,0.7,1.6,1.6,2.7c0.9,1.2,2.3,2.1,2.8,2.5s1.4,1.1,2,1.4c0.5,0.4,2.1,1.8,2.5,2c0.2,0.2,2.3,2,2.8,2.8
					c0.5,0.9,3.7,4.4,4.4,5.3s2.7,3.2,3.5,4.4c0.2,0.2,0.2,0.4,0.4,0.5c-0.2,0.2-0.4,0.4-0.4,0.4c0,0.2-0.5,0.2-1.4-0.2
					c-0.9-0.4-4.1-1.1-4.8-2s-4.3-3-4.8-3.4s-2.5-2.5-2.7-3s-3.4-2.5-3.7-3.4c-0.4-0.9-5.1-3.7-5.3-4.3s-1.6-1.2-2.1-1.8
					c-0.5-0.5-2.3-2.8-2.8-3.5c-0.5-0.9-0.9,0-1.1-0.4c-0.2-0.2-2.5-2.3-3.2-3.2c-0.9-0.9-4.8-4.6-5.5-5.5c-0.7-0.7-2.8-2.8-3.2-3.5
					s-2-2.8-2.3-3.4c-0.4-0.5-0.4-1.6-0.7-2.1c-0.4-0.5-3.7-3.4-4.6-3.9c-0.9-0.5-2-1.6-2.1-1.8c-0.2-0.2-1.4-1.1-2-1.2
					c-0.5-0.2-1.2,0-1.1,1.1c0.2,1.2,1.4,1.8,2,2.3c0.4,0.5,1.2,1.1,1.4,1.2c0.2,0.2,0.2,0.4-0.2,0.4c-0.4-0.2-3.2-0.5-3.4-0.7
					c-0.4-0.2-2.5-0.7-2.7-0.9c-0.2-0.2-1.6-0.5-1.6-0.5s-0.4-0.4-0.7-0.5c-0.2,0-0.4-0.2-0.7-0.4c-0.2-4.6-0.2-9.8-0.2-11
					c0-2,1.6-6.2,1.8-7.6c0.4-1.2,1.4-2.1,2-2.7c0.7-0.5,1.2-2,2-2.5c0.7-0.5,1.4-1.8,2.5-3.7c1.1-2-2.3-0.9-2.3-0.9l0.5-1.1
					c0,0,0.4-2.1,0.9-3.4s0.9-4.1,1.4-5c0.5-0.7-0.7-2-1.6-2c-0.9,0-2.5,1.8-2.7,2.3c-0.2,0.4-0.7,1.1-0.7,0.5c0-0.5,0.4-2,0.5-2.5
					c0.4-0.5,0.5-1.8,0.9-2.5s-0.5-2.1-1.6-2.1s-2.3,1.8-2.3,1.8s0.2-0.5,0-0.9c-0.2-0.2,0.4-1.4,0.4-2.3c0-0.7-1.4-2-2.7-0.9
					c-1.2,1.1-1.2,3.7-2,4.6c-0.7,0.9-0.9,3-1.6,3.7c-0.7,0.7-1.6,3.9-1.6,3.4c0.2-0.4-0.4-1.4-1.2-1.8c-0.9-0.2-1.8-0.5-3.5,0.9
					c-1.8,1.2-2,3.5-2,4.4s-0.4,2.3-1.8,4.3s-2,7.1-2,9c0,2,1.2,3.4,2,4.4c0.9,0.9,1.4,2.8,1.2,4.4s0.2,6,0.2,7.8
					c0.2,1.8-0.2,8-0.2,9c-0.2,1.1-0.2,3.5-0.9,7.1c-0.7,3.5-1.4,10.1-1.2,12.1c0.2,1.8-0.2,8-0.2,10.5s-1.2,7.3-2,8.9
					c-0.7,1.6-3.9,5-5.1,6.4c-0.7,0.9-2.3,3.2-3.9,5.5h-0.2c-0.4-0.2-0.7-0.4-0.7-0.9s0.4-2.7,0.7-3.7c0.4-0.9,0.5-6.7,0.7-8
					c0.2-1.2,1.1-7.6,1.2-8.5c0.2-0.9,2.1-6.4,2.3-7.1c0.4-0.7,1.1-1.8,1.4-2.8c0.5-1.1-0.2-4.6-0.4-5.7c-0.2-1.1-0.4-2.7-0.4-3
					c0-0.4,0-0.7,0-0.9s-0.2-1.1-0.4-2s-1.1-1.4-1.6-1.4s-0.9,1.2-1.1,1.1c-0.2-0.2-0.5-0.4-1.1-0.2c-0.5,0-2.5,1.8-3,2.3
					c-0.4,0.5-2.5,2-3.2,2.3c-0.5,0.4-0.9,1.4-0.9,1.4c-0.4,0.2,0,1.2,0,1.2s0,0,0,0.7s1.4,4.1,2,5.3c0.5,1.2,0.7,1.8,0.5,3.2
					s-1.6,4.8-2.7,7.1c-0.9,2.3-4.1,10.5-5.7,16.1c-0.5,2-0.7,3.5-0.9,4.8h-8.2c-0.2-1.2-0.5-2.5-0.9-2.8c-0.5-0.5-2.3,0.7-2.3,0.4
					c0-0.4,0-1.6,0.2-3.4s0.7-8.3,0.7-10.1s-0.9-4.3-2.5-6.4c-1.4-2-6.4-7.1-9-8.5c-2.5-1.4-5.1-2.3-9-2c-1.6,0.2-3.9,1.1-6.6,2.3
					l0,0c0-0.5,0.4-1.1,0.4-2.8c0-1.6-0.9-3.7-0.9-3.7c-0.4-0.7-0.7-1.6-1.1-3c-0.4-1.4-2.7-7.3-3-8c-0.4-0.5-2.3-4.3-2.7-4.8
					s-0.5-1.4-0.5-1.6s0-0.9,0.2-1.4s0-2.5-0.2-3c0-0.5-0.5-2.7-0.9-3c-0.4-0.4-0.7-1.2-0.7-1.4c-0.2-0.4-0.2-1.2-0.2-1.4
					c0-0.2,0-1.2,0-1.6s-0.4-0.7-0.7-0.7c-0.4,0-0.5,0.4-0.5,0.7c0,0.4-0.2,2-0.2,2.3c-0.2,0.4-0.4,0.4-0.5,0.5
					c-0.2,0-0.4,0-0.4-0.4c0-0.2-0.5-1.1-0.5-1.2s0-0.4-0.4-0.9c-0.2-0.5-0.4-1.6-0.5-2.3c-0.2-0.7-0.9-0.7-1.1-0.7
					c-0.2,0-0.4,0.5-0.4,0.9c0.2,0.4,0.2,0.9,0.2,1.4c0.2,0.4,0.2,1.1,0.2,1.2c0,0.2-0.4,0-0.5-0.2c-0.2-0.2-0.5-0.9-0.5-1.1
					c0-0.4-0.5-1.6-0.7-2s-0.5-1.1-0.7-1.1c-0.4-0.2-0.9,0-1.1,0.2c-0.2,0.4,0,1.1,0.2,1.4c0.2,0.2,0.4,1.4,0.5,1.6
					c0.2,0.2,0.2,0.7,0.2,0.9s0,1.1-0.2,0.9s-0.9-0.7-1.2-1.1c-0.4-0.4-1.2-1.6-1.4-2c-0.2-0.2-0.7-0.4-1.1-0.4
					c-0.5,0-0.4,0.7-0.4,0.7c-0.4,0.7,1.6,2.7,1.6,2.7s0,0,0.4,0.5s1.8,2,2,2.3c0.2,0.4,2,4.4,2.3,5c0.4,0.5,0.5,1.8,0.7,2
					s0.9,2.7,1.6,3.9c0.5,1.2,2.3,5.7,2.7,6.7c0.4,0.9,0.2,2.5,0.5,4.6c0.4,2.1,2.1,5.7,2.1,6.4c0.2,0.7,0.4,2.3-0.2,3
					c-0.5,0.7-1.1,2.1-1.1,2.1l-0.4-0.2c0,0-0.2-0.5,0-1.1c0.2-0.5,0.9-0.2,0.9-0.4c0-0.4-0.5-1.2-0.4-1.8c0.2-0.5,0.7-0.9,0.7-1.4
					s-1.1-0.9-1.4-0.9c-0.4-0.2-2,0.4-2.5,0.5c-0.5,0.2-1.2-0.2-2.1-0.4c-0.7-0.2-1.1-0.9-0.5-2.3c0.5-1.4-0.9-1.6-1.6-2
					c-0.7-0.4-0.9,0.5-1.1,0.4c-0.2-0.2-2.1-0.4-2.7-0.2c-0.7,0.2-0.9-0.4-1.1-0.5c-0.4-0.2-0.9-0.2-0.9,0.2s0,0.9-0.2,1.1
					s-0.7-0.2-1.2-0.4c-0.5,0-1.1,0-1.2,0.4c-0.2,0.4,0.4,0.5,0.9,0.5s1.4,0.7,0.9,0.9s-1.4-0.2-1.8-0.2s-1.2-0.4-2-0.4
					c-0.7,0-1.2,0.7-1.2,0.7s-0.7,0.2-1.2,0.2s-0.7,1.1-1.6,1.4c-0.7,0.2-0.7,1.1-0.9,1.2c-0.4,0.2-0.9,1.1-0.9,1.4
					c0,0.4,1.2,1.2,1.8,0.5c0.7-0.7,0.9,0.2,0.5,0.5c-0.4,0.4-0.7,2.3-0.7,2.8s0.4,1.4,0.7,2c0.5,0.7-0.2,2.3-0.5,2.3
					c-0.4,0.2-0.2,1.2-0.2,1.8c0,0.4-0.5-0.2-0.9-0.7s-2-0.7-2-1.6s-1.1-1.6-1.4-2.1c-0.4-0.5-0.9-2.3-1.4-2.8
					c-0.4-0.5-0.5-0.5-0.7-1.1c0-0.4-1.2-2.5-1.8-3.5s-0.4-1.8-0.4-2.7s0.5-2.3,0.7-3.4c0.2-1.1,0.5-4.8,0.5-5.7
					c0-0.7,0.9-3.4,1.2-4.3c0.4-0.7,1.4-3.5,1.6-4.1s0.9-1.8,0.9-2.7c0-0.9,1.6-4.1,2-5s1.8-3.9,2.1-4.8c0.4-0.9,1.2-2.3,1.2-2.7
					c0.2-0.2,0.9-1.1,0.9-2.3c0.2-1.1-0.7-1.1-1.2-0.7s-1.2,1.8-1.2,2.1c0,0.4-0.2,0.4-0.2,0.4s0-0.9,0-1.2c0-0.4,0.5-1.8,0.5-2.3
					s-0.5-0.7-1.1-0.5c-0.7,0.2-0.9,1.8-0.9,1.8v-0.2c0,0-0.2-0.4-0.4-0.5c-0.2,0-0.9,0-1.1,0.2c-0.2,0.2-0.2,1.4-0.2,1.6
					s0,0.9-0.7,2c-0.5,1.1-0.9,2-0.9,2l-0.5,0.4c0,0-0.2-1.1-0.2-1.4c0-0.4-0.2-1.2-0.7-2.3c-0.5-1.1-1.1,0.2-1.1,0.5
					c0,0.2,0,2.1,0,2.8s0,1.6-0.4,1.8c-0.2,0.2-0.2,0.9-0.5,1.2c-0.4,0.4-0.9,1.2-1.2,2.5c-0.4,1.2,0,3.2,0,3.5c0,0.4-0.4,2-0.9,2.7
					c-0.2,0.4-0.9,1.2-1.4,2.5c0-1.6,0.2-3.5,0.2-4.6c0.2-1.6,0.5-5.7,0.5-6.4s0.5-5,0.7-5.7c0.2-0.7,0.2-2.7,0.2-4.1s0-2.7,0.4-4.3
					c0.4-1.8,2.7-4.6,3-5c0.4-0.4,2.5-2.3,3.5-2.8s1.2-2.1,1.4-2.3s0.2-0.7,0.9-1.2s1.6-2.7,1.6-2.7s0.5-0.2,0.9-0.9
					c0.4-0.5,0.4-2.1,0.4-2.5s0.2-0.9,0.2-0.9s0.5-0.5,0.9-1.2c0.5-0.7,0.5-1.4-0.4-2c-0.9-0.5-2.1,0.4-3.7,1.6s-2.1,3.4-2.5,3.7
					c-0.4,0.4-2.1,2.3-2.5,2.7c-0.4,0.4-1.1-0.2-1.1-0.4s-0.7-1.6-0.7-2.1s0-2.3,0.2-2.7c0.2-0.4,0.7-2.1,0.9-3.2
					c0.4-1.1,0.2-2.5,0.2-3.4c0-0.9,0-5.3,0-6.2c0-0.9-0.7-2.3-2.3-2.3c-1.6,0-2.3,1.2-2.3,2c-0.2,0.7,0.4,3.4,0.2,4.1
					c0,0.9-0.2,3.2-0.5,3.7c-0.4,0.5-0.9,2-0.9,2.5s-0.4,1.1-0.5,1.2c-0.2,0.2-0.5,0.2-0.5-0.4c0-0.5,0-1.6,0-2.7
					c0-1.2-0.7-2.8-0.7-3.4c-0.2-0.5-0.2-2.3-0.2-2.7s-0.2-3-0.5-4.4c-0.4-1.6-2-2-3.4-1.6s-1.8,2.7-1.6,3.7
					c0.2,0.9,0.7,2.7,0.5,3.2c0,0.5,0.2,3.9,0.2,5.3s0.5,2.8,0.5,3.4s-0.7,0.9-0.7,0.9s0,0,0-0.9s-0.9-2.7-0.9-3
					c-0.2-0.4-1.1-2.5-0.9-3c0-0.5-1.1-3.4-1.4-4.3c-0.4-1.1-1.4-1.1-2.1-1.1c-0.7,0.2-1.6,0.7-1.8,1.4c-0.2,0.9,0.5,2.8,0.7,3.7
					c0.2,0.7,0.7,3,0.9,4.4c0.2,1.2,0.5,2.8,0.5,3.2c0.2,0.4,0.2,2,0.2,2.1c0,0.4-1.6,1.2-2.1,1.4c-0.7,0-1.2-0.5-1.6-1.1
					c-0.4-0.4-3-1.8-3.5-2.1c-0.5-0.4-2.1-2.1-2.1-2.1s-1.4-1.8-2.7-1.4c-1.2,0.4-1.2,1.8-1.2,1.8c0.2,0.7,1.2,2.1,1.6,2.3
					c0.4,0.2,0.9,1.1,2,2c1.1,0.7,3.5,3.2,4.1,3.9c0.7,0.7,1.1,2,1.1,2.7c0,0.5,0.7,2.8,0.7,4.3s2.5,6.6,2.5,7.3c0,0.5,0,3-0.4,5.5
					c-0.2-0.4-0.5-0.5-1.1-0.5c-1.4,0-3.4,1.1-3.9,1.4c-0.4,0.2-1.1,1.4-1.1,1.4s-0.9,0-0.7-0.7c0.2-0.5,1.8-3,2.1-4.1
					c0.4-1.1,1.8-3.9,2.1-5.1c0.2-1.2,0-2.3,0-2.3s-1.4-1.1-1.6,0s-0.4,2.3-0.4,2.3l-0.2-2.1c0,0-0.7-0.9-1.4-0.5
					c-0.5,0.4-0.5,2.7-0.7,2.8c-0.2,0.2-0.9,1.2-1.1,1.6s-0.9,1.6-1.1,2s-0.5,0.4-0.5,0c0-0.5-0.2-4.3-0.2-4.3s-1.2-1.6-1.6,0
					s-0.2,2.5-0.2,2.5s-0.4,1.1-0.4,1.4c0,0.4-0.5,2.1-0.5,2.5c0,0.5-0.5,0.9-0.5,0.9s-0.4-2.5-0.5-2.8c-0.2-0.4-1.6-1.2-1.6,0
					c0,1.1,0,2.5,0,3c0,0.7,0.2,1.2,0.2,2c0,0.7-2,3.5-3,4.3c-1.1,0.5-2,2.1-2.5,3.2c-0.4,0.9-5.3,8.3-5.3,8.3l-5.1,6.6
					c0,0-1.1-0.2-1.2,0.2c-0.2,0.4-3.9,5.1-4.1,5.7c-0.2,0.5-1.1,2-1.4,2.8c-0.4,0.9-0.9,1.6-0.9,1.6s-0.5-0.2-1.2-0.2
					s-0.9-0.2-0.4-0.9s1.4-0.4,1.8-2c0.4-1.4,0.7-2.1,1.8-3.7s3.2-5,3.4-5.5c0.2-0.4-0.5-1.6-0.9-1.6s-0.5-0.4-0.5-0.4
					s4.6-10.6,5.7-12.2c0.9-1.6,3.4-5.9,4.3-6.6s1.6-1.4,2-2c0.4-0.5,2.7-1.4,3.7-2.5c1.1-0.9,3-2.1,3.4-3s1.8-1.8,2-2.3
					c0,0,1.1-1.1,1.6-1.4c0.5-0.5,0-1.6-1.2-1.6s-3,1.8-3,1.8s-0.7,0.5-0.9,0.7s-0.7-0.5-0.4-1.4c0.4-0.9,1.2-3.4,1.6-3.7
					c0.4-0.4,2.5-5.3,2.7-6.2c0.4-0.9,0.5-3.7-0.4-4.1s-1.8,1.8-2,2.5s-1.1,2.5-1.4,3.2s-1.8,2.7-2,3.2s-0.5,0.9-0.9,0.7
					s-0.4-2,0-2.5s1.4-5.1,1.4-6S473-9.5,473-9.5s-2-1.8-2.3,0s-0.2,2.8-0.5,4.3c-0.4,1.4-1.6,4.3-1.6,4.8S468.2,1,468.2,1
					c0,0.2-0.4,0.2-0.4,0.2s0-3.7,0-4.1s0.4-3.4,0.4-3.4s0-2.8-0.9-2.8c-0.9-0.2-1.6,0.5-1.6,1.2c0.2,0.9-0.4,3.9-0.5,4.3
					c-0.2,0.4-0.4,3.4-0.4,4.3s-0.2,1.4-0.4,1.4s-1.1,0-1.1,0s-1.4-2.8-1.6-3.9c-0.4-1.1-0.7-2.8-0.7-2.8s-1.6-1.6-2,0.4
					s0.9,4.1,0.9,4.1s0.4,1.8,0.5,2c0,0.2,0.4,0.5,0.4,0.5s0.4,3.7,0.4,4.1c0,0.5-0.9,2-0.9,2.8c0,0.7-0.2,3.7-0.2,3.7
					s-1.1,0-2.1,2.7c-1.1,2.7-8.5,13.7-9.2,14.9c-0.5,1.1-2.1,3-2.1,3s0-0.4-0.5,0.4c-0.5,0.7-5,8.2-5.3,8.2c-0.2,0-2.3,2.5-2.3,2.7
					s0.5,0.7-0.2,2c-0.7,1.4-0.7,2.7-0.7,3c0,0.4-1.4,1.4-3.2,2.5s-7.1,6.9-8.2,9s-0.5,4.8-1.6,5c-0.7,0.2-3.5,0.4-5.7,1.2
					c0.4-1.2,0.9-2.8,1.1-3.5c0.5-1.1,1.4-6.4,1.6-7.3s1.4-6.6,1.6-6.9c0.2-0.4,0.2-1.2,0.2-1.4c0-0.4-0.2-1.1-0.2-1.6s0-2,0-3
					c-0.2-1.1-0.2-2.8,0-3.2c0-0.4,0.5-1.4,0.7-1.8c0.4-0.4,0.4-0.7,0.4-1.2s-0.2-2.1-0.2-2.3s0-0.5,0-0.9c-0.2-0.4-0.7,0-0.7,0
					v-0.2c0,0,0.2-0.7,0.2-1.1s0.2-1.1,0.2-1.2c0-0.2,0.2-0.9,0.2-1.1s0.2-0.7,0-0.9c-0.4,0-1.1,0.2-1.1,0.2s0,0,0-0.2
					s0.2-0.9,0.2-1.2c0-0.4-0.5-0.9-1.2,0.2s-0.4,2.1-0.5,2.3c-0.2,0.2-0.4,1.1-0.4,1.1s0-0.5,0-0.9s-0.2-0.9-0.2-1.1s0-0.9,0-1.1
					s-0.2-0.7-0.9,0c-0.5,0.5-0.5,1.4-0.5,2.1c-0.4-0.7-1.1-1.2-2-1.4c-1.8-0.2-3,2.1-3.2,4.3c-0.4,2.1-1.1,6-2,5.9s-1.1-2-3.2-3.5
					c-2.1-1.6-5-6.4-6-9.2c-1.1-2.8-3.4-4.3-4.4-4.4c-1.1-0.2-0.7,1.8-0.7,1.8s-0.5,0.2-0.9,0.5c-0.4,0.4,0.4,2,0.9,3.4
					s3.9,10.5,4.1,13.1c0.2,2.7,3.7,10.1,4.6,12.1c0.9,2.1-0.9,2.3-1.2,3.7c-0.2,1.6-2.3,7.6-2.3,7.6l-1.1,0.2c0,0-0.5,3-2.1,4.3
					c-1.8,1.2,1.8,1.4,0.5,2.5c-0.2,0.2-0.5,0.5-0.7,1.1c-0.4-1.2-0.9-2.1-1.1-2.5c-0.5-0.5-3.7-4.3-9.2-2.8
					c-5.5,1.6-7.3,4.1-8.2,5.5c-0.9,1.4-0.5,4.4-0.5,4.8s0,1.2,0.2,1.6s0.4,1.4,0.4,2c0,0.5,0.9,1.6,1.1,2.1c0,0.5,0,1.1-0.5,1.4
					c-0.4,0.4-1.1,1.8-1.1,2s-0.7,0.4-0.9,0s-0.7,0-1.2,0s-1.4-0.7-1.8-1.4c-0.4-0.7-2-1.4-2.3-2c-0.2-0.5-3.5-3-3.7-3
					s-0.7-1.2-0.9-1.4c-0.2,0-0.5-0.5-0.5-0.9s-0.7-0.9-0.9-1.4c-0.4-0.5-2-3.4-2.7-4.8s-3.2-4.3-3.5-4.6c-0.4-0.4-0.7-0.9-0.9-1.4
					c-0.2-0.5,0-1.8,0-2.8c-0.2-1.1-0.4-3-0.5-4.1c-0.2-0.9-1.4-5.7-1.4-6.4c-0.2-0.7-0.4-2.3-0.4-2.8s-0.2-1.8-0.4-2.3
					c0-0.5-0.4-2-0.4-3c0.2-1.1,0.9-2.8,0.9-2.8s0.7-0.2,1.1-0.4s1.1-1.2,1.4-1.6c0.4-0.4,1.6-0.9,1.8-1.2c0.2-0.4,0.7-0.5,1.2-0.7
					s0.9-0.4,1.2-0.4c0.2,0,0.7,0,0.9,0.2s0.7,0.2,0.9,0.2s0.2-0.7,0-1.1s-1.6-1.1-2.5-1.1c-1.1,0-2,0.7-2.8,0.9s-1.8-0.9-1.8-1.4
					s0-1.6,0.2-2.1c0.2-0.7,1.6-2.3,1.8-2.5s0.7-1.1,1.1-1.4c0.4-0.4,0.7-1.1,1.1-1.4c0.4-0.4,0.4-0.9,0.4-1.6
					c0-0.5-0.5-0.7-0.7-0.5c-0.4,0.2-1.1,0.7-1.4,1.2c-0.5,0.5-1.1,1.6-1.2,1.6c-0.2,0.2-0.9,0.4-0.9,0.4s0-0.2,0.4-0.5
					c0.2-0.5,0.7-1.4,0.9-1.6s0.4-0.5,0.5-0.9c0.2-0.4,0.2-1.1,0.2-1.6s-0.7-0.7-1.1-0.7c-0.2,0.2-0.7,1.1-0.9,1.6
					c-0.4,0.5-1.4,2-1.4,2s0-0.2,0-0.4c0-0.2,0.4-1.2,0.4-2s-0.5-0.9-0.9-0.9s-0.4,0-0.5,0.4c0,0.2-0.2,0.5-0.4,1.2
					c-0.2,0.7-0.7,2.5-0.9,3c-0.2,0.5-0.4,0.7-0.4,1.1c-0.2,0.4-0.9,2-0.9,2s-0.2-0.4-0.2-0.7c0-0.4-0.2-0.9-0.2-1.4
					c0-0.4-0.2-1.4-0.2-2.1s-0.7-0.7-0.7-0.9s-0.4-0.2-0.4-0.2s0,0.5-0.2,1.1c-0.2,0.5-0.2,0.9-0.2,1.4s0,1.2,0,1.6
					c0,0.5,0.2,1.2,0.2,1.8c0,0.5,0,1.4,0,2c0,0.5-0.2,2-0.4,2.7c0,0.7-0.5,2.1-0.5,2.5c0,0.5-0.4,2.5-0.4,2.8s-0.4,0.5-0.2,0.9
					c0,0.4,0.2,1.6,0,3.2c-0.2,1.6-0.2,4.3-0.2,5.7s0,4.3,0.2,5.9c0.2,1.6,0.4,2.5,0.4,4.1c0.2,1.6,0.7,4.1,0.9,4.8
					c0.2,0.7,0.7,2,0.9,2.1c0.4,0.2,0.7,1.4,0.9,2.1c0.2,0.7,2.1,5.1,3,6.6c0.7,1.4,2.1,5.9,2.1,5.9s0.7,1.1,0.5,1.6s0,0.4,0.4,0.7
					c0.2,0.4,0.2,0.9,0.2,2s0.5,1.6,0.9,2.3c0.2,0.5,0.7,1.2,1.1,2.1v48.6h742.4V87.8h-2.7c-0.4-1.2-0.7-2.5-0.9-3.2
					c-0.9-3-1.1-10.5-0.9-11.2s0.5-2.3,1.6-2.3c0.9-0.2,1.8-0.9,1.8-1.4c0-0.4,0.2-2.5,0.9-2.5c0.5,0,4.4-0.4,5.5-0.5
					c1.1-0.4,4.3-0.7,5.5-1.2s4.6-1.6,6.2-2.3c1.4-0.7,7.3-3.5,8.9-4.1c1.6-0.4,2.5-1.8,4.1-3.2
					C1142.8,55.2,1141.9,53.7,1141.7,53.4z M957.9,52.3c-0.2,0.2-0.9,3.7-0.9,3.7c-0.5,0.2-2.1-0.5-2.1-0.5s0.2-0.9,0-1.8
					s-1.4-3.4-2.1-3.9c-0.7-0.5-0.2-1.2-0.2-1.2s2.8,0.7,3,1.4c0.2,0.5,0.5,1.1,1.2,1.2C957.5,51.4,957.9,52.1,957.9,52.3z
					 M424.8,36.4c0,0.4-0.4,1.2-0.4,1.4s-0.2,0.7-0.2,1.1c0,0.2-0.2,0.7-0.4,1.1c-0.2-1.6,0.2-2.8,0.9-4.6
					C424.8,35.6,424.8,36,424.8,36.4z M466.2,82.7c-0.4,0.4-0.7,3.4-0.9,4.1c0,0.5,0.2,1.4,0.2,1.6l0,0l0,0
					c-0.2-0.4-3.5-2.3-4.3-2.7c-0.7-0.4-5.7-2.3-5.7-2.3s-0.4-0.2-1.1-0.4c0.9-1.6,2-3.4,2.1-3.7c0.4-0.7,1.8-2.5,2.1-2.8
					c0.5,0.4,1.1,0.7,1.1,0.7c0.2,0,4.8,3.5,5.9,4.4C467.1,82.1,466.5,82.1,466.2,82.7z M494,88.3c0-0.2-0.2-0.9,0.2-1.2
					c0.2-0.2,0.7-0.9,1.2-1.4c0.2,0.9,0.2,1.8,0.4,2.7L494,88.3L494,88.3L494,88.3z M496,21.6c-0.7,2.1-1.8,9.4-2.3,13.1
					s-0.2,18.6-0.5,23.4c-0.4,4.6,0.9,10.6,1.4,12.2c0.4,1.6,0.5,5.7,0.5,9.6c-0.2-0.5-0.5-0.9-0.5-1.2c-0.5-1.2-5-0.4-5.5-0.2
					c-0.5,0.2-2-0.9-2-0.9s-2.7-1.4-6-2.1c-3.4-0.7-8.7,0.9-8.7,0.9s-1.2-0.5-2.1-1.1c-0.9-0.4-6.4-3-6.4-3s-0.9-0.4-2-0.9
					c0.4-0.5,0.9-1.2,0.9-1.6s0.4-1.2,0.4-1.6c0-0.5,0.9-0.9,0.9-0.9s0.7-2.1,1.6-3s2.3-3.4,2.8-4.4c0.4-1.1,0.4-0.9,1.8-3
					s5-9.8,5-9.8s0.2-0.7-0.2-0.9c-0.4,0,1.2-2.8,1.6-3.9c0.4-0.9,2.7-6.6,3-7.3c0.2-0.7,3.5-6.4,3.5-6.4s0.7-1.1,2.5-1.6
					s2.8-1.1,4.6-2.5c1.8-1.4,2.8-2.1,3.9-3.2c1.1-0.9,1.8-0.7,2.5-1.4l0,0C496.2,20.6,496,21.3,496,21.6z M628.5,35.6
					c0-0.4-0.2-0.7-0.2-1.2c0.4,0.2,0.9,0.5,1.1,0.7c0.4,0.4,1.2,0.7,1.2,0.7s-0.7-0.2-0.9-0.2C629.6,35.6,629.1,35.5,628.5,35.6z
					 M648.8,52.1c-0.9-0.2-1.6-0.2-2-0.9c-0.2-0.7-3.2-0.5-4.3-0.5s-1.8,0.9-2.7,0.9s-2.5,0.2-4.1,1.2c-1.8,1.2-3.5,3-4.3,3.7
					c-0.2,0.2-0.4,0.4-0.5,0.5l0,0c0-4.8-1.6-15.6-2.5-20.4c0.2,0,0.4,0.2,0.5,0.2c0.2,0,0.7,0,0.9,0.2c0.2,0,1.4,0.4,1.6,0.4
					c0.2,0,0.5,0.2,0.7,0.4s1.4,0.2,1.8,0.4c0.4,0.2,1.1,0.4,1.1,0.4c0.2,0.2,1.8,0.7,2.7,1.1c0.9,0.2,2.1,0.9,2.3,0.9
					c0.2,0.2,0.7,0.5,1.1,1.1c0.4,0.5,0.9,0.7,1.2,1.2c0.4,0.5,1.8,2.5,2.3,3.4c0.5,0.7,2.5,3.7,3,4.8c0.2,0.4,0.5,0.9,0.9,1.4
					C648.9,52.1,648.9,52.1,648.8,52.1z M667.2,79.3c-0.7,0.2-1.4,0.7-2.1,0.9c-0.7,0.2-2.3,1.1-3.2,1.2c-0.9,0-1.1-0.4-0.9-0.9
					c0.2-0.5,0.4-1.8,0.4-2.3s-0.2-2.3,0-2.8s0.4-1.4,0.4-1.8c-0.2-0.4-0.2-1.8,0-2.8c0-0.2,0-0.4,0-0.5c0.2,0.4,0.2,0.5,0.4,0.7
					c0.4,0.7,0.7,0.7,0.5,1.4s0.9,1.2,1.2,2.3c0.4,0.9,2.8,2.5,2.8,2.5s0.9,0.7,1.4,1.2c0.2,0.2,0.5,0.5,0.7,0.9
					C668.3,78.9,667.9,79.1,667.2,79.3z M718.3,81.6c-0.4,0-0.5,0-1.2-0.2s-0.9,0.7-0.9,0.7l-0.5-0.2c0,0-0.4-0.5,0-0.9
					s0.7-0.7,1.6-2c0.2-0.4,0.5-1.1,0.7-1.8c0.4,1.6,0.7,3,1.1,4.1C718.5,81.4,718.5,81.6,718.3,81.6z M796.9,60.1L796.9,60.1
					L796.9,60.1L796.9,60.1z M795.7,58c0,0,0.2,0,0.4,0l0,0l0.2,0.2C796,58.2,795.5,58.2,795.7,58L795.7,58z M790.9,52.7
					c0.4-0.2,0.4-0.4,0.5-0.7c0.2,0.2,0.4,0.2,0.5,0.4c0.2,0.2,0.5,0.5,0.7,0.7s0.2,0.4,0.2,0.5c0,0.2-0.2,0.5-0.2,0.4
					c0,0-0.9-0.2-1.1-0.2c-0.2,0-0.7-0.2-0.7-0.2s-0.4-0.2-0.9-0.4C790.4,53,790.7,52.9,790.9,52.7z M786.1,54.5
					c0.4,0,1.2-0.4,2-0.5c0.2,0,0.2,0.2,0.4,0.2c0.4,0.2,1.4,0.7,1.8,0.7c0.4,0.2,1.2,0.4,1.8,0.5c0.5,0,0.7,0,1.4,0.7l0,0
					c-0.2,0-1.6-0.2-2.3-0.4c-0.9,0-2.8-0.4-3.5-0.5c-0.5-0.2-2.1-0.5-2.1-0.5S785.7,54.6,786.1,54.5z M793.6,68.5
					c-0.4,0-1.2,0.2-1.8,0.5c-0.7,0.4-0.7,0-1.1,0c-0.4,0-0.4,0.5-0.7,0.5s-0.7,0.5-1.1,0.5c-0.2,0.2-0.5,0.2-1.1,0.2
					c-0.7,0-0.5,0.7-0.5,0.7l-0.5-0.2c0,0-0.5-0.4-0.2-0.7c0.2-0.4,0.4-0.7,0.7-2c0.4-1.2-0.2-4.4-0.4-5.7c0.5,0,1.4,0.4,2,0.4
					c0.5,0.2,1.2,0.2,1.6,0.2c0.4,0,1.2,0,1.6,0c0.4,0.2,0.7,0.2,0.9,0.2c0.4,0,0.5,0,0.9,0.2s0.5-0.2,0.7-0.5
					c0.2-0.4-0.2-0.7-0.2-0.7s0.9-0.4,1.6-0.4c0.7,0,1.6,0,2.1-0.2l0.2,0.2c0.2,0.2,0,1.6,0.4,2.3c0.2,0.4,0.4,0.7,0.5,1.2
					c-0.4,0.2-0.5,0.5-0.7,0.7c-0.2,0.4-0.9,0.7-1.2,0.7s-1.1,0.4-1.2,0.5c-0.2,0.2-0.5,0.4-1.2,0.4
					C793.6,67.6,793.9,68.5,793.6,68.5z M795,88.3c0.2-1.2,0.5-3.5,0.7-4.1c0.4-0.9,3.7-3.7,4.4-4.1c0.2-0.2,1.1-0.9,2.1-1.8
					c0.2,0.4,0.4,0.5,0.4,0.9c0.4,1.1,0.4,1.8,0.5,2.1c0.2,0.5,0.4,0.9,0.2,1.2c-0.2,0.4,0,0.5,0.2,0.7s0.5,0.2,0.4,0.5
					c-0.2,0.4,0.4,0.7,0.5,0.9c0.2,0.2,0.2,1.6,0.2,2.3c0,0.4,0,0.9,0.2,1.4H795L795,88.3L795,88.3z M845.4,84.6
					c-0.9,0.4-2.7,2.3-3.2,3.2c-0.5,0.9-0.5,1.8-0.5,1.8s-1.8,0.4-2.3,0c0,0,0.4-3.4,0.4-3.7s0.5-0.7,1.2-0.7s1.2-0.5,1.6-0.9
					c0.4-0.5,3.4-0.5,3.4-0.5S846.1,84.3,845.4,84.6z M903.4,88.3H894c-0.4-1.8-0.9-4.1-0.9-4.4c0-0.7-1.6-6.6-1.8-7.5
					c0-0.4-0.4-1.6-0.7-3c0.7,0.4,1.4,0.9,1.6,1.1c0.5,0.5,2.3,1.8,4.1,3.2c1.8,1.4,6,4.4,7.3,5.1c0.4,0.2,0.7,0.4,1.4,0.7
					C904.8,84.3,904.5,85.7,903.4,88.3z M973.1,83.4c-0.4,1.2-0.7,2.5-1.1,3.7c-0.2,0.5-0.2,0.9-0.4,1.2h-22.2c0-0.9,0-1.4,0-1.4
					s0.2-0.7,0.7-0.9c0.5,0,5.3-2.3,6.6-2.7c1.2-0.4,6.4-2.7,6.9-2.7s2.1-0.2,3.5-0.4c1.1-0.2,3.5-1.4,5-2.1
					c0.4,0.4,0.4,0.7,0.2,1.6c-0.4,1.1-0.4,1.6-0.4,2C972.2,82.1,973.3,82.1,973.1,83.4z M992.8,74.7c-0.2-0.2-0.2-0.2-0.2-0.4
					c-0.4-0.4-1.4-1.2-2.3-2.1c0.2,0,0.4,0,0.4,0c0.4,0,2,0,2.3,0c0.4,0,0.4-0.2,0.4-0.4c0-0.2-0.5-0.4-0.5-0.4c-0.2,0-2,0-2.5-0.2
					c-0.2,0-0.5-0.2-0.7-0.2l0,0c0-0.2,0-0.4,0-0.4c0.4,0,0.7,0,0.9,0c0.4,0,1.4,0,1.6,0c0.2,0,1.1,0,1.6,0h0.2
					C993.5,71.8,993.2,73.3,992.8,74.7z M1053.7,88.3c0-0.4,0.2-0.7,0.2-0.7s0.2,0.4,0.4,0.7H1053.7z"/>
			</g>
			<path class="st0" d="M933.7,64.4l27.9-44.2l0,0l9.2-14.7c0,0,0.2-0.2,0.4-0.2l0,0l0,0c1.4-0.9,6.7-3.5,13.1,3.7
				c7.3,8.5,3.4,10.8,11.5,12.2c8,1.6,6,4.1,6,4.1l-9.4,15.3c0,0-3.5-3.9-9.8-4.3c-6.2-0.4-11.4-5.1-13.1-8.7
				c-1.8-3.5-2.1-5-4.3-6.2c-1.2-0.7-2.3-1.1-2.8-1.1l-28,44.4L933.7,64.4z"/>
			<path class="st0" d="M539.6,64.4l27.9-44.2l0,0l9.2-14.7c0,0,0.2-0.2,0.4-0.2l0,0l0,0c1.4-0.9,6.7-3.5,13.1,3.7
				c7.3,8.5,3.4,10.8,11.5,12.2c8.2,1.4,6,4.1,6,4.1l-9.4,15.3c0,0-3.5-3.9-9.8-4.3c-6.2-0.4-11.4-5.1-13.1-8.7
				c-1.7-3.6-2.1-5-4.3-6.2c-1.2-0.7-2.3-1.1-2.8-1.1l-28,44.4L539.6,64.4z"/>
			<path class="st0" d="M455.4,38.3l-27.9-44l0,0l-9.2-14.7c0,0-0.2-0.2-0.4-0.2l0,0l0,0c-1.4-0.9-6.7-3.5-13.1,3.7
				c-7.3,8.5-3.4,10.8-11.5,12.2c-8,1.6-6,4.1-6,4.1l9.4,15.3c0,0,3.5-3.9,9.8-4.3c6.2-0.4,11.5-5.1,13.1-8.7c1.8-3.5,2.1-5,4.3-6.2
				c1.2-0.7,2.3-1.1,2.8-1.1l28,44.4L455.4,38.3z"/>
		</g>
		<g>
			<path class="st0" d="M969.8,39.2l-0.7,0.7c0,0-0.4,5-1.4,5.9c-0.5,0.4-0.9,0.4-1.2,0.5c0.4,1.6,0.2,4.1,0.2,4.1s0.4,0,0.7,0.2
				c0.4,0.2,0,2.5-0.4,3.2c-0.2,0.7-1.2,0.7-1.2,0.7s-0.4,2.1-0.5,3.5c-0.2,1.4,0.7,2.1,1.2,2.5c0.2,0.2,0.5,0.4,0.9,0.5
				c0-0.2,0-0.4,0-0.5c-0.2-2,0-3.5,1.8-5.9c1.8-2.1,2.5-3.4,3.4-5.7c0.9-2.5,1.8-5.9,2.7-6.7c0.9-1.1,0.7-1.4,0.7-2.8
				c0,0-0.2-1.1-0.4-2C972.9,38.1,969.8,39.2,969.8,39.2z"/>
			<path class="st0" d="M746.7,53c0,0-0.5-1.4-1.2-1.8s-0.9-0.4-1.4,0c-0.4,0.4-3.4,3.9-5.1,5.9c3.2,0.7,6.4,2,9.8,3.9
				c0.2-0.2,0.2-0.4,0.2-0.5c0.4-0.9,0.4-2.1,0-3C748.7,56.8,746.7,53,746.7,53z"/>
			<path class="st0" d="M997.8,47.5c0-0.4,0-0.7,0-1.1c0-1.1,0.4-3.7,0.4-4.4c0-0.9,0.4-4.1,0.7-5.3c0.4-1.4,0.9-4.4,0.9-6
				s2.5-4.1,3.2-5s1.1-1.1,3.7-1.2c2.7-0.2,4.6-2.3,5.1-2.7c0.5-0.4,4.1-3.2,4.6-4.3c0.5-0.9,0.2-1.4-0.4-2.1
				c-0.5-0.7-0.9-1.4-1.8-2.5c-0.9-0.9-4.3-4.3-5.3-5.7c-1.2-1.4-3.9-3.7-4.4-4.4s-0.4-1.6-0.2-2.5s-0.4-2-0.4-2
				c-0.5-0.7-0.7-0.7-1.1-1.1c-0.2-0.4-0.5-0.5-1.2-0.5c-0.7-0.2-0.4,0.2-0.9,0.4s-0.5,0-0.9-0.2c-0.2-0.4-0.2-0.4-0.4-0.7
				C999.2-4,999-4,998.7-4c-0.5,0.2-0.4,2-0.4,2.3c-0.2,0.2,0.4,0.2,0.5,0.5c0.2,0.2,0.5,0.9,0.9,1.4s-0.2,0.7-0.2,1.1
				s0.2,0.7,0,0.9c0,0.2-0.4,0.2-0.7,0c-0.4-0.2,0-0.5-0.4-0.9s-0.5-0.5-0.7-0.5s-0.4,0-0.5,0.2c-0.2,0.4,0,1.2,0.4,2
				c0.4,0.7,1.2,1.4,2,1.8c0.7,0.4,2.8,3.2,3.4,3.9c0.5,0.5,3.4,4.6,3.7,5.3c0.5,0.7,0.9,2,0.9,2.3c0.2,0.4-0.5,0.5-0.5,0.5
				s-2.7,0-5.5,0.2c-1.1-0.9-3-2.5-5.1-5c-1.8-2.1-1.8-7.6-2.8-8.9c-1.1-1.4-1.2-2.8-3.5-4.4s-4.3-2.5-5.9-2.1
				c-1.6,0.4-3.7,1.4-4.1,2c0,0-1.6,2.3-2.5,3.4c-1.1,1.1-6.6,5-6.9,5.3c0,0-0.4,0.2-0.9,0.4c-0.2-1.4,0-3.4-0.2-3.7
				c-0.2-0.5-0.4-4.4-0.4-4.4v-1.4v-4.8c0,0,0.5-0.4,0.7-1.2c0.4-0.9,0.2-0.9,0.2-1.6s0.2-0.7-0.5-2c-0.5-1.2-0.4-2.3-0.5-2.5
				c0-0.4-0.2-0.5-0.5-0.7c-0.2,0-0.4,0.2-0.7-0.2c-0.4-0.2-1.4-3.9-2-4.3c-0.5-0.5-0.7-0.4-1.1-0.2c-0.4,0.2,0,0.7,0.4,1.2
				s0.2,0.5,0.5,2c0.4,1.2,0.4,2,0.4,2.1c-0.2-0.2-1.1-1.6-1.6-1.6s-0.5,0.9-0.5,0.9l1.1,2.5l-1.2-2.3c0-0.2-0.5-0.2-0.7,0
				s-0.4,0.4-0.4,1.1s1.6,2.1,1.6,2.1l-0.2,0.5c0,0-1.2-1.4-1.4-1.6c-0.4-0.2-0.2,0-0.5,0c-0.2,0-0.4,0.4-0.5,0.5
				c-0.2,0.2,0.2,1.2,0.7,2.5c0.5,1.2,2,3.9,2,3.9s-0.2,1.4-0.2,2.7c0,1.1-0.2,6.6-0.2,9c0,1.1,0.4,2.5,0.7,3.7
				c-3,1.1-6,2.1-6.2,2.1s3-0.9,6.2-2c0.2,0.5,0.4,1.1,0.4,1.6c-0.5,0.4-1.1,0.5-1.4,0.9c0.5-0.2,0.9-0.5,1.4-0.9
				c0.2,1.1,0.5,2,0.5,2.8c0,0.7,0.4,1.8,0.9,3c-0.9,1.1-1.8,2-2,2.1c0,0,0.9-0.9,2-2c1.2,3,3.4,6.6,4.1,7.1
				c0.5,0.4,1.1,1.1,1.4,2.1c-3,1.1-7.3,2.5-8,2.5c-0.9,0-3.9,1.4-3.9,1.4s-7.6,2-8.9,1.6c-1.2-0.2-2.1-1.4-3.4-2.8
				c-1.1-1.4-0.5-7.1-0.5-7.6s0.5-0.4,1.1-1.4c0.7-1.1,0.9-1.8,0.9-3s-1.4-0.9-1.4-0.9s-0.2-2.1-0.7-3.5c-0.4-1.4-0.9-4.3-2.8-6.4
				c-2-2.1-5.9-1.6-8.3-0.7c-2.5,0.7-3.7,3-4.8,5.1s0.9,6.9,0.9,6.9s0,0-0.9,0s0.7,3.7,1.1,5c0.4,1.2,1.4,0.4,1.4,0.4s0,1.1,0.5,2.3
				c0.5,1.2,1.2,1.8,2,3.2c0.7,1.4,0.9,4.4,0.9,4.4s-0.2,0-0.9,0s-1.1-0.2-2.8-0.7c-1.8-0.5-3.4-0.7-4.4-1.1
				c-0.9-0.4-2.1-0.2-3.7-0.5c-0.4-1.1-0.4-2.8-0.4-3.5s-0.7-0.9-0.7-1.4s-0.5-1.6-0.5-2.1s-0.2-2.1-0.4-2.8
				c-0.2-0.7-0.5-1.8-0.4-2.8c0-1.1,0-2.8,0-4.1c0-1.2-0.7-1.6-1.1-1.2c-0.4,0.2-0.2,2.1-0.2,2.1s-0.9-2.5-0.9-3
				c-0.2-0.7-0.9,0-0.9,0.5s0.2,3.7,0.2,3c-0.2-0.7-0.5-1.2-0.7-2s-0.5-1.8-0.7-2.1c-0.2-0.4-0.7,0.2-0.9,0.7c0,0.5,0.2,1.8,0.4,2.1
				c0.2,0.2,0.5,3.9,0.5,3.9s-0.5-1.4-0.9-1.6c-0.2-0.4-0.7-1.1-1.2-2s-1.1-0.9-1.2-0.4c-0.4,0.5,0.5,1.2,0.5,1.8
				c0,0.4,1.1,2.8,1.2,3.5c0.4,0.7,0.4,1.6,0.4,2.3c0,0.7-0.9,1.8-1.6,1.8c-0.5-0.2-0.5-0.7-2.3-1.1s-0.4,1.1,0.5,1.8
				c0.9,0.7,1.4,1.8,1.4,1.8s1.1,0.7,2.3,1.2s1.1,1.1,1.6,2.1c0,0.2,0.2,0.4,0.2,0.7c-0.7-0.2-1.6-0.5-2.5-0.9
				c-2.7-1.2-5.1-1.4-5.1-1.4s-0.9-2.8-1.2-4.3c-0.5-1.4-1.8-3.4-2.7-6.7c-0.9-3.4-1.2-9.2-0.9-10.1c0.2-0.9,0.9-2.1,1.2-2.8
				s1.8-0.9,2.5-1.4c0.5-0.7,2-2.1,2-2.5c0-0.5,1.4-1.6,1.4-1.6s0,0-0.5-0.4s-1.1,0-2.3,0.7s-2.3,2-2.3,2s-0.4-0.9-0.5-1.8
				s0.5-4.1,0.7-5.5s0-2.1-0.5-2.7c-0.5-0.5-0.9,0.4-1.1,1.6c-0.2,1.2-0.9,4.1-0.9,4.1h-0.5c0,0,0-3.4,0-5c0-1.8-1.4-0.4-1.4-0.4
				L905-6.3c0,0-0.4-0.2-1.1-0.2c-0.7,0-0.9,2-0.9,2s0,0-0.4-0.4S901-3.8,901-3.8s0,0.9-0.2,3.4s0,4.6,0.9,6s0.5,7.6,0.7,17.2
				s2,9.8,4.1,11.9s10.6,5.9,10.8,6.2c0,0.2-1.1,3.2-1.1,3.2l6.2,2.8c0.2,0.5,0.2,0.9,0.2,1.1c0.2,1.2,0.2,3.9,0.2,3.9
				s-1.4,3-2.5,4.6c-0.4,0.5-0.7,1.4-0.9,2.5c-2.5,2.8-5.5,6.2-6.9,8.5c-0.4,0.7-0.9,1.2-1.2,2c-0.2-0.2-0.5-0.4-0.5-0.4
				s0.2-3.4,0.5-4.3c0.4-0.7,0.2-2,0.5-2c0.4,0,0.7-0.2,0.9-1.1c0.4-0.7,0.2-1.4,0.5-2.1c0.4-0.7,0.4-1.1,0.4-1.4
				c0-0.4-0.9-0.2-0.9-0.2s0.2-2.5,0.2-4.1c-0.2-1.6-1.1-2.3-1.8-3.5c-0.7-1.4-1.8-1.6-3.5-2.7c-1.6-1.2-4.4,0.2-6,0.9
				c-1.6,0.9-2.1,2.8-3,4.6c-0.9,1.6-0.2,4.3-0.2,5.1c0,0.9,0.2,2,0.4,2.5s0.5,2.1,0.5,2.1s0.5,0.2,0.5,0.5c0,0.4,0.5,1.6,0.5,1.6
				s0,0.5,0.2,1.1c-0.5-0.9-1.2-2-2-3c-2.1-3.4-7.3-9-9.9-11.7c-0.9-0.9-2.1-1.6-3-2c0.2-1.2,0.4-2.7,0.5-3.9c0.4-2.1,0-8,0.2-9
				c0.2-1.1,1.4-5.1,1.8-6.2c0.4-1.1,0.4-1.1,0.9-1.6s3.4-1.1,3.7-1.2c0.4-0.2,1.4-0.7,2.1-1.2c0.7-0.5,1.2-0.7,2-0.9
				c0.7-0.2,1.1-0.4,1.1-0.9s-0.4-0.4-0.9-0.4s-1.6,0.4-2.1,0.5c-0.5,0.2-1.8,0.4-1.8,0.4s0-2,1.1-2.8c0.9-1.1,2.3-3.4,3-4.4
				c0.7-1.1-0.4-1.4-0.7-1.4c-0.4,0-1.4,1.8-1.6,2.1c-0.2,0.4-2.5,2.1-2.5,2.1s2-2.8,2.5-4.3c0.7-1.4,0.5-1.8,0.2-2.3
				c-0.4-0.4-1.1,0.7-1.1,0.7s-1.2,2.1-1.6,2.7c-0.4,0.5-1.6,2-1.2,1.4c0.4-0.5,0.4-1.2,0.7-1.8c0.4-0.5,1.1-1.2,1.2-2.1
				c0.2-0.9-0.9-0.2-1.2,0.2c-0.4,0.4-3,4.8-3,4.8h-1.1c0,0,0.9-1.6,1.2-2.8c0.5-1.2,0.5-1.4,0.4-1.8c-0.2-0.4-1.2,0.5-1.4,0.9
				c-0.2,0.2-1.4,3.2-1.8,3.7c-0.2,0.5-1.4,1.2-2,2.5c-0.5,1.2-1.1,4.3-1.1,5.9s-1.1,4.4-2.5,7.8c-0.4,0.9-0.7,2.1-0.9,3.4
				c-1.4-1.4-2.1-5-3.9-7.1c-1.8-2.3-5.5-1.4-7.1-1.1c-1.6,0.4-3.2,3.4-3.9,5.3c-0.9,2-1.1,5-1.2,9.2c-0.2,4.3-1.4,5.9-1.4,5.9
				s1.2-1.1,1.6-2.7c0.4-1.6,0.5-4.8,0.5-4.8s0,3.7,0.9,5.5c0.7,2-2.3,4.4-2.3,4.4l-0.4,0.9c0,0-1.6,1.4-2.5,2
				c-0.9,0.5-0.7,1.4-1.1,2.1c0,0,0,0.2,0,0.5c-0.2-0.2-0.5-0.5-0.7-0.7c-1.8-1.4-3.7-2.8-5-3c-1.2-0.2-2.8-0.4-2.8-0.4
				s-2.1-1.1-2.7-1.2c-0.4-0.2-1.1-0.9-1.2-2c0.4-0.9,0.7-1.8,0.9-2.3c1.2-3,4.4-10.1,5-12.1c0.7-2,2.1-11,2.5-12.2
				c0.4-1.4,2.1-5.1,3.2-7.5c1.1-2.3,6-23.6,6.7-26.1c0.7-2.7,2.8-4.3,3.7-5.5s1.2-5.3,1.4-6.9c0.2-1.8-1.2-2-1.2-2s0,0,0-1.1
				s-2-1.2-2-1.2s0.2-0.5-0.5-1.6s-2.8,1.1-2.8,1.1S863-26,863-26.7c0-0.9,0-3.7,0.2-6s0.5-2.5-0.2-3.2s-1.6,0.9-1.6,0.9
				s-0.9,3-1.1,4.8c-0.2,1.8-1.2,5.9-1.2,8.7s-0.4,7.6-0.9,10.1c-0.7,2.5-2.3,9.9-3,11.2c-0.7,1.2-6.6,15.4-6.9,17.6
				c-0.4,2.1-2.8,3.5-4.1,5s-3.5,12.8-3.5,12.8s-0.7,0.9-1.6,1.8h-0.4l-0.4,0.5c-0.2,0-0.2,0.2-0.4,0.2h-0.5c0,0,0,0.2,0,0.4
				c-1.4,0.7-4.6,3.5-4.6,3.5s-2.8-1.2-3.4-2c-0.5-0.7-0.2-3.4-0.2-3.9c0-0.7,0.9-3.2,0.9-3.2s0.4,0,1.6-0.2
				c1.2-0.2,0.9-2.1,1.2-4.6s-2.1-1.4-2.1-1.4s-0.4-1.6-0.4-2.7c-0.2-1.1-0.9-3.9-0.9-4.6s-0.7-2.1-1.2-3s0-1.6-0.7-1.6
				s-1.6,0-1.8-0.4s-2-0.9-2-0.9l-1.1,0.7l-0.4-2.1l-0.4,2l-0.5-2.1l-0.2,2l-1.1-0.9l-0.7-1.8l-0.5,2.3v-0.5c0,0-0.4-0.2-1.2,0.7
				c-0.9,0.9-0.9,1.8-0.9,1.8s-0.4-0.7-0.4-1.1c-0.2-0.5-0.9,0.5-1.6,1.2c-0.7,0.9-1.2,1.8-2.5,3.7c-1.1,2,0.5,8,0.5,8
				s-0.4,0-1.1,0.2c-0.7,0.2-0.4,1.1-0.5,1.6c-0.2,0.7,0.9,3.4,1.1,4.1c0.2,0.7,2.1,0.5,2.1,0.5s0.2,1.1,0.4,2.7
				c0.4,1.4,0.7,5.5,0.7,5.5s-1.2,0.5-2.5-0.4c-1.2-0.9-1.4-1.4-3.4-1.8c-2-0.5-3-1.4-3.9-2.7c-0.9-1.2-2.5-5.3-3.2-6.6
				c-0.4-0.7-0.7-1.6-1.1-2.7l-4.3-6.4c0,0-1.1-3.7-1.2-5.9c-0.4-2-1.8-6-4.4-9.4c-2.7-3.5-3.5-8-4.4-11.5s-1.1-6.6-0.5-7.8
				c0.5-1.1,0.4-3.9,0.7-4.6c0.5-0.7-0.2-4.1-0.4-5.1s-0.9-5.5-1.2-8c-0.4-2.5-2,0.2-2,0.2s-0.2,1.1,0,2.5c0.2,1.6-0.4,6.2-0.4,6.2
				s-1.2-1.2-2.7-1.6c-1.4-0.4-2,2.1-2,2.1s0,0-0.4-0.4s-1.6,1.1-1.6,1.1s0,0-0.5-0.4s-1.2,1.1-1.2,1.6c0,0.7,1.1,2.8,1.1,2.8
				s0,1.2,0.2,2.8c0.2,1.4,1.2,3.5,2.1,5.1c0.9,1.6,1.6,5.1,2.7,11.2c0.9,6,4.4,16.1,5.3,17.7c0.9,1.6,3.7,9.4,3.7,11
				c0,1.6,4.4,10.1,4.4,10.1s0,0.7,0.2,2.3c0.2,1.8,2.8,6.2,4.8,14.7c0.2,0.9,0.4,1.8,0.5,2.7c-0.7-0.5-1.6-0.9-2.5-0.7
				c-2,0.4-4.4,1.2-6,2.7c-0.4-1.1-1.1-1.8-1.6-2.8c-0.7-1.4-2-1.6-3.5-2.8c-1.8-1.2-6,0.4-7.6,0.9c-2.1,0.7-4.3-2.5-7.5-2.7
				c0-0.7-0.2-1.2-0.4-1.8c-0.5-1.1-1.8-3-1.8-3s0-2.8-0.2-3.2s1.4-6.2,1.6-6.2c0.2,0.2,1.6-7.1,1.6-7.1c0.2,0.2,0.4-5.9,0.4-6.9
				c0-1.2,0.7-7.1,1.1-8c0.4-0.9,1.2-7.5,1.1-8.5c-0.2-1.1,0-4.4,0.5-5.9c0.5-1.6,0.9-4.3,1.4-5.1s1.6-1.2,1.4-1.8
				c-0.2-0.5-1.2-0.7-1.4-0.5c-0.2,0-0.5,0-0.4-0.2c0-0.4,0.4-0.7-0.2-0.9c-0.4-0.2-0.9-0.2-0.7-0.4c0.2-0.2,0.4-0.5-0.2-0.7
				c-0.5-0.4-1.1,0-1.4,0c-0.2,0-1.8,0.9-2.1,0.9s-0.2-1.1-0.7-2.3c-0.7-1.6-0.5-1.4-0.5-1.4c0-0.2,0-0.9-0.7-0.7
				c-0.7,0-0.4,0.9-0.2,1.4s0.2,2.1,0.2,3.2c-0.2,1.4-0.2,1.8-0.2,2.7c0,0,0.9,1.6,1.1,2.8c0.2,1.2,0.4,2.3,0.2,3.7
				s-0.7,5.5-0.9,6.6c-0.2,0.9-1.2,6.2-1.6,7.8c-0.4,1.6-0.7,3.2-1.1,5c-0.4,1.6-0.5,4.3-0.5,5.1c0,1.1,0,2.5-0.5,3.4
				c-0.4,0.9-1.8,2-1.8,2s-2.8-8.5-4.1-9.9c-1.2-1.6-1.4-2.5-3.9-3.4s-5.3-0.9-5.5-0.9c-0.2,0.2-3.2,1.8-3.7,2.3s-1.8,0.9-2.5,2.5
				s-1.2,2.7-1.8,4.1c-0.4,1.4-0.7,4.1-1.4,5.7s-0.7,2.1-0.9,3.2s0.2,2.7,0.9,3.7c0.7,1.1,1.6,1.8,1.6,1.8s-2,0.4-2.7,0.5
				c-0.7,0.2-2,1.8-2.8,2.7c-0.9,0.9-1.1,1.1-1.6,2.1c-0.4,1.1-1.1,3.2-1.6,4.3c-0.4,0.7-0.7,1.2-1.2,2c-0.4-2-1.4-4.4-2.1-5.9
				c0-0.7,0.2-0.7-0.2-1.4c-0.4-0.5-0.4-1.1-0.7-1.6c-0.2-0.5-0.4-1.1-0.7-1.4c0-0.7-0.2-1.6-0.4-2.3c-0.5-2.3-1.6-4.3-1.8-6.7
				c0-3,2-6.6,3-9.4c1.4-3.7,3.2-6.6,6-9.4c1.1-1.1,1.2-2.5,2.3-3.5c1.1-1.2,2.3-2.3,3.5-3.5c2.5-2.5,4.1-5.5,6-8.3
				c0.5-0.7,0.9-1.4,1.8-1.8c0.9-0.2,1.8-0.5,2.5-1.1c2.3,0.4,3.4-1.2,4.1-3c-0.2-0.5-0.7-1.1-1.4-1.1c0.5-1.2-0.4-1.8-1.4-1.6
				c0-1.1-1.4-1.2-2.1-0.9c0.5-1.6,2.3-5.1,1.2-6.7c-0.7-1.1-1.2,0.9-1.4,1.4c-0.2,1.6-0.9,3-1.4,4.4c-0.9,0.5-2,2.5-3,2.5
				c-1.4,0-2-0.9-2.8,0.9c-0.7,1.2,1.2,2.5,0.4,3.5c-1.1,1.2-2.3,2.1-3.4,3c-1.1,0.9-2.1,1.6-2.7,2.8s-0.9,2.8-1.8,3.7
				c-0.9,0.9-2.1,1.2-2.8,2.3c-0.5,0-1.1,0.2-1.4,0.4c-0.2,0.2-0.4,0.2-0.5,0.2c-0.2-1.8,0-3.5,1.1-5c-0.2-1.6,1.6-2.7,1.8-4.3
				c0.2-2.1,1.2-4.4-0.2-6.4l-0.2-0.2c0.2,0,0.4,0,0.4-0.2c-0.2-0.5-0.7-0.5-1.1-0.9c0-0.2,0.4-0.2,0.4-0.4
				c-0.5-0.4-1.4-0.2-1.8-0.7c0.2-0.4,0.5-0.5,0.5-0.9c-0.5-0.4-1.8,0.2-1.4-0.9c-0.4,0-0.5-0.7-1.1-0.4c-0.4,0-0.5-0.7-0.9-0.7
				c0,0.2,0,0.4,0,0.4c-0.5-0.4-0.7,0.5-1.2-0.2c-1.4-0.5-2.7-0.2-4.1,0c-1.2,0.2-2.1,0.7-3.2,1.4c-0.5,0.7-0.9,1.6-2,1.8
				c-2.1,1.8-1.1,5-2.3,7.3c-0.5,1.2-1.4,2.5-2.7,3.4c1.6-0.5,2.7-2.3,3.2-3.7c0,2.5-1.6,4.6-3.7,6.2c0.7,0,1.1-0.7,1.6-1.1
				c0.5-0.5,1.1-1.1,1.4-1.6c-0.4,2.1-3,3.4-4.1,5.3c0.5-0.4,0.9-0.9,1.4-1.2c-0.7,1.1-1.2,2.3-1.4,3.5c-0.2,2.7-1.4,5-3.2,6.9l0,0
				c2.7-2,3.4-5,3.7-8.2c0.2-0.7,0.5-1.4,1.2-2c-0.7,2.7-0.4,5.9-2,8c-0.5,1.2-1.8,2.3-2.7,3.4c-1.6-2.3-4.4-3.4-6.6-5.3v6.4
				c0.5,0.7,1.2,1.4,1.8,2.1c0.9,0.9,2.7,2,2.5,3c-0.2,1.2,0.2,2.7,0.9,3.7c0.5,0.9,1.1,1.6,1.8,2.5c0,1.4,0,2.8-0.4,4.3
				c-0.5,2.8-1.2,5.5-1.4,8.3c0,1.6,0.2,2.7-0.4,4.1c0.2,1.4-0.4,2.7-0.7,4.1c-0.7,2.8-2,5.1-2.1,8.2c-0.2,3.2,0,6.2,0.4,9.2
				c-0.9,0.9-1.8,2-2.5,2.7v25h8.7h18.5h13.8h23.6h189.5h13h24.1h11h10.6V45C1011.8,40.1,1004.5,43.1,997.8,47.5z M749,60.5
				c0,0.2-0.2,0.4-0.2,0.5c-3.4-2-6.7-3.2-9.8-3.9c1.8-2,5-5.5,5.1-5.9c0.4-0.4,0.7-0.4,1.4,0s1.2,1.8,1.2,1.8s2,3.7,2.3,4.4
				C749.2,58.4,749.2,59.6,749,60.5z M975.4,42c-0.9,1.1-1.8,4.4-2.7,6.7c-0.9,2.5-1.4,3.5-3.4,5.7c-1.8,2.1-2.1,3.9-1.8,5.9
				c0,0.2,0,0.4,0,0.5c-0.4-0.2-0.7-0.4-0.9-0.5c-0.4-0.4-1.4-1.1-1.2-2.5s0.5-3.5,0.5-3.5s0.9,0,1.2-0.7c0.2-0.7,0.7-2.8,0.4-3.2
				c-0.4-0.2-0.7-0.2-0.7-0.2s0-2.5-0.2-4.1c0.4,0,0.7,0,1.2-0.5c1.1-0.9,1.4-5.9,1.4-5.9l0.7-0.7c0,0,3.2-0.9,6-2
				c0.2,1.1,0.4,2,0.4,2C976.1,40.6,976.3,41,975.4,42z"/>
			<path class="st0" d="M707.3,6c-0.7-1.4-2.1-1.2-3.7-0.9v2c0.4-0.4,0.9-0.5,1.2-0.7C705.7,6,706.6,6.4,707.3,6z"/>
		</g>
		<path class="st0" d="M917.8,31.9l16.5-67.1l0,0l5.7-22.4c0,0,0-0.2,0-0.5l0,0l0,0c-0.5-2.1-2.8-9.8-15.6-9
			c-14.7,0.9-13.5,6.6-22.4,0.4s-9.4-2-9.4-2l-5.9,22.9c0,0,7.1-0.2,13,5.3c6,5.5,15.4,6.2,20.4,4.6s6.6-2.7,9.8-1.6
			c1.8,0.5,3,1.2,3.7,1.8l-16.5,67.4L917.8,31.9z"/>
		<path class="st0" d="M1097.3,38.1l28.2-63.2l0,0l9.2-21.1c0,0,0.2-0.2,0.4-0.4l0,0l0,0c1.8-1.4,8.3-5.9,17.9,2.3
			c11.2,9.8,6.6,13.5,17.4,14s8.7,4.3,8.7,4.3l-9.4,21.6c0,0-5.5-4.4-13.5-3.7c-8.2,0.7-16-4.6-18.8-8.9c-2.8-4.4-3.5-6-6.7-7.3
			c-1.8-0.7-3.2-0.9-4.1-0.9l-28.2,63.5L1097.3,38.1z"/>
	</g>
	<g>
		<path class="st0" d="M470.1,77.2c-0.4,0-1.1,0.2-1.4,0.2c-1.2,1.1,0.2,2.8-1.1,3.9c0,1.1,0,2.1-0.2,3.2c-0.2,0-0.7-0.4-0.9-0.4
			c0,0.7-0.2,1.4-0.2,2.1c1.1-0.2,2.3-0.4,3.4-0.5c0-1.1-0.4-2.5,0.7-3.4C469.7,80.7,469.9,78.9,470.1,77.2z"/>
		<path class="st0" d="M491.6,75c0-0.4-1.6,2-1.6,1.6c0,0,1.2,3.2,0.4,5.3c-0.5,1.4-1.8,6.4-0.7,5.1c0.2-0.4,2.5-1.1,2.5-1.1
			c-0.9-1.6,0.7-2.5,0.2-3.9C491.9,80.7,491.7,76.8,491.6,75z"/>
		<path class="st0" d="M525.1,81.4c0.5-0.7,0.4-1.1-0.4-1.2C524.2,80.9,524.4,81.2,525.1,81.4z"/>
		<path class="st0" d="M524.6,84.1c-0.9,0.4-0.4,1.4-0.5,2.1c0.7-0.2,1.2-0.5,2-0.7c0-0.4,0-0.9,0-1.2
			C525.6,84.1,524.9,84.1,524.6,84.1z"/>
		<path class="st0" d="M695.4,85.9c-0.9,0.2-1.6,1.2-1.1,2.1C695.3,88.3,696.7,86.2,695.4,85.9z"/>
		<path class="st0" d="M462.8,76.8c0,0.9,0.2,1.6,0.2,2.5c0.5,0.5,0.9,1.1,1.4,1.6c-0.2-0.4-0.2-1.1-0.4-1.4h0.9
			c-0.2-0.7-0.2-1.4-0.4-2.1C463.9,77.2,463.3,77,462.8,76.8z"/>
		<path class="st0" d="M723.5,80c0.9-2,3.5-5.9,2-8.2C725.1,74.3,722.6,78.6,723.5,80z"/>
		<path class="st0" d="M539.8,45.8c-1.6,0.5-2.5-1.4-4.1-2l0.7,1.6c-0.4-0.4-0.7-0.7-1.1-1.1c-0.7,1.8-1.1,3.7-1.1,5.5
			c0.4,0,1.2,0.2,1.6,0.2C537.9,48.8,539.3,48.2,539.8,45.8z"/>
		<path class="st0" d="M464.8,82.8c-0.7,0-1.2,0-2,0c0,1.2,0,2.5,0,3.9c0.7,0,1.2,0,2,0C464.6,85.5,464.6,84.3,464.8,82.8z"/>
		<path class="st0" d="M636.5,95.3h1.6c0-1.8,0.4-2.8,0.5-4.6c-1.2,0-2.1-0.2-3.4-0.4C636,92.1,636.3,93.5,636.5,95.3z"/>
		<path class="st0" d="M639.4,69.2c-0.4-2.5,1.2-5.3-0.7-7.3c0-0.4-0.2-1.2-0.4-1.8c0.9-5,0.7-9.9,1.4-14.9c-2-2-3.9-3.9-6.6-4.8
			c-1.6-0.5-3-1.6-4.6-2.3c-1.1,1.6-2.8,2-4.4,2.8l-2.3,4.1c0,0,0,0.2-0.2,0.2l0,0c-0.7,2.3-1.6,3.5-1.8,6c0.2-0.2-0.2,0.9,0.2,0.9
			c0,0,0.2,0.4,0,0.4c-0.2,0.2-0.2,0.4,0.2,0.5c-0.4,0,0,0.4-0.2,0.4c-1.4,0-3.2,0.2-3.9,1.6c-1.1,2-1.4,4.1-0.7,6
			c1.2,3.7-2.1,3.9-4.6,3.9c-0.9,0-1.8,1.2-2.3,2c-0.7,0.7-1.8,2.3-2.3,3.2c-0.2,0.4,2,1.1,2.3,0.9c0.5-0.7,0.2-2.3,0.4-3.2
			c0.5-1.6,2.5-1.1,3.9-1.2c1.6-0.2,3-1.4,4.1-2.8c1.2-1.6-0.4-3-0.4-4.6c0-1.2,0.7-3,1.8-3.9c0.7-0.7,2-0.7,3-0.7
			c0.5,0.4,0.9,0.2,1.6,0.7c2.1,2,1.8,5,1.8,7.6c0.2-1.6,1.6-2.8,3.2-3c1.1,1.2,3,2.7,0.9,3.7c0.9,0.2,0.2,0.9,1.1,1.2
			c-1.1,0-1.2,0.9-2.1,0.2c0,1.1,0,1.1,0,2.1c3.9-0.2,5.5,3.9,6.9,6.7c1.8,0,3.5-0.2,5.1-0.7C640.2,71.8,639.5,70.4,639.4,69.2z"/>
		<path class="st0" d="M634.9,89.6c1.2,0.5,2.7,0.2,3.9,0.2c0.9-1.2,1.1-2.8,1.1-4.3c-1.1-0.2-2.1-0.5-3.4-0.7
			C636.2,86.4,634.7,87.8,634.9,89.6z"/>
		<path class="st0" d="M535.9,65.8c0-0.9,0-1.8,0-2.8c-0.5-0.4-0.5-0.7-1.1-1.1c0-1.2-0.2-2.5-0.4-3.7c-0.9,2.1-0.5,4.4-0.4,6.6
			C534.5,65.1,535.4,65.3,535.9,65.8z"/>
		<path class="st0" d="M630.8,80c-0.4,1.4,0.5,2.3,2,2.1C632.3,81.2,631.7,80.4,630.8,80z"/>
		<path class="st0" d="M607.1,85.3c-0.2-1.6-1.6-3-2.8-4.4c-0.2-0.4-0.7,0-0.5,0.4c1.1,1.2,0.9,2.8,2,4.1c0.7,0.7,1.1,1.1,1.8,1.6
			c0,0.7,0,2.3,0,3.2l2.3-1.2c0-0.5,0.5-1.6,0.5-2.1c-0.2,0-0.2-0.2-0.4-0.2C609.6,85.7,607.2,86.6,607.1,85.3z"/>
		<path class="st0" d="M631.6,86.4c-0.4,0.7-0.4,1.6,0,2.3c0.9-1.4,1.1-3,0.4-4.4C631.7,84.8,631.6,85.7,631.6,86.4z"/>
		<path class="st0" d="M637.1,77.7c0.4,1.4-0.7,3.2,0.2,4.6c1.1,0,2-0.2,3-0.4c-0.2-1.2-0.4-2.3-0.7-3.5
			C638.7,78.1,637.9,77.9,637.1,77.7z"/>
		<path class="st0" d="M666.7,67.6c0.9-0.4,0.7-1.8,0.2-2.3c-1.6-2.7-3.5-5-5-7.6c-0.5-1.1-0.9-1.8-2-2.5c0.7,0.7,0.9,1.6,1.4,2.3
			c-1.8,3.2-0.9,6.7-2,10.3C662.1,67.4,664.4,67.8,666.7,67.6z"/>
		<path class="st0" d="M645.6,30c-1.2,0.2-2.5,0.4-3.9,0.5c0,2.1,0.4,4.4,0.4,6.6c1.1-0.2,2.1,0,3.4,0c0.2-0.7,0.2-1.4,0.4-2
			C645,33.5,645,31.7,645.6,30z"/>
		<path class="st0" d="M657.3,92.8c0,0.2,0,0.4,0,0.5c0.9,0.9,0.4,2,0.9,2.7c0-0.5,0-1.2,0.4-0.9c0-0.2,0-0.4,0-0.4
			c0-0.2,0-0.4,0-0.4c0-0.2,0-0.4,0-0.4c0.2-1.2,0.2-1.6,0.5-2.8c-0.5,0-1.6-0.5-2.1-0.5C657.1,91.4,657.1,91.9,657.3,92.8z"/>
		<path class="st0" d="M656.8,85c0.2,1.6,0.4,3.2,0.4,4.8h2.1c0.2-0.2,0.5-0.7,0.7-1.1c2.7-0.4,5.5,0.4,8.2,0.2
			c-0.2-1.4-0.9-2.7-1.4-4.1C663.5,85,660.1,85,656.8,85z"/>
		<path class="st0" d="M630.5,31.2c0-1.1-2-1.1-2,0C628.7,32.1,630.3,32.1,630.5,31.2z"/>
		<path class="st0" d="M668.1,82.5c0-0.9,0.2-2-0.5-2.8c-2.3-0.4-4.4-1.6-6.9-1.6c-1.2,0-2.7,0-4.1,0.2c-0.7,1.2-0.5,2.8-0.7,4.3
			C659.9,82.5,664,82.5,668.1,82.5z"/>
		<path class="st0" d="M656.2,65.3c1.8-2.3,2.8-5.5,1.2-8.3c0.4-0.7,1.1-1.4,1.2-2.3c-0.4-1.1-0.9-2-1.4-3c-0.5,2.8-0.5,5.9-0.5,8.9
			C656.6,62.1,655.9,63.7,656.2,65.3z"/>
		<path class="st0" d="M672.4,60.5c0.2-1.4-0.7-2.8-1.8-3.7c-1.6-1.2-3.4-2.7-5-3.9c-0.7-0.2-1.4-0.5-2-0.7
			c-1.4-2.1-3.9-3.5-5.9-5.1c2,2.1,4.6,4.1,5.9,6.7c2.8,2,4.3,6,7.6,7.3c0,1.6,0.7,2.3,0.7,3.9c0,0.9-0.9,2-0.7,2.8
			c0,0.9-0.4,2.1-0.2,2.8c0.5,1.6,0.5,2-0.4,3.4c-0.2,0.4,1.4,2.8,1.6,2.5c0.5-0.7,0.4-3.7,0.4-4.6s0.5-2.3,0.4-3.2
			c-0.4-1.4,0.4-2.3,0.5-3.7C673.8,63.5,672.4,61.9,672.4,60.5C672.4,60.3,672.4,60.5,672.4,60.5z"/>
		<path class="st0" d="M663.7,68.5c-1.2-0.2-2.7,0.5-3.9-0.4c-0.2,1.4-0.7,2.5-1.8,3.5c3.2,1.6,6.6,3,10.3,2.7c0.2-2,0.2-2.3,0-4.3
			C666.7,69.7,665.1,68.3,663.7,68.5z"/>
		<path class="st0" d="M576.7,90.3c0,0.2,0.2,0.5,0.2,0.9c0,0.2,0.4,0.5,0.4,0.9c0,0.2,1.1,1.2,1.1,1.6c0,0,0.5-1.1,0.5-1.4
			c0-0.2,0.4-1.1,0.4-1.2c0-0.7-1.6-2.1-2-2.7C577.1,88.9,576.7,89.8,576.7,90.3z"/>
		<path class="st0" d="M553.5,79.3c0-0.2-0.2-0.2-0.2-0.4c-0.4-0.5-0.9-0.9-1.6-0.5c-0.2,0-0.2-0.2-0.4-0.2
			c-0.4-0.2-0.5-0.4-0.9-0.4c-0.2,0-0.2,0-0.4,0s-0.2,0-0.4,0.2c-0.2,0-0.4-0.2-0.4-0.2c-0.4-0.2-0.9-0.4-1.2-0.5
			c0.2,0.2,0.2,0.2,0.4,0.4c0,0,0.2,0.2,0.2,0.4c0.2,0.2,0.2,0.2,0.4,0.4c0.4,0,0.5,0.2,0.5,0.4c1.1,0.5,0.4,1.8,0.4,2
			s0.2,0.2,0.2,0.4c0.2,0.4,0.5,0.5,0.9,0.7c0.2,0,0.2,0,0.4,0c1.1,0.4,2.3-1.4,3.4-0.9C554.4,79.8,553.8,79.8,553.5,79.3z"/>
		<path class="st0" d="M575.5,73.3c-0.4,0.9-0.2,1.1,0.7,0.9C576.7,73.3,576.4,73.1,575.5,73.3z"/>
		<path class="st0" d="M600.5,23.2c-1.1,0-2.3,0-3.4,0c0.5,0.5,1.1,1.2,1.6,1.8C599.3,24.5,599.8,23.9,600.5,23.2z"/>
		<path class="st0" d="M577.6,58.9c0,0-0.2,0-0.4,0s-0.4,0-0.5,0c0-0.2-0.2-0.2-0.2-0.4s0-0.4,0-0.5c0-0.2-0.2-0.4-0.2-0.4
			c-0.2-0.4-0.2-0.9-0.2-1.4c0-0.2,0-0.4,0-0.5c-0.2-0.7-0.2-1.6-0.2-2.5c0-0.2,0-0.2,0.2-0.4c0-0.2,0.2-0.2,0.2-0.4s0-0.4,0-0.5
			c-0.2-2.3-0.2-4.8-0.2-7.3c-1.1-0.7-1.1-2-1.4-3c-1.2-1.2-2.8-2.1-4.6-2.7c-0.2-0.2-0.5,0-0.7-0.2l-0.5-0.9c0,0-0.2-0.4,0.5-0.4
			c-0.7-1.2-1.4-2.5-1.8-3.9c-1.4-1.2-2.5-3.4-4.6-3.5c-0.5,0.5-1.1,1.2-2,1.4c-2,2.7-6.2,1.4-7.5-1.4c-2.8,0.9-4.8,3-7.5,4.4
			c-1.8,0.9-3.5,2.1-4.8,3.5c-0.5,0.7-1.2,1.2-2,1.8c-0.2,0.7-0.2,1.4-0.4,2.1c-1.1,0.5-2,1.1-2.8,1.6c1.8,1.2,4.1,1.2,5.9,0
			c-1.1,1.2-0.4,1.8,0.9,2.1c0.2,2,2.7,0.7,3.7,1.4c0.4,1.4,1.4,3.2,0,4.4c0,0.2-0.2,0.7-0.2,1.1c2.3,2.3,5.5,3.9,6.9,6.9
			c-0.2-1.1-0.4-2.1-0.5-3.2c0.9,0.4,1.2,1.2,1.8,2c0.7-0.9,1.1-2,1.6-3c0.9-1.4,2.8-1.1,4.4-1.4c0.2-0.4,0.7-1.1,0.9-1.4
			c0.2-2.1,0-4.4,0.2-6.6c-0.2-0.2-0.4-0.7-0.5-0.9c0.5-1.1,0.9-2,1.4-2.8c1.2-0.2,2.7-0.7,4.1-0.2c1.8,0.2,2.5,2,3.7,3.2
			c-0.9,1.4,0.2,3.2-0.7,4.6c-0.7,0.9-0.7,1.8-0.7,2.8c0.7,0.2,1.2,0.9,1.8,1.4c0.9,0,1.6,0,2.5,0c0.2,0,0.2,0,0.4,0
			s0.2,0.2,0.4,0.2s0.2,0.2,0.4,0.2c0.5,0.5,1.1,1.2,1.6,2c0,0.2,0.2,0.2,0.2,0.4s0.2,0.2,0.2,0.4c-0.2,0.5-0.2,0.9-0.2,1.4
			c0,0.2,0,0.4,0,0.5c-0.5,0.5-0.5,1.4-0.7,2c0,0.2,0,0.2-0.2,0.4c0,0.2-0.2,0.2-0.2,0.4c-0.2,0.4-0.5,0.7-1.1,0.9
			c0.2,0,0.4,0.2,0.7,0.2c0.2,0,0.4,0,0.5,0c0.5,0,0.5,0,1.4-0.2c0.4-0.2,0.5-0.4,0.7-0.5c0.5-0.5,0.9-1.4,1.4-1.6
			c0.2-0.2,0.4-0.2,0.5-0.4c0.2-0.2,0.4-0.2,0.7-0.4C578.9,59.4,578.3,58.4,577.6,58.9z"/>
		<path class="st0" d="M590.4,58.2c0-1.6-2-3.9-4.1-4.3c-0.4,0-1.4,1.2-1.1,1.1c1.2-0.5,3.5,0.9,4.1,1.8c0.5,1.2,1.1,2.7,0,3.7
			c-0.5,0.5,0.2,1.2,0,2.1s-0.7,2-1.6,2.5c-0.4,0.2,0.4,1.6,0.7,1.2c1.2-0.7,2-2.5,1.8-3.5C589.9,61.2,590.4,59.8,590.4,58.2z"/>
		<path class="st0" d="M598.4,37.4c-1.1,2-2.8,3.7-4.1,5.7c0.2,3-0.9,5-0.2,8.2c-0.4,1.2,1.2,0.7,1.8,0.9c-0.4,0.5-1.1,0.7-1.8,0.7
			c0,2.7,0.4,5.3,0.5,8c0.2,1.6,0,3.5,1.2,4.6c0.5-0.5,1.1-1.1,1.8-1.6c-0.4-1.2,0.2-2.5,0.4-3.7h-1.4c1.6-0.5,2.7-2,3.9-3
			c0.2-0.7,0.2-0.7,0.5-3c0,0,0.5-0.7-0.9-0.5c0-0.2,0.5-1.1,0.5-1.2c1.4,0.2-0.9-1.2,0.5-1.2c0.7-2.8,0-4.6,0.5-7.5
			c0.7-2.3-1.2-4.1-2-6.2C599.4,37.2,598.9,37.2,598.4,37.4z"/>
		<path class="st0" d="M639.5,36.7c0.2-2,0-3.9,0-5.7c-1.4,1.4-3,3.4-5.1,3.7c0.5,0.2,1.1,0.5,1.4,0.7
			C637.1,36,638.3,37.6,639.5,36.7z"/>
		<path class="st0" d="M551.4,63.9c-0.7-1.2-1.4-2.7-2.5-3.7c-2.5-2.3-3.7-5.9-5.7-8.5c-0.2-1.4,0-3-0.9-4.3
			c-0.9,0.9-1.8,1.8-2.7,2.7c-0.2,0.5-0.4,1.4-0.5,1.8c0.7,0,0.7,0.2-0.2,0.2c-0.7,1.1-1.6,2-2.3,3.2c1.1-0.2,2.3-0.7,3.4,0
			c1.8,1.1,2,3,2.5,4.8c-0.2,1.2-0.5,2.5-0.9,3.9c0.4,0.2,1.1,0.5,1.4,0.7c-0.2,0.5-0.5,1.1-0.7,1.6c2-0.4,3.9-0.4,5.9-0.5
			C549.4,65.1,550.3,64.6,551.4,63.9z"/>
		<path class="st0" d="M536.6,93c-1.1-0.7-0.4-1.6-1.1-2.5c-0.7-0.7-2.5-1.6-1.8-2.7s2-3,2-3c0-1.4-2-3.9-2.5-5.3
			c-0.4-1.1,0-2.7,0.4-3.7c0,0-2.8,0.4-2.5,0.7c1.2,0.9,0.5,3.4,0.9,4.6c0.4,1.6,1.2,4.6,1.2,4.6c-0.4,1.2-2.1,1.4-1.6,2.8
			c0.7,2.3,2.8,4.6,4.8,4.8C536.6,93.5,537,93.1,536.6,93z"/>
		<path class="st0" d="M553.3,69.7c0,0-0.2,0.2-0.2,0.4s-0.2,0.2-0.2,0.4c-1.2,0.7-0.7,2.5-2.5,2.5c-0.2,0-0.2,0-0.4,0.2
			c-0.5,0.2-1.1,0.2-1.6,0.9c0.2,0,0.2,0,0.4,0c1.4,0,2,1.1,3.2,0.5c0.2-0.2,0.2-0.2,0.2-0.4c1.1-1.4,1.1-2.7,0.7-3.7
			c0-0.2,0-0.2,0.2-0.4C553.1,69.9,553.1,69.7,553.3,69.7z"/>
		<path class="st0" d="M740.7,105.6c-0.5-0.4-0.9-0.7-1.2-1.1c-0.2-0.2-0.2-0.2-0.4-0.4c-1.2-2.8-3.7-4.6-3.4-8.2
			c0-0.2,0-0.4-0.2-0.4c-0.2-0.4-0.4-0.7-0.5-1.1c0-0.2,0-0.4,0-0.5c0-0.2,0-0.4,0-0.4c0-0.2,0-0.2,0-0.4c1.4-2,0.4-3.4,1.2-4.6
			c0-0.2,0.2-0.2,0.2-0.4c0.2-0.5,0.5-1.1,0.7-1.6c0.5,2,2,4.6,3.5,4.6v-9.8c-1.4-2.3-3.4-4.6-4.1-7.1c-1.8-5.7,0-12.1-2.7-18.1
			c2.3,1.6,4.6,3.4,6.7,5.1V27.7c-0.7,1.6-1.4,3.4-2.1,5.3c-3.2,8.3-6.6,24.8-11.7,14.7c0.2-0.5,0.4-1.1,0.5-1.4
			c0-0.2,0-0.4,0.2-0.5c-1.1-1.1,0.7-3.4-1.8-5c-0.2-0.2-0.2-0.2-0.4-0.4s-0.4-0.4-0.5-0.5c-0.2-0.2-0.2-0.2-0.4-0.4
			c-0.2,0-0.2,0-0.4-0.2c-1.2,0.4-3-0.7-4.4,0.2c-0.2,0-0.2,0.2-0.4,0.2c-0.7,0.7-1.2,1.4-1.4,2.7c0,0.2,0,0.4-0.2,0.4
			c0.2,1.2,0.4,2.1,0.4,3.2c0,0.2,0,0.4,0,0.4c0,0.7,0.2,1.4,0.5,2.1c0,0.2,0.2,0.2,0.2,0.4c0.2,0.2,0.2,0.4,0.4,0.5
			c0.2,0.2,0.4,0.2,0.4,0.4c1.8,1.2,4.3,0.2,3.7,3c0,0.2,0,0.2,0,0.4s0,0.4,0,0.5c-0.2,1.1-2,1.6-1.2,3.5c0,0.2,0,0.4-0.2,0.5
			c0,0.4-0.2,0.9-0.4,1.2c0,0.2,0,0.4-0.2,0.4c0,0.2,0,0.2,0,0.4s0,0.2,0,0.4c-0.4,0.7-0.4,1.2-1.4,1.4c-0.2,0-0.2,0.2-0.4,0.2
			s-0.2,0.2-0.2,0.2c-0.2,0-0.4,0-0.5,0c-4.1,0.4-8-2.5-10.6-2.8c-0.2,0-0.4,0-0.4,0c-0.4,0.2-0.9,0.4-1.2,0.4
			c-0.2,0-0.4,0.2-0.4,0.2c-0.4,0.2-0.7,0.4-1.1,0.7c-0.2,0.2-0.2,0.2-0.4,0.4s-0.4,0.4-0.5,0.5l-0.2,0.2c-0.9,0.7-2,1.2-1.4,2.5
			c1.2,1.2,2.3,2.3,3.5,1.8c0-0.5,0-1.8,0-2.5c0-0.2,0-0.4,0.2-0.4c0-0.2,0.2-0.2,0.4-0.4s0.2-0.2,0.2-0.4c0.2,0,0.2,0,0.4,0
			s0.4,0,0.5,0c0.2,0,0.4,0,0.4,0c0.2,0,0.4,0.2,0.5,0.2c1.1,0.4,2.3,0.7,3.5,1.2c0.4,0.2,0.7,0.2,0.9,0.4c1.1,0.7,1.8,1.4,2.7,1.8
			c0.2,0,0.2,0.2,0.4,0.2c1.2,0.9,2,2.7,3.7,2.1c0.4-0.4,0.5-0.5,0.9-0.7l0.2-0.2c0-0.2,0.2-0.2,0.4-0.4c0.9,0,1.8-0.9,2.8-1.1
			c0,0-0.2,0.2-0.2,0.5c-0.2,0.2-0.2,0.4-0.2,0.4c0,0.2,0.2,0.4,0.4,0.5c0,0.2,0,0.4,0,0.5c-1.4,13.1-8.9,24-11.4,37.4
			c4.3-4.4,5-13.3,7.8-19.7c1.4,0.4,2-0.2,2.3-0.9c0-0.2,0.2-0.2,0.2-0.4c0.5-1.2,0.5-2.5,1.8-3c0,1.2-1.2,3-1.1,3.9
			c0,0.2-0.2,0.4-0.2,0.4c-1.1,2.7-1.6,5.7-2,8.9c0,0.2,0,0.2,0,0.4c-0.9,1.6-1.1,3.2-0.9,4.8c0,0.2,0,0.4,0,0.5
			c0,0.7-0.2,1.6-0.4,2.3c0,0.2,0,0.4-0.2,0.5c0.4,1.1-0.9,2.3,0,3c0,0.2,0.2,0.4,0.2,0.5c0,0.2,0.2,0.4,0.2,0.5l0,0h7.8
			c0-0.5,0.2-1.2,0.9-1.8c0.4,0.5,0.5,1.2,0.9,1.8h9.8v-1.4h1L740.7,105.6L740.7,105.6z M723.5,80c-0.9-1.6,1.6-5.7,2-8.2
			C727,74.2,724.4,78.2,723.5,80z"/>
		<path class="st0" d="M439,106.1c-0.4-3.5-2.5-6.7-2.8-10.3c0-0.2,0-0.4,0-0.5c-0.2-1.4-0.4-2.7,0-4.1c0.2-0.9,0.9-1.8,1.4-2.5
			c0.5-0.5,1.6-1.4,1.8-2.1c0-0.2,0-0.2,0.2-0.4c0.2-0.4,0.2-0.7-0.2-1.1c-0.2-0.2-0.2-0.4-0.4-0.4c-0.5-0.7-0.9-1.2-1.4-2
			c-0.5-0.7-0.7-2.1-0.7-3c0-1.2,0.2-2.3,0.5-3.5c0.5-2.5,1.1-5,1.4-7.5c0.4-2.7,0.9-5.1,1.4-7.8s0.9-5.3,1.2-8
			c1.1-5.7,2-11.2,2.8-16.9c0.9-5.9,2-11.7,2.7-17.6c0.9-6,1.6-12.2,2.5-18.3c0.2-0.7,0.2-1.4,0.4-2.3
			c-5.7,14.9-17.7,23.4-28.6,30.9v22.2c8-3,16-5.1,19.7-1.4c-1.1,11-3.4,19.7-4.4,29.1c0.4-3.4-0.2-7.1-1.2-9.9
			c0-0.2-0.2-0.4-0.2-0.5c0-0.2,0-0.4,0-0.5c-0.2-1.2-0.2-2.5-0.9-3.5c0-0.4,0-0.5,0.2-0.7c0,0,0.7,0,1.4-0.2c0.2,0,0.5,0,0.7,0
			c-0.7-5,0.2-6.2,0.9-8.9c-2-0.7-3.2-2.8-4.4-5c-2.1,0.5-3.5,2.1-4.3,4.6c0.4,2.7,1.4,4.4,1.4,7.8c-2,0.5-3,2.7-4.6,3.7
			c0,1.2-0.2,2.5-0.2,3.7c0,0.2,0,0.4,0,0.4c-0.4,1.1-1.6,2-2,3c0.2,1.8-0.9,3.2-2,4.6v9.9c0.9,0.7,2.1,1.4,1.8,2.7
			c0,0.2-0.2,0.4-0.2,0.4c0,0.9,0,2.7-0.4,4.3c0,0.2,0.2,0.2,0.2,0.4c0.2,0.4,0.2,0.7,0,0.9c0,0.2-0.2,0.5-0.2,0.7s0,0.5-0.2,0.7
			c0,0.2,0,0.2-0.2,0.4c-0.5,0.7-0.7,2-1.1,3v6.4h5.7c0,0,0-0.2,0.2-0.2c0.2-0.2,0.2-0.5,0.5-0.7c0.2-0.9,2-2.5,1.2-4.3
			c0.5,0.5,0.7,2.5,1.2,3.2c0,0.2,0.2,0.2,0.2,0.4c0.4,0.5,0.7,1.1,0.9,1.6h8C439,106.8,439,106.4,439,106.1z"/>
		<path class="st0" d="M689.2,105.6c0-0.4,0-0.7,0-1.1c0.2-1.8,0.7-3.5,1.4-5.3c0.2-0.4,0.5-0.7,0.7-0.9c0.4-0.2,0.5-0.4,0.9-0.5
			c0.4-0.2,0.5-0.2,0.9-0.4c1.2-0.4,2.5-0.5,3.7-0.5s2.5,0.2,3.7,0.5c1.1-3.4,3.4-6.2,6.7-8.2c-1.8-0.2-3.5-0.4-5.3-0.4
			c-0.5-1.1-1.2-2.1-1.8-3.2c3.4-0.2,7.8-0.4,10.3,2.1c1.8-0.7,3.7-1.1,5.7-1.1c-0.2-0.7-0.2-1.4-0.2-2.1c0-0.4,0-0.7,0-1.1
			c-0.5-0.4-0.9-0.7-1.4-1.1c-0.7,0.2-1.4,0.2-2.1,0.5c-1.8,0.2-3.4-0.2-4.8-1.1c0.4-0.2,1.2-0.5,1.6-0.7c-0.2-0.5-0.5-0.9-0.7-1.4
			c0.7-0.4,1.4-0.9,2-1.4c0.5,0.4,1.2,0.5,1.8,0.5c-0.2-0.5-0.4-1.2-0.4-2c0-2,0.9-3.7,2.3-5.3c-0.2-0.2-0.5-0.4-0.7-0.4
			c-1.1,1.1-2.3,2.3-3.5,3.5c-2.8-0.5-5.9,0-8.7-0.9c-1.1,0.4-2.3,0.4-3.5,0.5c0.5-0.4,0.9-0.7,0.9-1.2v-6.4c0-0.9-1.1-0.5-2.1-0.5
			c-1.2,0-2.1-0.4-2.1,0.5v6.4c0,0.5,0.4,0.9,0.9,1.2c-1.4,0-2.8-0.2-4.3-0.2c-0.2-3.9-0.2-7.6,0.4-11.5c1.2-1.2,1.1-3.5,2.8-4.1
			c2.7-1.4,5.3-3.5,6.4-6.4c1.8-1.2,3.9-2.3,6.2-2.5c-0.2-0.7-0.4-1.4-0.5-2.1c0.5-0.4,1.1-0.5,1.6-0.9c0-0.4,0.2-1.1,0.2-1.2
			c1.8-0.2,3.7-0.9,4.6,1.1c0.4,0,0.7,0,1.2,0c0.2,0,0.2,0,0.4,0c1.4-0.2,0.2-1.4,0.7-2c0,0-0.5,0-0.5,0.2c-0.2,0-0.2,0-0.4,0
			c-0.4,0-0.7-0.2-0.9-0.2c0-1.2-0.2-2.7-0.2-4.1c1.1,0.5,2.1,1.1,3.2,1.4c0.2-0.4,0.5-1.1,0.7-1.4c-0.9-1.2-1.8-2.5-2.7-3.9
			c-0.7,2-2.8,1.4-4.6,0.9c-0.2-1.2-0.7-2.5-1.1-3.7c-0.9,1.2-0.2,2.8,0.2,4.1c-0.2,0-0.4,0-0.4,0v2.3c0,0.2-0.2,0.2-0.4,0.4
			c0.4,0,0.5,0,0.9,0c0.2,2.3-2,3.5-3.7,4.4c-0.7-0.2-1.4-0.5-2-1.1c-0.9,0.7-1.8,1.1-2.8,1.6c0.4,0,0.9,0,1.2,0
			c-1.8,2.1-4.8,3.4-7.5,3.9c-0.4,0.2-0.7,0.5-1.1,0.7c-2.1,0.2-4.4,1.1-6.6,0.5c-0.7,0.2-1.2,0.4-1.8,0.5c-0.4-0.5-0.7-1.1-1.2-1.6
			c1.1-1.2,1.8-2.7,2.5-4.1c0.2,0,0.4,0,0.4,0s0,0,0-0.2c0,0,0,0,0.2-0.2c-0.2,0-0.4,0-0.4,0c0.2-0.5,0.4-1.4,0.5-1.8l-0.5-0.4
			c-0.7-1.4-1.6-2.7-2.7-3.9c-1.2-0.7-2.8-0.7-4.3-1.1c-0.2,0.2-0.5,0.4-0.7,0.5c-0.2-0.2-0.4-0.7-0.5-0.9c-0.7,2.1-0.7,4.6-1.4,6.9
			c0.4,2,0.9,3.9,1.6,5.9c-4.1-0.2-8-1.2-11.4-3.7c-2.7-0.2-4.6-2.5-7.1-3.2c2.3-1.2,5-2,7.6-2.3c2.1-0.2,4.1-1.2,6-2
			c1.8-0.5,2.8-2.1,4.4-2.8c1.2-0.5,2.3-1.1,3.4-1.8c0-0.2-0.2-0.5-0.2-0.5c0.2-0.2,0.4-0.5,0.4-0.7c-0.5-0.9-1.4-1.2-2.1-2
			c-0.7,0.4-1.4,0.7-2.1,1.2c-0.2-0.9-0.2-1.6-0.4-2.5l-0.7-0.2c0,1.4,0.2,2.8-0.5,4.1c-1.4,0.9-3.2,0.9-4.8,1.2
			c-2.7,0.4-5.3,1.6-8.2,1.4c-2.7,1.1-5.5,0.4-8.3,0.4c-0.2-0.4-0.4-1.1-0.5-1.4c-0.2,0.4-0.7,0.9-0.9,1.2c-0.5-0.5-1.2-1.1-1.8-1.4
			c0.5-2,0.4-4.1,0.2-6c-0.7-0.7-1.4-1.6-2.1-2.5c-0.5,0-1.4,0-2-0.2c-0.9,0.7-2,1.4-2.7,2.3c-1.4,0.2-2.8,0.2-4.3,0.2
			c0.9-0.9,1.6-1.8,2.5-2.5c-0.4,0-0.9,0-1.2,0c0.5-0.9,0.9-2,0.7-3c-0.4,0.2-1.1,0.5-1.4,0.9c0-0.4,0.2-1.1,0.2-1.4
			c-0.9,0-1.8,0.2-2.5,0.4c-0.4,1.1-0.9,2.3-1.2,3.4v0.2c-3,1.8-6.4,4.1-9.9,2.5c0.2-1.1,0.4-2.1,0.5-3c-0.5,0.7-1.2,1.6-1.8,2.5
			c-0.9-0.9-2-1.8-3-2.5c-0.4,0.9-0.7,1.8-1.1,2.7h-1.1c1.4,1.2,2.7,2.5,3.9,3.9c-2.3,1.4-5.1,1.6-7.8,1.6c-1.1,0.2-2.1,0.4-3,0.5
			c0-0.5,0-1.8,0-2.5c0.4-0.4,0.9-0.7,1.2-1.1c0-0.5-0.2-1.6-0.2-2.1c0-0.9,0-1.8,0-2.5c-0.5-1.2-1.6-1.8-2.5-2.7
			c-1.2,0.2-2.7,0-3.5,0.9c-1.4,0.9-1.4,2.8-1.8,4.4s0.9,2.8,1.2,4.4c-2.8-0.9-5.3-2.7-7.6-4.8l-0.4-0.2c1.2-2.1,2.3-4.4,3.5-6.7
			l-0.2-0.2c0-0.2,0.2-0.2,0.2-0.2c0.4-0.9,0.9-1.8,1.6-2.3c1.6-1.4,1.8-3.7,3.5-4.8c-0.4-0.2-0.9-0.4-1.1-0.5
			c0.2-0.2,0.7-0.7,0.9-1.1c-0.2-0.5-0.4-1.4-0.4-1.8c-1.6,0.4-2.7,1.8-3.7,3c-0.4-0.4-0.9-0.9-1.2-1.2c0,0.5,0,1.4,0,2
			c-0.2,0-0.4,0-0.5,0c0,0,0,0,0,0.2c0.2,0,0.5,0,0.7,0c-0.2,2.8-1.8,5.3-3.9,7.3c-1.4,0.4-2.8,0.2-4.3,0.2c-2-2-3.4-4.3-5.1-6.4
			c-0.2-1.2-0.5-2.5-0.9-3.7c1.1-2,2.8-3.9,2.7-6.4c-0.4,0-1.1-0.2-1.4-0.2c-1.2,1.4-1.6,3.4-2.5,4.8c-0.5,0-1.4,0-1.8,0.2
			c0.4,0.2,0.9,0.7,1.2,1.1c-0.9-0.4-1.6-0.9-2.5-1.2c0.2,1.4,0.2,2.8,1.1,4.1c-0.9-0.2-1.8-0.2-2.7-0.4l1.4,0.5l-1.2,0.5
			c0.5-0.2,1.2-0.4,1.8-0.4c-0.4,0.5-0.9,1.8-1.2,2.3c0.4,0.2,1.2,0.7,1.6,0.9c0.4-0.7,0.9-1.2,1.2-2c1.4,1.4,0.7,3.7,2.5,5
			c1.1,3.4,4.6,5.5,4.6,9.2c-2.1,1.2-3.4,3.7-5.9,4.3c-0.5,0.4-1.1,0.7-1.6,1.1c-0.4-1.6-0.2-3,0.9-4.4c0.9-2.8-1.1-6.9-4.3-6.9
			c-2.3,1.1-3.7,3.4-3.9,5.9c0.4,1.2,1.8,2.1,1.4,3.7c0.2,1.1-0.9,1.6-1.8,1.8c-2.5-1.2-5.3-2-7.5-3.7c-2.7-1.4-4.1-4.4-6.6-6.2
			c-1.1-0.9-2.3-1.4-3.5-2.1c-0.7-2.5-0.4-5.3-2.1-7.5l-0.5,1.8c-0.4-0.4-0.9-1.2-1.2-1.6c-0.2,0.4-0.5,1.1-0.7,1.4
			c-0.2-0.2-0.7-0.4-0.9-0.4c-0.4,0.2-1.1,0.5-1.4,0.7l0.7,0.9c-0.5-0.2-1.6-0.5-2.3-0.7c1.1,0.9,2,2,2.8,2.8c1.2,2,3,3.4,3.4,5.7
			c-0.4-0.5-0.5-1.1-0.9-1.4c-1.8-1.1-3.9-2.3-6-1.4c-1.6,1.4-2,3.7-4.1,4.6c-2.7,1.4-5.5,2.5-8.2,3.7c-2.1,1.6-4.4,3-7.1,3.9
			c-2.7,0.5-5.3,0.7-8,0.7c0.2-1.4,0.9-2.7,1.8-4.1c0-1.4-0.2-2.8,0-4.3c-1.2-0.7-2.5-1.4-3.9-2c-1.1,0.4-2,0.7-3.2,1.2
			c-0.7,1.6-0.9,3.4-1.2,5.1c0.5,0.5,1.1,1.1,1.6,1.8c0.2,0.7,0.4,1.4,0.5,2.3c-4.6-0.2-9.6-0.2-13.5-2.8c-2.7-2.3-6-3.5-9-5.3
			c-3-1.2-6.2-4.3-5.7-8c0.2-1.6,0-3.4-0.7-4.8c-1.1,0.7-3,1.4-2.1,3c0.9,2.8,1.6,5.9,1.4,8.9c0.4,0.5,0.9,1.1,1.4,1.4
			c1.2,0.4,2.7,0,3.7,0.9c2.5,2,5,4.3,7.8,5.7c0.7,0,1.6,0,2.3-0.2c1.1,0.7,2.1,1.4,3.4,2.1c0,1.4,0,2.7,0,4.3c2,0.4,3.5,1.8,5,3.2
			c0,0-0.2,0-0.2,0.2c0,0,0.2,0,0.2,0.2c0.7,0.7,1.6,0.9,2.3,1.6c0.5,0.7,1.2,1.2,1.8,2c0.4,0.5,0.5,1.1,0.5,1.6
			c0,0.7-0.5,0.5-0.2,1.1c0.2,0.4-0.2,0.7-0.5,0.4c-0.2-0.2-0.4-0.4-0.5-0.5c0-0.2,0-0.4,0-0.4c1.2-1.2-0.7-2.7-1.4-3.5
			c-0.7-0.9-1.2-1.1-2-1.8c0,0-1.1,0.5-1.1,0.4c-1.2,0.9-2.3,1.1-2.8,2.5c-0.4,1.6-0.5,3.4-0.4,5c0.5,0.7,1.1,1.4,1.6,2.3
			c-0.9,0.5-0.7,1.4-1.8,2c0.4,0.9-0.7,1.4-0.5,2.3c0.4,1.2,1.8,1.1,2.7,1.8c0.5,0.5,0.4,1.4,0.7,2c0.7,0.9,2.3,2,3.2,0.7
			c0.2-0.2,1.1,0.9,1.2,1.1c1.2,1.1,1.1,1.1,1.4,2.7c0,0.4-0.5,0.4-0.5,0c-0.4-1.2-0.7-1.1-1.4-2.1c-0.2,0.7-0.7-0.4-1.4-0.5
			c-0.9,0-2.5,1.4-3,0.5c-0.5-0.7-0.4-3.5-1.2-3.9c-0.4-0.2-0.9-0.4-1.2-0.7c-1.1-1.2-0.9-3-1.6-4.4c0-0.2,0-0.4,0.2-0.4
			c-0.9-2.1-1.6-4.3-3.4-5.9c0.5-0.5,1.2-0.9,1.8-1.4c0.2-2,1.2-3.4,2-5.1c-1.1-2.8-4.1-5-7.1-4.3c-1.1,0.7-1.6,2.1-2.1,3.2
			c-0.2,1.8-0.2,3.7-1.4,5.1c-2.1,1.6-4.8,2.1-7.3,2.1c0.5-2.1,1.1-4.4,1.6-6.7c0.5-0.2,1.2,0,1.8-0.4c-1.2-0.2-2.7-0.9-3.9-0.2
			c-1.1,0.5-1.6,1.8-2.1,2.7c-0.2,3,0.5,6.2-0.5,9.2c0.4,0.7,0.7,1.4,1.1,2.1c0.2,0.2,0.2,0.5,0.4,0.9c0,0.2,0,0.2,0,0.4
			c-0.4,2.1,0.5,3.4,1.8,4.8c0.2,0.2,0.5,0.5,0.7,0.7c-0.2,0-0.4,0-0.5,0c-0.2,0-0.4,0-0.5-0.2c-0.2,0-0.4-0.2-0.7-0.4
			c-0.2,0-0.2-0.2-0.4-0.2c-0.2,0-0.2-0.2-0.4-0.2c-0.9-0.9-1.2-2.5-1.8-4.1c0-0.2,0-0.4,0-0.5c-0.2-0.2-0.2-0.4-0.4-0.5
			c-0.5-0.5-1.1-1.2-1.4-1.8c-0.9-1.2-2.1-2.1-3.4-2.8c0-0.5,0-1.4,0-2c0,0.4-0.2,0.9-0.4,1.2c-0.7,0-1.2,0-2-0.2
			c-0.5-0.9-0.9-1.6-1.4-2.5l0.7-1.8c0.5-2.1,1.1-4.8-0.5-6.6c-0.9-1.6-2.8-2.3-4.6-2.1c-1.8,0.9-3.2,2.3-3.9,4.3
			c0.2,1.6,0.2,3.4,1.4,4.6c0.2,0.9,0.2,1.8,0.4,2.8c-0.4,0-0.9,0-1.1,0c-0.2,0.5-0.5,0.9-0.9,1.4c-2.7-6.2-5.1-12.6-7.1-19.3
			c4.3-0.9,8.2-2.1,11.9-3.5c3.9,5.1,9.4,8.9,19.2,8.3c-1.1-5.3-3.7-9-7.8-11.4c-0.5-17.4-19.7-16-32.3-21.5h-1.7
			c5.9,15.8,10.6,32.8,17,48.3c-0.4,0.2-0.9,0.4-1.2,0.5c-0.4,0.2-0.7,0.2-0.9,0.4c-0.5,0.2-0.9,0.5-1.2,0.9c-0.5,2.3-0.4,5,0.4,7.3
			c0.5,1.2,1.6,2.3,2.5,3.5c0,0.9,0,2-0.2,2.8c-0.4,1.2-0.7,2.5-1.1,3.7h-6.7c-0.5-1.4-1.1-2.7-1.4-4.3c1.4,1.1,3,1.8,4.8,2.1
			c0.2-2.3,0.4-4.8,0.2-7.1c-0.7-2.8-1.4-5.7-2.5-8.5c-1.2-1.2-3-1.6-4.6-2.5c-0.4-1.1-0.7-2-1.6-2.7c0.2-1.2,0.5-2.5,1.1-3.5
			c0.4-3-1.1-6.4-4.3-7.1c-1.1,0.7-2.3,1.2-3,2.3c-0.4,1.4-0.4,3-0.5,4.6c0.2,1.2,0.7,2.3,1.1,3.5c-0.4,0.7-0.7,1.4-1.1,2.3
			c-1.8,0.5-3.7,0.9-5.5,1.4c-0.7,1.6-1.6,3.2-2.3,4.8c-0.5,1.8-1.2,3.5-1.8,5.3c0.2,0.2,0.4,0.7,0.5,1.1c-0.5,1.4-0.7,4.8,1.6,4.4
			c1.4,0,2.8-0.2,4.3-0.4c-0.4,1.4,0.9,4.1-1.2,4.3c0.2,2.5-0.7,5-0.2,7.5c-0.2,0.5-0.2,1.2-0.4,1.8c0.2,1.6,0,3.2-0.2,4.6
			c0,0.4-0.2,0.5-0.2,0.9s0.2,0.5,0.2,0.9s0.2,0.5,0.2,0.9c0.2,1.2,0.4,2.5,0.5,3.5c0,0.2,0,0.5,0,0.7c-0.4,0.7-0.5,1.2-0.5,2
			c0,0.2,0,0.5,0,0.7c0.2,0.7,0.2,1.4,0.2,2c0,0.2,0,0.5,0,0.7c0,0.4,0,0.7,0,0.9c-0.2,2-0.2,4.4-0.2,6.4h4.1
			c0.4-0.9,0.7-1.6,0.4-2.3c0-0.2,0-0.4,0.2-0.5c0.5-2.7,1.6-5.1,3.4-7.3c-0.5,1.8,2.3,1.8,2.3,3.4c0.2,0.4,0.4,0.5,0.4,0.9
			c0,0.9,0.2,1.8,0.2,2.7c0,0.4,0,0.5,0,0.9c0.2,0.5,0.2,1.1,0.2,1.8c0,0.2,0,0.4,0,0.4h5.7l0,0c-0.5-1.8,0.7-3.5,2.5-3.4
			c0.2,0,0.4,0,0.5-0.2c0.9-0.2,2-0.2,2.8,0.2c0.2,0,0.4,0,0.5,0c0.7,0,0.4-1.2,1.1-1.2c0.2,0,0.4,0,0.4,0c0.4,0,0.4,0,0.4-0.4
			c0-0.2,0-0.2,0-0.4h1.2c0.2,0.2,0.2,0.5,0.4,0.7c0,0.2,0,0.2,0.2,0.4c0.2,1.2-0.4,2.5,0.5,3.4c0,0.2,0,0.4,0.2,0.5
			c0,0.2,0,0.2,0,0.4h5.5c0-0.2,0-0.2,0-0.4s0.2-0.4,0.2-0.4c0.4-0.4,0.7-1.1,0.9-1.8c0-0.2,0.2-0.2,0.2-0.4c1.1-0.2-0.2-2,1.1-2
			c-0.5,1.1,0.7,1.6,1.2,2.5c0,0.2,0.2,0.2,0.2,0.4c0.4,0.4,0.7,1.1,0.9,1.8h5.7c0-0.2,0-0.2,0-0.4c0.5-3.2,0.5-6.2,1.4-9.4
			c0-0.2,0.2-0.5,0.4-0.7c0.2-0.4,0.5-0.7,0.9-1.1c0.2-0.2,0.5-0.4,0.9-0.4c0.2,0,0.4,0,0.7,0c0.2,0,0.5,0.2,0.7,0.2
			c1.6-0.4,4.6-1.1,5.9,1.4c0,0.2,0.2,0.2,0.2,0.4c-0.2,1.2-0.2,2-0.2,2.8c0,0.2,0,0.4,0,0.5c0,0.9,0,1.6,0,2.7c0,0.2,0,0.4,0,0.5
			c-0.2,0.7-0.4,1.2-0.5,2c0,0.2,0,0.2,0,0.4c0,0.4,0,0.7,0,1.1h5.9c0-0.4,0.2-0.7,0.2-1.1c0-0.2,0-0.4,0-0.4c0-0.2,0-0.4,0-0.4
			c0-0.2,0-0.2-0.2-0.4c-0.2-0.2-0.2-0.2-0.4-0.4c-0.2-1.4-0.2-2.1-0.2-3.4c0,0,0-0.2,0-0.4c0-0.4,0.2-0.5,0.2-0.9
			c0.2-0.7,0.4-1.2,0.7-2c1.4-2.3,2.8-8,5.5-8.2c0.5,0,1.1,1.6,1.6,2s0,1.1,0.5,1.8c0.2,0.2,0.2,1.4,0.4,1.8
			c1.1,2.7,1.1,3.7,0.5,5.7c-0.2,0.4-0.2,0.5-0.4,0.9c0,0.2-0.2,0.2-0.2,0.4c-0.7,1.4-2,2.7-1.6,3.5c0,0.2,0,0.4-0.2,0.5
			c0,0.2-0.2,0.4-0.2,0.5c0,0.2,0,0.2,0,0.4h8.7c-0.7-0.5-1.2-1.1-1.6-2c0-0.2-0.2-0.2-0.2-0.4c0-0.2-0.2-0.2-0.2-0.4
			c-0.4-0.4-0.4-0.9-0.4-1.4c0-0.2,0-0.4,0.2-0.4c0-0.4,0-0.5,0-0.9c0-0.2,0-0.4,0.2-0.4c0.4-2.8,2.1-2.8,4.4-1.6
			c0.2,0,0.4,0.2,0.4,0.2c0.2,0,0.5,0.2,0.7,0.4c0.2,0,0.2,0.2,0.4,0.2c0.4,0.2,0.5,0.2,0.9,0.4c0.2,0,0.2,0.2,0.4,0.2
			c0.5,0.5,0.7,1.1,0.9,1.8c0,0.2,0,0.2,0,0.4c0,0.2,0,0.4-0.2,0.4c0,0.2-0.2,0.4-0.2,0.4c0,0.2-0.2,0.5-0.2,0.7s0,0.2,0,0.4
			c0,0.4-0.2,0.5-0.4,0.7l-0.2,0.2c0,0.4,0,0.5,0,0.7h10.1h-0.5c-0.5-0.2-1.1,0-1.4-0.4l0,0l0,0c-0.2-0.2-0.4-0.4-0.5-0.5l0,0
			c-0.2,0-0.5-0.2-0.7-0.4c0-0.2-0.2-0.2-0.2-0.4l0,0c-0.2-0.2-0.2-0.5-0.2-0.7s0-0.4-0.4-0.5c-0.2-0.2-0.5-0.2-0.7-0.4
			c0,0,0,0,0,0.2l0,0c-0.2-0.2-0.2-0.2-0.4-0.4c0-0.2,0-0.4,0-0.5c0-0.2-0.2-0.2-0.2-0.4l-0.2-0.2c0-0.2,0-0.2-0.2-0.4
			c0.2-1.1,1.6-1.1,3.2-1.6c0.2,0,0.4,0,0.4,0c1.1,0,2.1,0.5,2.7,2c0,0,0.2,0.2,0.2,0.4c0.2,0.5,0.4,1.2,1.1,0.7h0.5
			c0.2,0,0.2,0,0.4,0s0.2,0,0.4,0c0.4,0,0.9-0.2,1.2-0.2c0.2,0,0.4-0.2,0.5-0.2c0.4-0.2,0.5-0.2,0.9-0.2c0.7-0.2,1.4-0.2,2.1,0
			c0.2,0,0.5,0,0.7,0.2c0,0.4,0,0.7,0.2,1.1c0,0.4,0.2,0.7,0.4,0.9c0.4,0.7,0.9,1.4,1.2,2.1h7.3c-0.2-2.1,0-4.3,1.4-6.6
			c0.5,0,1.8,0,2.1,0c0.4,0,0.5,0,0.5,0c0-0.2,0-0.4,0-0.7c0-0.4,0-0.5,0.2-0.9c0-0.4,0.2-0.5,0.4-0.7c0.5-1.4,1.8-0.7,2.3-1.4
			c1.8,1.8,4.3,1.8,6.6,1.2c0.4-0.2,0.5-0.2,0.9-0.4c0.2,0,0.2,0,0.4-0.2l0.2-0.2c0,0,0.2,0,0.2-0.2c3-2.3,4.3,1.2,4.1,3.9
			c0,0.2,0.2,0.4,0.2,0.4c0.2,0.5,0.4,1.1,0.5,1.6c0.2,0.4,0.2,0.7,0.4,1.1c0.2,0.5,0.2,1.1,0.4,1.6c0,0.2,0,0.2,0,0.4
			c0.2,0.4,0.2,0.5,0.4,0.7h5.9c0-0.2,0-0.2-0.2-0.4c0-0.2,0-0.2,0-0.4c0-0.2-0.2-0.2-0.2-0.4c0.2-0.5,0.5-1.1,0.5-1.4
			c0-0.2,0.2-0.5,0.2-0.7c0-0.5-0.2-0.9-0.5-1.2c0-0.2-0.2-0.2-0.2-0.4c0.2-0.4-0.4-1.1-0.7-1.8c0-0.2-0.2-0.4-0.2-0.4
			c-0.2-0.5-0.2-0.9-0.2-1.2c0-0.2,0-0.4,0.2-0.4c0.4-0.5,0.7-0.9,1.1-1.1c0.2,0,0.2-0.2,0.4-0.2c1.1-0.2,2-0.2,3-0.2
			c0.2,0,0.4,0,0.4,0c1.2,0,2,0,3,0c0,1.2,0.5,2.3,0,3.4c0,0.2,0,0.4,0,0.5c0,0.4,0,0.7,0.2,1.1c0,0.2,0,0.4,0,0.4
			c0.2,0.5,0.2,0.9,0.5,1.1c0,0.2,0.2,0.2,0.2,0.4c1.4,1.6,3.2-0.9,4.3-0.2c0.2,0,0.4,0,0.5,0c0.2,0,0.4,0,0.5,0c0,0,0.2,0,0.2-0.2
			c0.5-0.2,1.4-0.4,2.3-0.5c0.2,0,0.4-0.2,0.4-0.2c0.2,0,0.2-0.2,0.4-0.2s0.2-0.2,0.4-0.2c0.2-0.2,0.4-0.2,0.4-0.4
			c0.7-1.2,2-1.8,1.4-3c-1.2-0.5-2.3,0-3.5-0.2c-0.2,0-0.2,0-0.4-0.2c-0.4-0.2-0.7-0.2-0.9-0.4c-0.2,0-0.2-0.2-0.4-0.2
			s-0.2-0.2-0.2-0.2c-0.5-1.8,1.8-0.5,2.1-2c0.2-0.2,0.2-0.2,0.5-0.2c0.2-0.2,0.4-0.2,0.5-0.2c0.2,0,0.5,0,0.7,0.2
			c2.7,0.4,3.4,3.2,5,4.3c0.2,0.2,0.4,0.2,0.5,0.4c0.2,0,0.4,0.2,0.5,0.2c0.2,0,0.4,0.2,0.5,0.2c0.2,0,0.4,0.2,0.5,0.2h0.7
			c0.4,0,0.5,0,0.9,0c0.7,0.4,1.4,0.7,2,1.2c0.2,0.2,0.4,0.4,0.7,0.5c0.5,0.5,1.2,0.9,1.8,1.4c0.2,0.2,0.4,0.4,0.5,0.5
			c0.2,0.4,0.5,0.5,0.7,0.9s0.5,0.5,0.7,0.7c0.4,0.4,0.5,0.7,0.9,0.9l0.2,0.2h7.6v-0.2c0.2-1.6-1.1-2.1-1.6-3.7
			c0-0.2-0.2-0.2-0.2-0.4c0-0.2-0.2-0.2-0.2-0.4c-0.2-0.2-0.2-0.2-0.4-0.4c-0.2-0.4-0.4-0.5-0.4-0.9c0-0.2,0-0.4-0.2-0.5
			c-0.4-1.1-2-1.6-2-2.7c0-0.2,0.2-0.2,0.4-0.4c0.4-0.4,0.7-0.5,0.9-0.7s0.5-0.2,0.7-0.2s0.2,0,0.4,0c2-0.4,3.7,1.4,5.3,1.4
			c0.2,0,0.2,0,0.4,0s0.2,0.2,0.4,0.2s0.2,0,0.4,0.2c0.2,0,0.4,0.2,0.4,0.2c0.4,0.2,0.9,0.4,1.2,0.4c0.2,0,0.4,0,0.4,0.2
			c2.3,0.2,4.1,1.4,5.3,3c0.2,0.2,0.2,0.2,0.4,0.4c1.1,1.2,2,2.7,2.8,4.3c0,0.2,0.2,0.2,0.2,0.4h5.7c-0.2-0.7-0.4-1.2-0.4-2
			c0-0.4,0-0.5,0-0.9s0-0.5,0-0.9s0-0.5,0-0.9s0-0.5,0.2-0.7c0-0.2,0.2-0.4,0.4-0.5c0.2,0.2,0.2,0.2,0.4,0.4
			c0.2,0.2,0.2,0.2,0.4,0.4c-0.7,0.5,1.1,0.5,0.5,1.4c0,0.2,0,0.4,0,0.4c0.2,0,0.2,0.2,0.4,0.2s0.2,0,0.4,0c0.4-0.2,0.9-0.2,1.4-0.2
			c0.2,0,0.4,0,0.5,0c1.1-0.7,3.4,1.2,3.7-2c0.2-0.2,0.2-0.2,0.4-0.4c0.2,0,0.2,0,0.4-0.2c0.2,0,0.2,0,0.4-0.2
			c0.5-0.4,1.1-0.5,1.6-0.4c0.2,0,0.4,0.2,0.4,0.2c0,0.2,0,0.2,0,0.4c0.4,2.5,2.8,1.8,4.6,1.8c0.2,0,0.2,0,0.4,0
			c1.4,0,2.1,0,3.2-0.2c0.2,0,0.4,0,0.5,0c1.6-0.2,3-0.4,3.9-2h4.1c1.2,0.4,2.3,1.1,3.2,1.8c0.4,0.2,0.5,0.4,0.9,0.7
			c0.2,0.2,0.4,0.4,0.4,0.5c0.5,1.2,0.7,2.3,0.9,3.5h6.6v-0.2c0-0.2,0-0.4,0-0.5c0.2-1.1,0.2-2.3,1.2-2.8c1.2,0,2.3,0,2.7,2.1
			c0.2,0.2,0.2,0.4,0.2,0.5c0,0.2,0.2,0.4,0.2,0.5c0,0.2,0.2,0.4,0.2,0.5h5.7C689.2,106.6,689.2,105.9,689.2,105.6z M695.4,85.9
			c1.2,0.4-0.2,2.5-1.1,2.1C693.8,87.1,694.5,86,695.4,85.9z M462.8,86.7c0-1.2,0-2.5,0-3.9c0.7,0,1.2,0,2,0c-0.2,1.2-0.2,2.5,0,3.9
			C464.1,86.7,463.5,86.7,462.8,86.7z M463.9,79.7c0.2,0.4,0.2,1.1,0.4,1.4c-0.5-0.5-0.9-1.1-1.4-1.6c0-0.9-0.2-1.6-0.2-2.5
			c0.5,0.2,1.2,0.4,1.8,0.5c0.2,0.7,0.2,1.4,0.4,2.1L463.9,79.7L463.9,79.7L463.9,79.7z M469.6,85.7c-1.1,0.2-2.3,0.4-3.4,0.5
			c0.2-0.7,0.2-1.4,0.2-2.1c0.2,0.2,0.7,0.4,0.9,0.4c0-1.1,0-2.1,0.2-3.2c1.4-0.9,0-2.8,1.1-3.9c0.4,0,1.1-0.2,1.4-0.2
			c-0.2,1.8-0.4,3.5,0.2,5.1C469.2,83.2,469.7,84.4,469.6,85.7z M492.1,85.9c0,0-2.1,0.9-2.5,1.1c-1.1,1.2,0.2-3.7,0.7-5.1
			c0.7-2.1-0.4-5.3-0.4-5.3c0,0.4,1.6-2,1.6-1.6c0,1.8,0.2,5.7,0.7,6.9C493,83.4,491.4,84.1,492.1,85.9z M524.7,80
			c0.9,0.2,0.9,0.5,0.4,1.2C524.4,81.2,524.2,80.9,524.7,80z M524.2,86.2c0.2-0.7-0.4-1.8,0.5-2.1c0.4,0,1.1,0,1.4,0
			c0,0.4,0,1.1,0,1.2C525.4,85.7,524.7,86,524.2,86.2z M535.4,44.2c0.4,0.4,0.7,0.7,1.1,1.1l-0.7-1.6c1.6,0.7,2.5,2.7,4.1,2
			c-0.5,2.5-2,3-4.1,4.3c-0.4,0-1.1-0.2-1.6-0.2C534.3,47.9,534.7,46.1,535.4,44.2z M534.5,58.2c0,1.2,0.4,2.5,0.4,3.7
			c0.5,0.4,0.5,0.7,1.1,1.1c0,0.9,0,1.8,0,2.8c-0.5-0.4-1.2-0.7-1.8-1.1C534,62.6,533.6,60.3,534.5,58.2z M536.3,93.5
			c-2-0.4-4.1-2.7-4.8-4.8c-0.5-1.4,1.2-1.6,1.6-2.8c0,0-0.9-3-1.2-4.6c-0.4-1.2,0.4-3.7-0.9-4.6c-0.4-0.2,2.5-0.7,2.5-0.7
			c-0.4,1.1-0.7,2.7-0.4,3.7c0.4,1.4,2.3,3.7,2.5,5.3c0,0-1.2,2-2,3c-0.7,1.1,1.1,1.8,1.8,2.7c0.9,0.9,0.2,1.8,1.1,2.5
			C537,93.1,536.6,93.5,536.3,93.5z M542.5,66.2c0.2-0.5,0.5-1.1,0.7-1.6c-0.4-0.2-1.1-0.5-1.4-0.7c0.4-1.2,0.7-2.5,0.9-3.9
			c-0.5-1.6-0.9-3.7-2.5-4.8c-1.1-0.7-2.1-0.2-3.4,0c0.7-1.2,1.4-2.1,2.3-3.2c0.7,0,0.9,0,0.2-0.2c0.2-0.4,0.4-1.2,0.5-1.8
			c0.9-0.9,1.8-1.6,2.7-2.7c0.9,1.2,0.5,2.8,0.9,4.3c2,2.7,3,6.2,5.7,8.5c1.1,1.1,1.8,2.3,2.5,3.7c-1.1,0.5-2.1,1.2-3.2,1.8
			C546.2,66,544.3,66,542.5,66.2z M552.2,74.2c0,0.2,0,0.2-0.2,0.4c-1.2,0.5-1.8-0.5-3.2-0.5c-0.2,0-0.4,0-0.4,0
			c0.4-0.7,1.1-0.7,1.6-0.9c0.2,0,0.2,0,0.4-0.2c1.8-0.2,1.2-2,2.5-2.5c0-0.2,0.2-0.2,0.2-0.4s0.2-0.2,0.2-0.4c0,0.2,0,0.2-0.2,0.4
			c0,0.2,0,0.2-0.2,0.4C553.3,71.5,553.3,72.6,552.2,74.2z M551,81.8c-0.2,0-0.2,0-0.4,0c-0.4-0.2-0.5-0.4-0.9-0.7
			c0-0.2-0.2-0.2-0.2-0.4c0-0.4,0.5-1.6-0.4-2c-0.2-0.2-0.4-0.4-0.5-0.4c-0.2-0.2-0.2-0.4-0.4-0.4c-0.2-0.2-0.2-0.2-0.2-0.4
			c-0.2-0.2-0.4-0.4-0.4-0.4c0.4,0.2,0.9,0.4,1.2,0.5c0.2,0,0.4,0.2,0.4,0.2c0.2-0.2,0.4-0.2,0.4-0.2c0.2,0,0.2,0,0.4,0
			c0.4,0,0.7,0.2,0.9,0.4c0.2,0,0.2,0.2,0.4,0.2c0.7-0.4,1.2,0,1.6,0.5c0,0.2,0.2,0.2,0.2,0.4c0.4,0.5,1.1,0.5,1.1,1.8
			C553.3,80.4,552.1,82.1,551,81.8z M576.4,74.2c-0.9,0.4-1.1,0-0.7-0.9C576.4,73.1,576.7,73.3,576.4,74.2z M578.7,92.1
			c0,0.4-0.5,1.6-0.5,1.4c0-0.4-1.1-1.2-1.1-1.6c0-0.2-0.4-0.7-0.4-0.9c0-0.2-0.2-0.5-0.2-0.9c0-0.7,0.4-1.6,0.5-2.1
			c0.4,0.5,2,2.1,2,2.7C579,91.2,578.9,91.9,578.7,92.1z M578.9,59.8c-0.2,0.2-0.4,0.2-0.5,0.4c-0.7,0.4-0.9,1.1-1.4,1.6
			c-0.2,0.2-0.4,0.4-0.7,0.5c-0.7,0.2-0.7,0.2-1.4,0.2c-0.2,0-0.4,0-0.5,0c-0.2,0-0.4,0-0.7-0.2c0.5-0.2,0.9-0.5,1.1-0.9
			c0-0.2,0.2-0.2,0.2-0.4s0.2-0.2,0.2-0.4c0.2-0.7,0.4-1.4,0.7-2c0-0.2,0-0.4,0-0.5c0-0.4,0-0.9,0.2-1.4c0-0.2-0.2-0.2-0.2-0.4
			s-0.2-0.2-0.2-0.4c-0.5-0.7-0.9-1.6-1.6-2c-0.2,0-0.2-0.2-0.4-0.2s-0.2-0.2-0.4-0.2s-0.2,0-0.4,0c-0.7-0.2-1.6,0-2.5,0
			c-0.5-0.5-0.9-1.2-1.8-1.4c0-1.1,0-2,0.7-2.8c0.9-1.4-0.2-3,0.7-4.6c-1.1-1.2-2-3-3.7-3.2c-1.4-0.5-2.7,0-4.1,0.2
			c-0.5,0.9-0.9,2-1.4,2.8c0.2,0.2,0.4,0.7,0.5,0.9c-0.2,2.1,0,4.4-0.2,6.6c-0.2,0.4-0.7,1.1-0.9,1.4c-1.4,0.4-3.4,0-4.4,1.4
			c-0.5,1.1-1.1,2.1-1.6,3c-0.5-0.7-1.1-1.6-1.8-2c0.2,1.1,0.4,2.1,0.5,3.2c-1.4-3-4.4-4.8-6.9-6.9c0-0.2,0-0.7,0.2-1.1
			c1.4-1.2,0.4-2.8,0-4.4c-1.1-0.9-3.5,0.4-3.7-1.4c-1.2-0.2-2-0.9-0.9-2.1c-1.8,1.2-4.1,1.2-5.9,0c0.9-0.5,2-1.1,2.8-1.6
			c0.2-0.7,0.2-1.4,0.4-2.1c0.7-0.5,1.4-1.1,2-1.8c1.4-1.4,3-2.7,4.8-3.5c2.5-1.2,4.6-3.5,7.5-4.4c1.2,2.7,5.5,4.1,7.5,1.4
			c0.9-0.2,1.4-0.9,2-1.4c2.1,0.2,3.2,2.3,4.6,3.5c0.5,1.2,1.2,2.5,1.8,3.9c-0.5,0-0.5,0.4-0.5,0.4l0.5,0.9c0.2,0.2,0.5,0,0.7,0.2
			c1.8,0.5,3.2,1.6,4.6,2.7c0.4,1.1,0.4,2.3,1.4,3c0.2,2.5,0,4.8,0.2,7.3c0,0.2,0,0.4,0,0.5c0,0.2-0.2,0.2-0.2,0.4s0,0.2-0.2,0.4
			c0,0.9,0.2,1.8,0.2,2.5c0,0.2,0,0.4,0,0.5c0,0.5,0,0.9,0.2,1.4c0,0.2,0,0.4,0.2,0.4c0,0.2,0,0.4,0,0.5c0,0.2,0,0.4,0.2,0.4
			s0.4,0,0.5,0c0.2,0,0.2,0,0.4,0c0.7-0.5,1.2,0.5,1.8,0.5C579.2,59.6,579,59.6,578.9,59.8z M590.2,62.8c0.2,1.1-0.5,2.8-1.8,3.5
			c-0.4,0.2-1.1-1.1-0.7-1.2c0.9-0.5,1.4-1.6,1.6-2.5c0.2-0.7-0.5-1.6,0-2.1c1.1-1.1,0.5-2.5,0-3.7c-0.4-0.9-2.8-2.3-4.1-1.8
			c-0.4,0.2,0.7-1.1,1.1-1.1c2.1,0.4,3.9,2.7,4.1,4.3C590.4,59.8,589.9,61.2,590.2,62.8z M600.5,23.2c-0.5,0.5-1.2,1.1-1.8,1.6
			c-0.5-0.5-1.1-1.1-1.6-1.8C598.2,23.2,599.3,23.2,600.5,23.2z M602.1,43.5c-0.5,2.8,0.2,4.6-0.5,7.5c-1.4,0,0.9,1.4-0.5,1.2
			c0,0-0.5,1.1-0.5,1.2c1.4-0.2,0.9,0.5,0.9,0.5c-0.4,2.3-0.4,2.3-0.5,3c-1.2,1.1-2.3,2.5-3.9,3h1.4c-0.2,1.2-0.7,2.5-0.4,3.7
			c-0.5,0.5-1.1,1.1-1.8,1.6c-1.2-1.1-1.1-3-1.2-4.6c-0.2-2.7-0.5-5.3-0.5-8c0.7,0.2,1.4,0,1.8-0.7c-0.7-0.2-2.1,0.4-1.8-0.9
			c-0.7-3,0.5-5.1,0.2-8.2c1.2-1.8,3-3.7,4.1-5.7c0.5,0,1.1-0.2,1.6-0.2C600.7,39.4,602.6,41.1,602.1,43.5z M639.5,31
			c0,2,0.2,3.9,0,5.7c-1.2,0.7-2.5-0.7-3.7-1.2c-0.5-0.4-0.9-0.5-1.4-0.7C636.5,34.4,638.1,32.5,639.5,31z M630.5,31.2
			c-0.2,0.9-1.8,0.9-2,0C628.5,30.1,630.5,30.1,630.5,31.2z M609.7,89.1l-2.3,1.2c0-0.9,0-2.5,0-3.2c-0.7-0.5-0.9-0.9-1.8-1.6
			c-1.2-1.2-1.1-2.8-2-4.1c-0.2-0.4,0.2-0.7,0.5-0.4c1.1,1.4,2.7,2.8,2.8,4.4c0.2,1.1,2.5,0.4,2.8,1.2c0.2,0,0.2,0.2,0.4,0.2
			C610.3,87.5,609.7,88.5,609.7,89.1z M631.6,88.5c-0.4-0.7-0.4-1.4,0-2.3c0.2-0.7,0.4-1.4,0.4-2.1
			C632.6,85.5,632.4,87.1,631.6,88.5z M630.8,80c0.9,0.4,1.6,1.2,2,2.1C631.2,82.5,630.5,81.4,630.8,80z M627.7,67.1
			c0-1.1,0-1.1,0-2.1c0.9,0.7,1.1-0.4,2.1-0.2c-0.9-0.4-0.2-1.1-1.1-1.2c2.1-1.1,0.2-2.7-0.9-3.7c-1.6,0.2-3.2,1.4-3.2,3
			c0.2-2.7,0.4-5.7-1.8-7.6c-0.7-0.7-1.1-0.4-1.6-0.7c-1.1,0-2.1,0.2-3,0.7c-1.1,0.9-1.8,2.7-1.8,3.9c0,1.8,1.6,3,0.4,4.6
			c-1.1,1.4-2.3,2.5-4.1,2.8c-1.2,0.2-3.4-0.4-3.9,1.2c-0.2,0.9,0.2,2.3-0.4,3.2c-0.2,0.4-2.5-0.5-2.3-0.9c0.5-0.9,1.8-2.3,2.3-3.2
			c0.5-0.7,1.4-2,2.3-2c2.7,0,5.9-0.4,4.6-3.9c-0.7-2.1-0.5-4.1,0.7-6c0.7-1.4,2.5-1.6,3.9-1.6c0.2-0.2-0.2-0.4,0.2-0.4
			c-0.4-0.2-0.4-0.4-0.2-0.5c0.2,0-0.2-0.4,0-0.4c-0.4,0.2,0-1.1-0.2-0.9c0.2-2.5,0.9-3.7,1.8-6l0,0c0,0,0-0.2,0.2-0.2l2.3-4.1
			c1.6-0.7,3.4-1.2,4.4-2.8c1.6,0.7,3,1.8,4.6,2.3c2.7,0.9,4.6,2.8,6.6,4.8c-0.7,5-0.5,9.9-1.4,14.9c0.2,0.4,0.4,1.2,0.4,1.8
			c2,2,0.4,5,0.7,7.3c0,1.2,0.9,2.7,0.4,4.1c-1.6,0.5-3.4,0.7-5.1,0.7C633,71,631.6,66.9,627.7,67.1z M638.3,95.3h-1.6
			c-0.2-1.8-0.5-3.2-1.1-5c1.2,0,2.1,0.2,3.4,0.4C638.5,92.4,638.3,93.5,638.3,95.3z M638.8,89.8c-1.2,0-2.7,0.2-3.9-0.2
			c-0.2-1.8,1.2-3.2,1.8-4.8c1.1,0.2,2.1,0.5,3.4,0.7C639.9,86.9,639.7,88.5,638.8,89.8z M637.2,82.3c-0.9-1.4,0.2-3-0.2-4.6
			c0.7,0.2,1.6,0.4,2.3,0.5c0.4,1.1,0.5,2.3,0.7,3.5C639.2,82.1,638.3,82.3,637.2,82.3z M645.4,37.2c-1.1-0.2-2.3-0.2-3.4,0
			c0-2.1-0.2-4.4-0.4-6.6c1.2-0.2,2.5-0.4,3.9-0.5c-0.5,1.8-0.5,3.5,0.2,5.3C645.6,35.8,645.6,36.5,645.4,37.2z M657.5,51.8
			c0.5,1.1,1.1,2,1.4,3c-0.4,0.9-0.9,1.4-1.2,2.3c1.6,2.7,0.5,6-1.2,8.3c-0.4-1.6,0.4-3.2,0.7-4.8C656.8,57.6,656.8,54.6,657.5,51.8
			z M656,82.5c0.2-1.4-0.2-3,0.7-4.3c1.2-0.2,2.7-0.2,4.1-0.2c2.5-0.2,4.6,1.2,6.9,1.6c0.5,0.9,0.4,2,0.5,2.8
			C664,82.5,659.9,82.5,656,82.5z M658.9,93.7c0,0.2,0,0.4,0,0.4c0,0.2,0,0.4,0,0.4c0,0.2,0,0.4,0,0.4c-0.4-0.4-0.4,0.4-0.4,0.9
			c-0.5-0.5,0-1.8-0.9-2.7c0-0.2,0-0.4,0-0.5c-0.2-0.9-0.2-1.6-0.2-2.5c0.5,0,1.6,0.5,2.1,0.5C659.1,92.1,659.1,92.6,658.9,93.7z
			 M659.9,88.9c-0.2,0.2-0.5,0.7-0.7,1.1h-2.1c0-1.6-0.2-3.2-0.4-4.8c3.4,0,6.7,0,10.1,0c0.5,1.2,1.2,2.5,1.4,4.1
			C665.4,89.1,662.8,88.3,659.9,88.9z M668.1,74.5c-3.7,0.4-7.1-1.1-10.3-2.7c1.1-1.1,1.6-2.1,1.8-3.5c1.1,0.9,2.7,0.2,3.9,0.4
			c1.4-0.2,3.2,1.2,4.6,1.6C668.3,72.2,668.5,72.4,668.1,74.5z M660.1,55c1.1,0.5,1.4,1.2,2,2.5c1.2,2.7,3.4,5.1,5,7.6
			c0.5,0.5,0.7,2.1-0.2,2.3c-2.3,0.2-4.8,0-7.1,0c1.1-3.5,0.2-6.9,2-10.3C661,56.6,660.8,55.7,660.1,55z M673.4,64.9
			c-0.2,1.4-1.1,2.3-0.5,3.7c0.4,0.9-0.2,2.1-0.4,3.2c0,0.9,0.2,3.9-0.4,4.6c-0.2,0.4-1.8-2.1-1.6-2.5c0.9-1.2,0.9-1.6,0.4-3.4
			c-0.2-0.7,0.4-2.1,0.2-2.8c0-0.9,0.7-2,0.7-2.8c0.2-1.4-0.5-2.3-0.7-3.9c-3.4-1.2-4.6-5.3-7.6-7.3c-1.2-2.7-3.9-4.6-5.9-6.7
			c2,1.6,4.4,3,5.9,5.1c0.7,0.2,1.2,0.5,2,0.7c1.6,1.2,3.4,2.7,5,3.9c1.1,0.9,2,2.1,1.8,3.7c0,0,0,0-0.2,0
			C672.4,61.9,673.8,63.5,673.4,64.9z"/>
	</g>
	<g class="st1">
		<path class="st2" d="M370.5,140.4l0.6-4.6l1.4-15.8l0.7-10.4c2.8,0,5,0,6.5,0c1.3,0,3.3,0,6,0c0.2,1.3,0.4,2.3,0.5,2.9
			s0.5,2,1,3.9s1,3.6,1.3,5s0.8,3.8,1.4,7.3c0.7-2.4,1.3-4.4,1.8-6.1s1.2-3.6,2-5.8s1.3-3.6,1.5-4.2c0.2-0.7,0.5-1.7,0.9-3.1
			c2.3,0,4.5,0,6.6,0c1.5,0,3.5,0,6.1,0c-0.3,5.1-0.5,9.4-0.6,13c-0.2,7.1-0.3,12-0.3,14.7c0,0.6,0,1.6,0,3c-2,0-3.4,0-4.2,0
			c-1.2,0-2.6,0-4.3,0c0.1-1.4,0.3-4.6,0.5-9.7c0.2-5.1,0.3-8.3,0.3-9.7c0-0.6,0-1.5,0-2.6l-3,9.2l-4.2,12.8c-2,0-3.3,0-4,0
			c-0.9,0-2.4,0-4.3,0l-2.8-12.4l-1.6-6.6c-0.1-0.3-0.1-0.6-0.2-0.9c-0.1-0.4-0.2-1-0.4-2l-0.6,6.2l-0.7,12.8l-0.1,2.9
			c-2.1,0-3.4,0-4,0C373.8,140.4,372.4,140.4,370.5,140.4z"/>
		<path class="st2" d="M413.5,140.4c0.4-3.9,0.7-7.1,0.8-9.7c0.2-2.6,0.3-6.1,0.5-10.4s0.3-7.2,0.3-8.6v-2c3.5,0,7.8,0,12.9,0
			c4.6,0,8.7,0,12.3,0v0.7c0,0.2-0.1,0.8-0.1,2l-0.1,2.4c0,0.5,0,1.1,0,1.6c-2.9-0.1-5.3-0.2-7.3-0.2c-2.2,0-3.6,0-4.4,0
			s-1.9,0-3.5,0.1l-0.3,5.2c1.8,0,3.8,0.1,6.2,0.1c0.8,0,3.1-0.1,6.7-0.2c-0.2,1.9-0.3,4.2-0.4,6.9c-2.6,0-4.6,0-6,0
			c-2.1,0-4.4,0.1-7,0.2l-0.3,5.5h2.6c0.8,0,2.3,0,4.8-0.1l4.7-0.1c0.7,0,1.8-0.1,3.5-0.2c-0.2,2.2-0.3,4.5-0.5,6.9
			c-3.7,0-7.7,0-12.1,0h-9.9L413.5,140.4z"/>
		<path class="st2" d="M443.7,140.4c0.4-3.5,0.6-6.4,0.8-8.7c0.3-4.1,0.6-8.1,0.7-12.2c0.2-4,0.2-7.3,0.2-9.9c2,0,3.8,0,5.4,0
			c1.1,0,2.6,0,4.6,0l-0.5,8.2l-0.7,12.8l-0.1,3.1c2.6,0,4.3,0.1,5,0.1c4,0,6.9-0.1,9-0.2l-0.5,6.8c-4,0-7.7,0-11.3,0
			C451.6,140.4,447.3,140.4,443.7,140.4z"/>
		<path class="st2" d="M477.8,140.4c0.7-7.3,1.2-15.3,1.3-24.1l-9.6,0.2l0.1-2.5c0.1-1.3,0.1-2.8,0.1-4.4c4.3,0,9.2,0,14.9,0h5.6
			h5.4h2.9l-0.1,2.2c-0.1,1.2-0.1,2.2-0.1,2.9c0,0.8,0,1.4,0,1.8c-3.2-0.2-5.9-0.2-7.9-0.2h-1.6c-0.2,2.7-0.4,5.1-0.5,7.4
			c-0.2,3.2-0.3,6.4-0.4,9.4s-0.1,5.5-0.1,7.4c-2.5,0-4.1,0-4.8,0C482.3,140.4,480.6,140.4,477.8,140.4z"/>
		<path class="st2" d="M500.3,140.4c0.9-12.1,1.3-21.3,1.3-27.8v-2.9c2.6,0,4.4,0,5.3,0c0.4,0,2,0,4.8,0c-0.3,3.4-0.5,6.6-0.7,9.6
			c-0.2,4.2-0.4,8.1-0.5,11.8c-0.1,3.7-0.1,6.8-0.1,9.4h-4.6C505,140.4,503.1,140.4,500.3,140.4z"/>
		<path class="st2" d="M516,140.4l0.5-4.7l0.9-16l0.2-6.5v-3.5c2.3,0,4.4,0,6.2,0c1.3,0,3.1,0,5.4,0l9.6,17.5l1.3,2.6
			c0.2-2.5,0.3-6.1,0.5-10.6c0.2-4.6,0.3-7.7,0.3-9.4c1.8,0,3.3,0,4.4,0c0.5,0,2,0,4.4,0l-0.5,6.7l-1,18.7l-0.1,5.4
			c-2,0-3.8,0-5.5,0c-1.4,0-3.4,0-5.9,0c-0.8-1.5-1.4-2.5-1.7-3.2l-3.8-6.4c-1.2-2.1-2.4-4.1-3.4-6c-0.7-1.2-1.4-2.6-2.1-4
			l-0.5,10.7l-0.2,9c-1.9,0-3.3,0-4.3,0C519.9,140.4,518.3,140.4,516,140.4z"/>
		<path class="st2" d="M572,122.5c2.1,0,4,0,5.9,0c3.2,0,5.7,0,7.5,0c-0.2,2.1-0.4,5-0.6,8.7c-0.2,3.8-0.3,6.6-0.4,8.5
			c-1.7,0.3-3.2,0.5-4.3,0.7c-1.1,0.1-2.5,0.3-4.1,0.4c-1.6,0.1-3,0.2-4.3,0.2c-2,0-4-0.2-6-0.5c-2-0.3-3.7-0.9-5.3-1.6
			s-2.9-1.7-3.9-3c-1-1.3-1.8-2.8-2.4-4.5c-0.6-1.7-0.8-3.5-0.8-5.4c0-3,0.8-5.9,2.3-8.5s3.7-4.7,6.5-6.2s6.5-2.3,11-2.3
			c3.3,0,6.9,0.4,10.9,1.2c0,2.2,0.1,4.6,0.3,7.3c-1.1-0.4-2-0.6-2.6-0.8c-0.7-0.2-1.4-0.4-2.3-0.5c-0.9-0.2-1.7-0.3-2.5-0.3
			c-0.8-0.1-1.5-0.1-2.2-0.1c-1.7,0-3.2,0.2-4.7,0.7s-2.7,1.2-3.8,2.2s-1.9,2.2-2.4,3.5c-0.5,1.4-0.8,2.8-0.8,4.3s0.3,2.9,0.9,4.1
			s1.6,2.1,2.9,2.8c1.3,0.6,2.8,0.9,4.4,0.9c1.3,0,2.8-0.2,4.4-0.6l0.3-4.9c-1,0-1.6-0.1-1.7-0.1h-2.4l0.2-2.8c0-0.3,0-0.7,0.1-1.3
			C572,124.2,572,123.4,572,122.5z"/>
		<path class="st2" d="M601.1,139.9c-0.2-3.2-0.4-5.8-0.7-7.7c1.7,0.8,3.2,1.3,4.5,1.6c1.3,0.3,2.5,0.4,3.5,0.4
			c1.3,0,2.4-0.2,3.1-0.6c0.8-0.4,1.2-0.9,1.2-1.7c0-0.3,0-0.5-0.1-0.7c-0.1-0.2-0.2-0.5-0.4-0.8c-0.2-0.3-0.5-0.6-0.9-1l-4.2-3.7
			c-1-0.8-1.7-1.4-2.1-1.8c-0.8-0.8-1.4-1.5-1.9-2.1s-0.8-1.3-1-2s-0.3-1.4-0.3-2.2c0-0.9,0.2-1.8,0.5-2.7c0.3-0.9,0.8-1.7,1.5-2.5
			s1.5-1.4,2.6-2s2.2-0.9,3.4-1.1s2.5-0.3,3.8-0.3c2.5,0,5.3,0.3,8.3,0.9c0,1,0.1,2,0.2,2.8c0.1,0.9,0.2,2.4,0.4,4.5
			c-1.4-0.6-2.6-0.9-3.8-1.2c-1.1-0.2-2.1-0.3-3-0.3c-1.2,0-2.1,0.2-2.9,0.7c-0.8,0.4-1.2,1-1.2,1.6c0,0.3,0.1,0.6,0.2,0.9
			s0.3,0.6,0.7,1c0.3,0.4,0.8,0.8,1.3,1.3s1.4,1.1,2.5,2l1.6,1.3c0.5,0.4,1,0.9,1.6,1.4c0.6,0.6,1,1.1,1.4,1.6
			c0.4,0.5,0.7,1,0.9,1.5s0.4,0.9,0.5,1.4s0.2,1,0.2,1.5c0,1.4-0.3,2.6-1,3.9c-0.6,1.2-1.6,2.2-2.7,3c-1.2,0.8-2.5,1.3-3.9,1.7
			c-1.4,0.3-2.9,0.5-4.5,0.5C607.9,141,604.9,140.6,601.1,139.9z"/>
		<path class="st2" d="M627,140.4l0.4-5.8l0.6-11.3l0.2-8c0-0.9,0-1.7,0-2.6c0-0.6,0-1.7,0-3.2c2,0,3.6,0.1,4.8,0.1s2.7,0,4.8-0.1
			c2-0.1,3.7-0.1,5.1-0.1c2,0,3.5,0.1,4.5,0.4s1.8,0.7,2.6,1.2s1.4,1.2,1.9,1.9c0.5,0.7,0.9,1.6,1.1,2.5c0.3,0.9,0.4,1.9,0.4,2.9
			c0,2-0.5,3.9-1.5,5.5c-1,1.7-2.4,2.9-4.1,3.7c-1.8,0.8-3.8,1.2-6,1.2c-0.8,0-1.8-0.1-2.8-0.3c-0.1-0.7-0.3-1.7-0.7-3.1
			c-0.3-1.4-0.6-2.4-0.8-3c0.7,0.1,1.4,0.2,2.1,0.2c1.5,0,2.6-0.4,3.4-1.1c0.7-0.7,1.1-1.6,1.1-2.7c0-0.5-0.1-1-0.2-1.4
			c-0.2-0.4-0.4-0.7-0.8-1c-0.4-0.3-0.8-0.4-1.2-0.5s-0.9-0.1-1.5-0.1c-0.5,0-1.1,0-1.7,0l-1.9,0.1c-0.2,2.9-0.3,6.1-0.4,9.7
			c-0.2,6.5-0.3,10.3-0.3,11.6v2.9h-4.5C631.1,140.4,629.5,140.4,627,140.4z"/>
		<path class="st2" d="M675,109.1c2.4,0,4.7,0.3,6.9,1s4.2,1.7,5.8,3.1c1.7,1.4,2.9,3.1,3.7,4.9s1.2,4,1.2,6.4c0,2.5-0.5,4.8-1.4,7
			c-0.9,2.1-2.2,3.9-3.9,5.4s-3.8,2.5-6.1,3.2c-2.4,0.7-4.8,1-7.4,1c-2.5,0-5-0.3-7.3-1c-2.3-0.7-4.4-1.7-6.1-3.2s-2.9-3.2-3.7-5
			c-0.7-1.8-1.1-3.9-1.1-6.1c0-3.3,0.8-6.2,2.3-8.7s3.8-4.4,6.8-5.8S671.2,109.1,675,109.1z M674.6,115.8c-1.7,0-3.3,0.4-4.7,1.3
			c-1.4,0.8-2.5,2-3.2,3.5c-0.8,1.5-1.1,3.1-1.1,4.9c0,1.6,0.3,3,1,4.4c0.7,1.3,1.7,2.4,3.1,3.1c1.4,0.7,2.9,1.1,4.4,1.1
			c1.7,0,3.2-0.4,4.6-1.3c1.4-0.9,2.4-2,3.2-3.5c0.7-1.5,1.1-3.1,1.1-4.7s-0.3-3.1-1-4.4c-0.7-1.4-1.7-2.4-3-3.2
			C677.7,116.2,676.2,115.8,674.6,115.8z"/>
		<path class="st2" d="M696.3,140.4c0.3-2.6,0.5-5,0.7-7.1s0.3-4.6,0.4-7.4c0.1-2.8,0.2-5.7,0.3-8.8c0.1-3.1,0.1-5.6,0.1-7.4
			c1.9,0,3.4,0.1,4.5,0.1c1.2,0,2.7,0,4.4-0.1s3.4-0.1,5-0.1c1.9,0,3.6,0.1,5.1,0.2c1.1,0.1,2.2,0.3,3.1,0.7
			c0.9,0.3,1.7,0.7,2.3,1.2s1.2,1,1.6,1.6s0.7,1.3,1,2.1c0.2,0.8,0.3,1.6,0.3,2.5c0,1-0.1,1.9-0.4,2.8c-0.3,0.9-0.7,1.7-1.2,2.5
			s-1.2,1.4-2.1,2s-2,1.1-3.5,1.7l1.2,2.9c0.3,0.8,0.7,1.6,1.1,2.4l3,6.6c0.1,0.3,0.4,0.8,0.7,1.7c-2.5,0-4.1,0-5,0
			c-1.1,0-2.9,0-5.3,0c-0.2-0.8-0.7-2.2-1.3-4.3c-0.3-0.9-0.5-1.6-0.7-2c-0.4-1.1-0.9-2.6-1.6-4.5l-2.3-6.4c0.8,0.2,1.6,0.2,2.4,0.2
			c1.1,0,2.1-0.2,3-0.5s1.6-0.8,2-1.5c0.5-0.7,0.7-1.4,0.7-2.2c0-0.6-0.2-1.2-0.5-1.7s-0.9-0.9-1.6-1.1s-1.9-0.4-3.4-0.4
			c-0.5,0-1.1,0-1.6,0c-0.6,0-1.2,0-2,0.1c-0.2,3.1-0.4,6.8-0.5,11.3c-0.1,4.4-0.2,8.8-0.3,13c-2.5,0-4.1,0-4.9,0
			C700.1,140.4,698.5,140.4,696.3,140.4z"/>
		<path class="st2" d="M735.5,140.4c0.7-7.3,1.2-15.3,1.3-24.1l-9.6,0.2l0.1-2.5c0.1-1.3,0.1-2.8,0.1-4.4c4.3,0,9.2,0,14.9,0h5.6
			h5.4h2.9l-0.1,2.2c-0.1,1.2-0.1,2.2-0.1,2.9c0,0.8,0,1.4,0,1.8c-3.2-0.2-5.9-0.2-7.9-0.2h-1.6c-0.2,2.7-0.4,5.1-0.5,7.4
			c-0.2,3.2-0.3,6.4-0.4,9.4c-0.1,3-0.1,5.5-0.1,7.4c-2.5,0-4.1,0-4.8,0C740,140.4,738.3,140.4,735.5,140.4z"/>
		<path class="st2" d="M757.7,139.9c-0.2-3.2-0.4-5.8-0.7-7.7c1.7,0.8,3.2,1.3,4.5,1.6c1.3,0.3,2.5,0.4,3.5,0.4
			c1.3,0,2.4-0.2,3.1-0.6c0.8-0.4,1.2-0.9,1.2-1.7c0-0.3,0-0.5-0.1-0.7c-0.1-0.2-0.2-0.5-0.4-0.8c-0.2-0.3-0.5-0.6-0.9-1l-4.2-3.7
			c-1-0.8-1.7-1.4-2.1-1.8c-0.8-0.8-1.4-1.5-1.9-2.1s-0.8-1.3-1-2s-0.3-1.4-0.3-2.2c0-0.9,0.2-1.8,0.5-2.7c0.3-0.9,0.8-1.7,1.5-2.5
			s1.5-1.4,2.6-2s2.2-0.9,3.4-1.1s2.5-0.3,3.8-0.3c2.5,0,5.3,0.3,8.3,0.9c0,1,0.1,2,0.2,2.8c0.1,0.9,0.2,2.4,0.4,4.5
			c-1.4-0.6-2.6-0.9-3.8-1.2c-1.1-0.2-2.1-0.3-3-0.3c-1.2,0-2.1,0.2-2.9,0.7s-1.2,1-1.2,1.6c0,0.3,0.1,0.6,0.2,0.9
			c0.1,0.3,0.3,0.6,0.7,1c0.3,0.4,0.8,0.8,1.3,1.3s1.4,1.1,2.5,2l1.6,1.3c0.5,0.4,1,0.9,1.6,1.4c0.6,0.6,1,1.1,1.4,1.6
			c0.4,0.5,0.7,1,0.9,1.5s0.4,0.9,0.5,1.4s0.2,1,0.2,1.5c0,1.4-0.3,2.6-1,3.9c-0.6,1.2-1.6,2.2-2.7,3c-1.2,0.8-2.5,1.3-3.9,1.7
			c-1.4,0.3-2.9,0.5-4.5,0.5C764.4,141,761.4,140.6,757.7,139.9z"/>
		<path class="st2" d="M821.6,132.9c-0.2,0.9-0.4,2.1-0.7,3.7s-0.4,2.8-0.5,3.7c-3.2,0.5-6.1,0.7-8.6,0.7c-2.4,0-4.7-0.3-6.8-0.9
			c-2.1-0.6-4-1.6-5.8-3s-3-3-3.8-4.9s-1.1-4-1.1-6.3c0-2.7,0.5-5.2,1.5-7.3c1-2.2,2.5-4,4.4-5.4s4-2.5,6.3-3.1s4.6-0.9,7-0.9
			c2.2,0,5,0.3,8.2,0.9v1.9c0,0.8,0.1,1.7,0.1,2.7l0.2,2.6c-1.8-0.4-3.2-0.7-4.3-0.9c-1.1-0.1-2.1-0.2-3-0.2c-2,0-3.9,0.4-5.5,1.2
			s-2.9,2-3.8,3.5c-0.9,1.5-1.4,3.3-1.4,5.1c0,1.7,0.4,3.2,1.2,4.4c0.8,1.2,1.8,2.2,3.2,2.8s3,1,4.9,1c1.1,0,2.2-0.1,3.5-0.3
			C818.1,133.7,819.7,133.4,821.6,132.9z"/>
		<path class="st2" d="M844.5,109.1c2.4,0,4.7,0.3,6.9,1c2.2,0.6,4.2,1.7,5.8,3.1c1.7,1.4,2.9,3.1,3.7,4.9s1.2,4,1.2,6.4
			c0,2.5-0.5,4.8-1.4,7c-0.9,2.1-2.2,3.9-3.9,5.4s-3.8,2.5-6.1,3.2c-2.4,0.7-4.8,1-7.4,1c-2.5,0-5-0.3-7.3-1
			c-2.3-0.7-4.4-1.7-6.1-3.2c-1.7-1.5-2.9-3.2-3.7-5c-0.7-1.8-1.1-3.9-1.1-6.1c0-3.3,0.8-6.2,2.3-8.7s3.8-4.4,6.8-5.8
			C837.4,109.8,840.7,109.1,844.5,109.1z M844.1,115.8c-1.7,0-3.3,0.4-4.7,1.3c-1.4,0.8-2.5,2-3.2,3.5c-0.8,1.5-1.1,3.1-1.1,4.9
			c0,1.6,0.3,3,1,4.4c0.7,1.3,1.7,2.4,3.1,3.1c1.4,0.7,2.9,1.1,4.4,1.1c1.7,0,3.2-0.4,4.6-1.3c1.4-0.8,2.4-2,3.2-3.5
			c0.7-1.5,1.1-3.1,1.1-4.7s-0.3-3.1-1-4.4c-0.7-1.4-1.7-2.4-3-3.2C847.2,116.2,845.7,115.8,844.1,115.8z"/>
		<path class="st2" d="M865.9,140.4l0.5-4.7l0.9-16l0.2-6.5v-3.5c2.3,0,4.4,0,6.2,0c1.3,0,3.1,0,5.4,0l9.6,17.5l1.3,2.6
			c0.2-2.5,0.3-6.1,0.5-10.6c0.2-4.6,0.3-7.7,0.3-9.4c1.8,0,3.3,0,4.4,0c0.5,0,2,0,4.4,0l-0.5,6.7l-1,18.7l-0.1,5.4
			c-2,0-3.8,0-5.5,0c-1.4,0-3.4,0-5.9,0c-0.8-1.5-1.4-2.5-1.7-3.2l-3.8-6.4c-1.2-2.1-2.4-4.1-3.4-6c-0.7-1.2-1.4-2.6-2.1-4
			l-0.5,10.7l-0.2,9c-1.9,0-3.3,0-4.3,0C869.7,140.4,868.1,140.4,865.9,140.4z"/>
		<path class="st2" d="M903.5,139.9c-0.2-3.2-0.4-5.8-0.7-7.7c1.7,0.8,3.2,1.3,4.5,1.6c1.3,0.3,2.5,0.4,3.5,0.4
			c1.3,0,2.4-0.2,3.1-0.6c0.8-0.4,1.2-0.9,1.2-1.7c0-0.3,0-0.5-0.1-0.7c-0.1-0.2-0.2-0.5-0.4-0.8c-0.2-0.3-0.5-0.6-0.9-1l-4.2-3.7
			c-1-0.8-1.7-1.4-2.1-1.8c-0.8-0.8-1.4-1.5-1.9-2.1c-0.4-0.7-0.8-1.3-1-2s-0.3-1.4-0.3-2.2c0-0.9,0.2-1.8,0.5-2.7
			c0.3-0.9,0.8-1.7,1.5-2.5c0.6-0.8,1.5-1.4,2.6-2s2.2-0.9,3.4-1.1s2.5-0.3,3.8-0.3c2.5,0,5.3,0.3,8.3,0.9c0,1,0.1,2,0.2,2.8
			c0.1,0.9,0.2,2.4,0.4,4.5c-1.4-0.6-2.6-0.9-3.8-1.2c-1.1-0.2-2.1-0.3-3-0.3c-1.2,0-2.1,0.2-2.9,0.7s-1.2,1-1.2,1.6
			c0,0.3,0.1,0.6,0.2,0.9c0.1,0.3,0.3,0.6,0.7,1c0.3,0.4,0.8,0.8,1.3,1.3s1.4,1.1,2.5,2l1.6,1.3c0.5,0.4,1,0.9,1.6,1.4
			s1,1.1,1.4,1.6c0.4,0.5,0.7,1,0.9,1.5s0.4,0.9,0.5,1.4s0.2,1,0.2,1.5c0,1.4-0.3,2.6-1,3.9s-1.6,2.2-2.7,3
			c-1.1,0.8-2.5,1.3-3.9,1.7s-2.9,0.5-4.5,0.5C910.2,141,907.2,140.6,903.5,139.9z"/>
		<path class="st2" d="M930.6,109.7c2.3,0,4,0,5,0c1.2,0,2.8,0,4.8,0l-0.7,9.6c-0.1,1.8-0.2,3.5-0.3,5.1s-0.1,2.7-0.1,3.3
			c0,1.1,0.1,2.1,0.2,2.9c0.2,0.8,0.5,1.4,0.9,1.9s1,0.9,1.8,1.2c0.8,0.3,1.6,0.4,2.4,0.4c0.7,0,1.4-0.1,2-0.3
			c0.5-0.2,0.9-0.4,1.3-0.7c0.3-0.3,0.6-0.6,0.9-0.9c0.3-0.4,0.6-1,0.8-1.6s0.4-1.4,0.5-2.4c0.1-1,0.3-3.2,0.5-6.7
			c0.2-3,0.3-5.7,0.5-8.2c0.1-2.4,0.2-3.6,0.2-3.6c2.3,0,4.1,0,5.4,0h4.6l-1.1,16c0,0.3,0,0.5,0,0.7c-0.1,3.1-0.3,5.3-0.6,6.6
			c-0.3,1.3-0.9,2.4-1.6,3.3c-0.7,0.9-1.8,1.8-3.3,2.6c-1.4,0.8-3.1,1.3-4.9,1.6c-1.8,0.3-3.7,0.5-5.6,0.5c-1.7,0-3.3-0.1-4.9-0.4
			c-1.4-0.2-2.7-0.6-3.9-1c-1.2-0.5-2.2-1-3-1.6s-1.4-1.2-1.8-1.7c-0.4-0.6-0.8-1.3-1-2.1c-0.3-0.9-0.4-1.9-0.4-3c0-0.4,0-0.9,0-1.6
			s0.1-1.8,0.2-3.1l0.3-3.6c0.1-0.9,0.2-2.3,0.2-4.2L930.6,109.7z"/>
		<path class="st2" d="M964.9,140.4c0.4-3.5,0.6-6.4,0.8-8.7c0.3-4.1,0.6-8.1,0.7-12.2s0.2-7.3,0.2-9.9c2,0,3.8,0,5.4,0
			c1.1,0,2.6,0,4.6,0l-0.5,8.2l-0.7,12.8l-0.1,3.1c2.6,0,4.3,0.1,5,0.1c4,0,6.9-0.1,9-0.2l-0.5,6.8c-3.9,0-7.7,0-11.3,0
			C972.7,140.4,968.5,140.4,964.9,140.4z"/>
		<path class="st2" d="M999,140.4c0.7-7.3,1.2-15.3,1.3-24.1l-9.6,0.2l0.1-2.5c0.1-1.3,0.1-2.8,0.1-4.4c4.3,0,9.2,0,14.9,0h5.6h5.4
			h2.9l-0.1,2.2c-0.1,1.2-0.1,2.2-0.1,2.9c0,0.8,0,1.4,0,1.8c-3.2-0.2-5.9-0.2-7.9-0.2h-1.6c-0.2,2.7-0.4,5.1-0.5,7.4
			c-0.2,3.2-0.3,6.4-0.4,9.4c-0.1,3-0.1,5.5-0.1,7.4c-2.5,0-4.1,0-4.8,0C1003.5,140.4,1001.8,140.4,999,140.4z"/>
		<path class="st2" d="M1021.5,140.4c0.9-12.1,1.3-21.3,1.3-27.8v-2.9c2.6,0,4.4,0,5.3,0c0.4,0,2,0,4.8,0c-0.3,3.4-0.5,6.6-0.7,9.6
			c-0.2,4.2-0.4,8.1-0.5,11.8c-0.1,3.7-0.1,6.8-0.1,9.4h-4.6C1026.1,140.4,1024.3,140.4,1021.5,140.4z"/>
		<path class="st2" d="M1037.2,140.4l0.5-4.7l0.9-16l0.2-6.5v-3.5c2.3,0,4.4,0,6.2,0c1.3,0,3.1,0,5.4,0l9.6,17.5l1.3,2.6
			c0.2-2.5,0.3-6.1,0.5-10.6c0.2-4.6,0.3-7.7,0.3-9.4c1.8,0,3.3,0,4.4,0c0.5,0,2,0,4.4,0l-0.5,6.7l-1,18.7l-0.1,5.4
			c-2,0-3.8,0-5.5,0c-1.4,0-3.4,0-5.9,0c-0.8-1.5-1.4-2.5-1.7-3.2l-3.8-6.4c-1.2-2.1-2.4-4.1-3.4-6c-0.7-1.2-1.4-2.6-2.1-4
			l-0.5,10.7l-0.2,9c-1.9,0-3.3,0-4.3,0C1041,140.4,1039.5,140.4,1037.2,140.4z"/>
		<path class="st2" d="M1093.1,122.5c2.1,0,4,0,5.9,0c3.2,0,5.7,0,7.5,0c-0.2,2.1-0.4,5-0.6,8.7c-0.2,3.7-0.3,6.6-0.4,8.5
			c-1.7,0.3-3.2,0.5-4.3,0.7c-1.1,0.2-2.5,0.3-4.1,0.4c-1.6,0.1-3,0.2-4.3,0.2c-2,0-4-0.2-6-0.5c-2-0.3-3.7-0.9-5.3-1.6
			c-1.6-0.7-2.8-1.7-3.9-3c-1-1.3-1.8-2.8-2.4-4.5c-0.6-1.7-0.8-3.5-0.8-5.4c0-3,0.8-5.9,2.3-8.5s3.7-4.7,6.5-6.2s6.5-2.3,11-2.3
			c3.3,0,6.9,0.4,10.9,1.2c0,2.2,0.1,4.6,0.3,7.3c-1.1-0.4-2-0.6-2.6-0.8c-0.7-0.2-1.4-0.4-2.3-0.5c-0.9-0.2-1.7-0.3-2.5-0.3
			c-0.8-0.1-1.5-0.1-2.2-0.1c-1.7,0-3.2,0.2-4.7,0.7s-2.7,1.2-3.8,2.2c-1.1,1-1.9,2.2-2.4,3.5s-0.8,2.8-0.8,4.3s0.3,2.9,0.9,4.1
			s1.6,2.1,2.9,2.8c1.3,0.7,2.8,0.9,4.4,0.9c1.3,0,2.8-0.2,4.4-0.6l0.3-4.9c-1,0-1.6-0.1-1.7-0.1h-2.4l0.2-2.8c0-0.3,0-0.7,0.1-1.3
			S1093.1,123.4,1093.1,122.5z"/>
	</g>
</g>
</svg>
